<?xml version="1.0" encoding="utf-8" standalone="no"?>
<!DOCTYPE svg PUBLIC "-//W3C//DTD SVG 1.1//EN"
  "http://www.w3.org/Graphics/SVG/1.1/DTD/svg11.dtd">
<svg xmlns:xlink="http://www.w3.org/1999/xlink" width="360pt" height="216pt" viewBox="0 0 360 216" xmlns="http://www.w3.org/2000/svg" version="1.1">
 <metadata>
  <rdf:RDF xmlns:dc="http://purl.org/dc/elements/1.1/" xmlns:cc="http://creativecommons.org/ns#" xmlns:rdf="http://www.w3.org/1999/02/22-rdf-syntax-ns#">
   <cc:Work>
    <dc:type rdf:resource="http://purl.org/dc/dcmitype/StillImage"/>
    <dc:date>2025-06-05T07:24:41.849176</dc:date>
    <dc:format>image/svg+xml</dc:format>
    <dc:creator>
     <cc:Agent>
      <dc:title>Matplotlib v3.10.0, https://matplotlib.org/</dc:title>
     </cc:Agent>
    </dc:creator>
   </cc:Work>
  </rdf:RDF>
 </metadata>
 <defs>
  <style type="text/css">*{stroke-linejoin: round; stroke-linecap: butt}</style>
 </defs>
 <g id="figure_1">
  <g id="patch_1">
   <path d="M 0 216 
L 360 216 
L 360 0 
L 0 0 
z
" style="fill: #ffffff"/>
  </g>
  <g id="axes_1">
   <g id="patch_2">
    <path d="M 45 192.24 
L 324 192.24 
L 324 25.92 
L 45 25.92 
z
" style="fill: #ffffff"/>
   </g>
   <g id="matplotlib.axis_1">
    <g id="xtick_1">
     <g id="line2d_1">
      <defs>
       <path id="m0fb399ef1a" d="M 0 0 
L 0 3.5 
" style="stroke: #000000; stroke-width: 0.8"/>
      </defs>
      <g>
       <use xlink:href="#m0fb399ef1a" x="45" y="192.24" style="stroke: #000000; stroke-width: 0.8"/>
      </g>
     </g>
     <g id="text_1">
      <!-- $\mathdefault{10^{-3}}$ -->
      <g transform="translate(34.919713 206.158498) scale(0.1 -0.1)">
       <defs>
        <path id="CMR17-31" d="M 1702 4083 
C 1702 4217 1696 4224 1606 4224 
C 1357 3927 979 3833 621 3820 
C 602 3820 570 3820 563 3808 
C 557 3795 557 3782 557 3648 
C 755 3648 1088 3686 1344 3839 
L 1344 467 
C 1344 243 1331 166 781 166 
L 589 166 
L 589 0 
C 896 6 1216 12 1523 12 
C 1830 12 2150 6 2458 0 
L 2458 166 
L 2266 166 
C 1715 166 1702 236 1702 467 
L 1702 4083 
z
" transform="scale(0.015625)"/>
        <path id="CMR17-30" d="M 2688 2038 
C 2688 2430 2682 3099 2413 3613 
C 2176 4063 1798 4224 1466 4224 
C 1158 4224 768 4082 525 3620 
C 269 3137 243 2539 243 2038 
C 243 1671 250 1112 448 623 
C 723 -39 1216 -128 1466 -128 
C 1760 -128 2208 -7 2470 604 
C 2662 1048 2688 1568 2688 2038 
z
M 1466 -26 
C 1056 -26 813 328 723 816 
C 653 1196 653 1749 653 2109 
C 653 2604 653 3015 736 3407 
C 858 3954 1216 4121 1466 4121 
C 1728 4121 2067 3947 2189 3420 
C 2272 3054 2278 2623 2278 2109 
C 2278 1691 2278 1176 2202 797 
C 2067 96 1690 -26 1466 -26 
z
" transform="scale(0.015625)"/>
        <path id="CMSY10-0" d="M 4218 1472 
C 4326 1472 4442 1472 4442 1600 
C 4442 1728 4326 1728 4218 1728 
L 755 1728 
C 646 1728 531 1728 531 1600 
C 531 1472 646 1472 755 1472 
L 4218 1472 
z
" transform="scale(0.015625)"/>
        <path id="CMR17-33" d="M 1414 2176 
C 1984 2176 2234 1673 2234 1094 
C 2234 322 1824 25 1453 25 
C 1114 25 563 193 390 691 
C 422 678 454 678 486 678 
C 640 678 755 780 755 947 
C 755 1132 614 1216 486 1216 
C 378 1216 211 1164 211 927 
C 211 335 787 -128 1466 -128 
C 2176 -128 2720 432 2720 1087 
C 2720 1718 2208 2176 1600 2246 
C 2086 2347 2554 2776 2554 3353 
C 2554 3856 2048 4224 1472 4224 
C 890 4224 378 3862 378 3347 
C 378 3123 544 3084 627 3084 
C 762 3084 877 3167 877 3334 
C 877 3500 762 3584 627 3584 
C 602 3584 570 3584 544 3571 
C 730 3999 1235 4076 1459 4076 
C 1683 4076 2106 3966 2106 3347 
C 2106 3167 2080 2851 1862 2574 
C 1670 2329 1453 2316 1242 2297 
C 1210 2297 1062 2284 1037 2284 
C 992 2278 966 2272 966 2227 
C 966 2182 973 2176 1101 2176 
L 1414 2176 
z
" transform="scale(0.015625)"/>
       </defs>
       <use xlink:href="#CMR17-31" transform="scale(0.996264)"/>
       <use xlink:href="#CMR17-30" transform="translate(45.690477 0) scale(0.996264)"/>
       <use xlink:href="#CMSY10-0" transform="translate(91.380954 36.153639) scale(0.697382)"/>
       <use xlink:href="#CMR17-33" transform="translate(145.621947 36.153639) scale(0.697382)"/>
      </g>
     </g>
    </g>
    <g id="xtick_2">
     <g id="line2d_2">
      <g>
       <use xlink:href="#m0fb399ef1a" x="138" y="192.24" style="stroke: #000000; stroke-width: 0.8"/>
      </g>
     </g>
     <g id="text_2">
      <!-- $\mathdefault{10^{-2}}$ -->
      <g transform="translate(127.919713 206.158498) scale(0.1 -0.1)">
       <defs>
        <path id="CMR17-32" d="M 2669 990 
L 2554 990 
C 2490 537 2438 460 2413 422 
C 2381 371 1920 371 1830 371 
L 602 371 
C 832 620 1280 1073 1824 1596 
C 2214 1966 2669 2400 2669 3033 
C 2669 3788 2067 4224 1395 4224 
C 691 4224 262 3603 262 3027 
C 262 2777 448 2745 525 2745 
C 589 2745 781 2783 781 3007 
C 781 3206 614 3264 525 3264 
C 486 3264 448 3257 422 3244 
C 544 3788 915 4057 1306 4057 
C 1862 4057 2227 3616 2227 3033 
C 2227 2477 1901 1998 1536 1583 
L 262 147 
L 262 0 
L 2515 0 
L 2669 990 
z
" transform="scale(0.015625)"/>
       </defs>
       <use xlink:href="#CMR17-31" transform="scale(0.996264)"/>
       <use xlink:href="#CMR17-30" transform="translate(45.690477 0) scale(0.996264)"/>
       <use xlink:href="#CMSY10-0" transform="translate(91.380954 36.153639) scale(0.697382)"/>
       <use xlink:href="#CMR17-32" transform="translate(145.621947 36.153639) scale(0.697382)"/>
      </g>
     </g>
    </g>
    <g id="xtick_3">
     <g id="line2d_3">
      <g>
       <use xlink:href="#m0fb399ef1a" x="231" y="192.24" style="stroke: #000000; stroke-width: 0.8"/>
      </g>
     </g>
     <g id="text_3">
      <!-- $\mathdefault{10^{-1}}$ -->
      <g transform="translate(220.919713 206.158498) scale(0.1 -0.1)">
       <use xlink:href="#CMR17-31" transform="scale(0.996264)"/>
       <use xlink:href="#CMR17-30" transform="translate(45.690477 0) scale(0.996264)"/>
       <use xlink:href="#CMSY10-0" transform="translate(91.380954 36.153639) scale(0.697382)"/>
       <use xlink:href="#CMR17-31" transform="translate(145.621947 36.153639) scale(0.697382)"/>
      </g>
     </g>
    </g>
    <g id="xtick_4">
     <g id="line2d_4">
      <g>
       <use xlink:href="#m0fb399ef1a" x="324" y="192.24" style="stroke: #000000; stroke-width: 0.8"/>
      </g>
     </g>
     <g id="text_4">
      <!-- $\mathdefault{10^{0}}$ -->
      <g transform="translate(317.033046 206.158498) scale(0.1 -0.1)">
       <use xlink:href="#CMR17-31" transform="scale(0.996264)"/>
       <use xlink:href="#CMR17-30" transform="translate(45.690477 0) scale(0.996264)"/>
       <use xlink:href="#CMR17-30" transform="translate(91.380954 36.153639) scale(0.697382)"/>
      </g>
     </g>
    </g>
    <g id="xtick_5">
     <g id="line2d_5">
      <defs>
       <path id="m3fb3f75f40" d="M 0 0 
L 0 2 
" style="stroke: #000000; stroke-width: 0.6"/>
      </defs>
      <g>
       <use xlink:href="#m3fb3f75f40" x="72.99579" y="192.24" style="stroke: #000000; stroke-width: 0.6"/>
      </g>
     </g>
    </g>
    <g id="xtick_6">
     <g id="line2d_6">
      <g>
       <use xlink:href="#m3fb3f75f40" x="89.372277" y="192.24" style="stroke: #000000; stroke-width: 0.6"/>
      </g>
     </g>
    </g>
    <g id="xtick_7">
     <g id="line2d_7">
      <g>
       <use xlink:href="#m3fb3f75f40" x="100.991579" y="192.24" style="stroke: #000000; stroke-width: 0.6"/>
      </g>
     </g>
    </g>
    <g id="xtick_8">
     <g id="line2d_8">
      <g>
       <use xlink:href="#m3fb3f75f40" x="110.00421" y="192.24" style="stroke: #000000; stroke-width: 0.6"/>
      </g>
     </g>
    </g>
    <g id="xtick_9">
     <g id="line2d_9">
      <g>
       <use xlink:href="#m3fb3f75f40" x="117.368066" y="192.24" style="stroke: #000000; stroke-width: 0.6"/>
      </g>
     </g>
    </g>
    <g id="xtick_10">
     <g id="line2d_10">
      <g>
       <use xlink:href="#m3fb3f75f40" x="123.594118" y="192.24" style="stroke: #000000; stroke-width: 0.6"/>
      </g>
     </g>
    </g>
    <g id="xtick_11">
     <g id="line2d_11">
      <g>
       <use xlink:href="#m3fb3f75f40" x="128.987369" y="192.24" style="stroke: #000000; stroke-width: 0.6"/>
      </g>
     </g>
    </g>
    <g id="xtick_12">
     <g id="line2d_12">
      <g>
       <use xlink:href="#m3fb3f75f40" x="133.744553" y="192.24" style="stroke: #000000; stroke-width: 0.6"/>
      </g>
     </g>
    </g>
    <g id="xtick_13">
     <g id="line2d_13">
      <g>
       <use xlink:href="#m3fb3f75f40" x="165.99579" y="192.24" style="stroke: #000000; stroke-width: 0.6"/>
      </g>
     </g>
    </g>
    <g id="xtick_14">
     <g id="line2d_14">
      <g>
       <use xlink:href="#m3fb3f75f40" x="182.372277" y="192.24" style="stroke: #000000; stroke-width: 0.6"/>
      </g>
     </g>
    </g>
    <g id="xtick_15">
     <g id="line2d_15">
      <g>
       <use xlink:href="#m3fb3f75f40" x="193.991579" y="192.24" style="stroke: #000000; stroke-width: 0.6"/>
      </g>
     </g>
    </g>
    <g id="xtick_16">
     <g id="line2d_16">
      <g>
       <use xlink:href="#m3fb3f75f40" x="203.00421" y="192.24" style="stroke: #000000; stroke-width: 0.6"/>
      </g>
     </g>
    </g>
    <g id="xtick_17">
     <g id="line2d_17">
      <g>
       <use xlink:href="#m3fb3f75f40" x="210.368066" y="192.24" style="stroke: #000000; stroke-width: 0.6"/>
      </g>
     </g>
    </g>
    <g id="xtick_18">
     <g id="line2d_18">
      <g>
       <use xlink:href="#m3fb3f75f40" x="216.594118" y="192.24" style="stroke: #000000; stroke-width: 0.6"/>
      </g>
     </g>
    </g>
    <g id="xtick_19">
     <g id="line2d_19">
      <g>
       <use xlink:href="#m3fb3f75f40" x="221.987369" y="192.24" style="stroke: #000000; stroke-width: 0.6"/>
      </g>
     </g>
    </g>
    <g id="xtick_20">
     <g id="line2d_20">
      <g>
       <use xlink:href="#m3fb3f75f40" x="226.744553" y="192.24" style="stroke: #000000; stroke-width: 0.6"/>
      </g>
     </g>
    </g>
    <g id="xtick_21">
     <g id="line2d_21">
      <g>
       <use xlink:href="#m3fb3f75f40" x="258.99579" y="192.24" style="stroke: #000000; stroke-width: 0.6"/>
      </g>
     </g>
    </g>
    <g id="xtick_22">
     <g id="line2d_22">
      <g>
       <use xlink:href="#m3fb3f75f40" x="275.372277" y="192.24" style="stroke: #000000; stroke-width: 0.6"/>
      </g>
     </g>
    </g>
    <g id="xtick_23">
     <g id="line2d_23">
      <g>
       <use xlink:href="#m3fb3f75f40" x="286.991579" y="192.24" style="stroke: #000000; stroke-width: 0.6"/>
      </g>
     </g>
    </g>
    <g id="xtick_24">
     <g id="line2d_24">
      <g>
       <use xlink:href="#m3fb3f75f40" x="296.00421" y="192.24" style="stroke: #000000; stroke-width: 0.6"/>
      </g>
     </g>
    </g>
    <g id="xtick_25">
     <g id="line2d_25">
      <g>
       <use xlink:href="#m3fb3f75f40" x="303.368066" y="192.24" style="stroke: #000000; stroke-width: 0.6"/>
      </g>
     </g>
    </g>
    <g id="xtick_26">
     <g id="line2d_26">
      <g>
       <use xlink:href="#m3fb3f75f40" x="309.594118" y="192.24" style="stroke: #000000; stroke-width: 0.6"/>
      </g>
     </g>
    </g>
    <g id="xtick_27">
     <g id="line2d_27">
      <g>
       <use xlink:href="#m3fb3f75f40" x="314.987369" y="192.24" style="stroke: #000000; stroke-width: 0.6"/>
      </g>
     </g>
    </g>
    <g id="xtick_28">
     <g id="line2d_28">
      <g>
       <use xlink:href="#m3fb3f75f40" x="319.744553" y="192.24" style="stroke: #000000; stroke-width: 0.6"/>
      </g>
     </g>
    </g>
    <g id="text_5">
     <!-- $x$ -->
     <g transform="translate(178.402253 227.31637) scale(0.22 -0.22)">
      <defs>
       <path id="CMMI12-78" d="M 3034 2624 
C 2829 2585 2752 2431 2752 2310 
C 2752 2156 2874 2105 2963 2105 
C 3155 2105 3290 2271 3290 2444 
C 3290 2694 2982 2816 2714 2816 
C 2323 2816 2106 2451 2048 2329 
C 1901 2790 1504 2816 1389 2816 
C 736 2816 390 1993 390 1849 
C 390 1823 416 1790 461 1790 
C 512 1790 525 1829 538 1855 
C 755 2572 1184 2687 1370 2687 
C 1658 2687 1715 2438 1715 2284 
C 1715 2143 1677 1993 1600 1678 
L 1382 778 
C 1286 390 1101 64 762 64 
C 730 64 570 64 435 126 
C 666 166 717 358 717 435 
C 717 563 621 640 499 640 
C 346 640 179 505 179 300 
C 179 57 480 -64 755 -64 
C 1062 -64 1280 153 1414 415 
C 1517 64 1837 -64 2074 -64 
C 2726 -64 3072 751 3072 896 
C 3072 929 3046 955 3008 955 
C 2950 955 2944 922 2925 870 
C 2752 300 2381 64 2093 64 
C 1869 64 1747 204 1747 467 
C 1747 607 1773 712 1875 1146 
L 2099 2039 
C 2195 2425 2413 2687 2707 2687 
C 2720 2687 2899 2687 3034 2624 
z
" transform="scale(0.015625)"/>
      </defs>
      <use xlink:href="#CMMI12-78" transform="scale(0.996264)"/>
     </g>
    </g>
   </g>
   <g id="matplotlib.axis_2">
    <g id="ytick_1">
     <g id="line2d_29">
      <defs>
       <path id="mcae368034c" d="M 0 0 
L -3.5 0 
" style="stroke: #000000; stroke-width: 0.8"/>
      </defs>
      <g>
       <use xlink:href="#mcae368034c" x="45" y="163.86878" style="stroke: #000000; stroke-width: 0.8"/>
      </g>
     </g>
     <g id="text_6">
      <!-- $\mathdefault{10^{-5}}$ -->
      <g transform="translate(17.839427 167.328029) scale(0.1 -0.1)">
       <defs>
        <path id="CMR17-35" d="M 730 3750 
C 794 3724 1056 3641 1325 3641 
C 1920 3641 2246 3961 2432 4140 
C 2432 4191 2432 4224 2394 4224 
C 2387 4224 2374 4224 2323 4198 
C 2099 4102 1837 4032 1517 4032 
C 1325 4032 1037 4055 723 4191 
C 653 4224 640 4224 634 4224 
C 602 4224 595 4217 595 4090 
L 595 2231 
C 595 2113 595 2080 659 2080 
C 691 2080 704 2093 736 2139 
C 941 2435 1222 2560 1542 2560 
C 1766 2560 2246 2415 2246 1293 
C 2246 1087 2246 716 2054 422 
C 1894 159 1645 25 1370 25 
C 947 25 518 319 403 812 
C 429 806 480 793 506 793 
C 589 793 749 838 749 1036 
C 749 1209 627 1280 506 1280 
C 358 1280 262 1190 262 1011 
C 262 454 704 -128 1382 -128 
C 2042 -128 2669 441 2669 1267 
C 2669 2054 2170 2662 1549 2662 
C 1222 2662 947 2540 730 2304 
L 730 3750 
z
" transform="scale(0.015625)"/>
       </defs>
       <use xlink:href="#CMR17-31" transform="scale(0.996264)"/>
       <use xlink:href="#CMR17-30" transform="translate(45.690477 0) scale(0.996264)"/>
       <use xlink:href="#CMSY10-0" transform="translate(91.380954 36.153639) scale(0.697382)"/>
       <use xlink:href="#CMR17-35" transform="translate(145.621947 36.153639) scale(0.697382)"/>
      </g>
     </g>
    </g>
    <g id="ytick_2">
     <g id="line2d_30">
      <g>
       <use xlink:href="#mcae368034c" x="45" y="128.975607" style="stroke: #000000; stroke-width: 0.8"/>
      </g>
     </g>
     <g id="text_7">
      <!-- $\mathdefault{10^{-3}}$ -->
      <g transform="translate(17.839427 132.434856) scale(0.1 -0.1)">
       <use xlink:href="#CMR17-31" transform="scale(0.996264)"/>
       <use xlink:href="#CMR17-30" transform="translate(45.690477 0) scale(0.996264)"/>
       <use xlink:href="#CMSY10-0" transform="translate(91.380954 36.153639) scale(0.697382)"/>
       <use xlink:href="#CMR17-33" transform="translate(145.621947 36.153639) scale(0.697382)"/>
      </g>
     </g>
    </g>
    <g id="ytick_3">
     <g id="line2d_31">
      <g>
       <use xlink:href="#mcae368034c" x="45" y="94.082434" style="stroke: #000000; stroke-width: 0.8"/>
      </g>
     </g>
     <g id="text_8">
      <!-- $\mathdefault{10^{-1}}$ -->
      <g transform="translate(17.839427 97.541683) scale(0.1 -0.1)">
       <use xlink:href="#CMR17-31" transform="scale(0.996264)"/>
       <use xlink:href="#CMR17-30" transform="translate(45.690477 0) scale(0.996264)"/>
       <use xlink:href="#CMSY10-0" transform="translate(91.380954 36.153639) scale(0.697382)"/>
       <use xlink:href="#CMR17-31" transform="translate(145.621947 36.153639) scale(0.697382)"/>
      </g>
     </g>
    </g>
    <g id="ytick_4">
     <g id="line2d_32">
      <g>
       <use xlink:href="#mcae368034c" x="45" y="59.18926" style="stroke: #000000; stroke-width: 0.8"/>
      </g>
     </g>
     <g id="text_9">
      <!-- $\mathdefault{10^{1}}$ -->
      <g transform="translate(24.066092 62.64851) scale(0.1 -0.1)">
       <use xlink:href="#CMR17-31" transform="scale(0.996264)"/>
       <use xlink:href="#CMR17-30" transform="translate(45.690477 0) scale(0.996264)"/>
       <use xlink:href="#CMR17-31" transform="translate(91.380954 36.153639) scale(0.697382)"/>
      </g>
     </g>
    </g>
    <g id="text_10">
     <!-- $\left|\frac {V-H}H\right|$ -->
     <g transform="translate(6.16806 136.412219) rotate(-90) scale(0.22 -0.22)">
      <defs>
       <path id="CMEX10-c" d="M 928 -3738 
C 928 -3840 928 -3975 1062 -3975 
C 1203 -3975 1203 -3847 1203 -3738 
L 1203 -103 
C 1203 0 1203 134 1069 134 
C 928 134 928 6 928 -103 
L 928 -3738 
z
" transform="scale(0.015625)"/>
       <path id="CMMI12-56" d="M 3962 3644 
C 4179 3987 4378 4140 4704 4166 
C 4768 4172 4819 4172 4819 4287 
C 4819 4313 4806 4352 4749 4352 
C 4634 4352 4358 4339 4243 4339 
C 4058 4339 3866 4352 3686 4352 
C 3635 4352 3571 4352 3571 4230 
C 3571 4172 3629 4166 3654 4166 
C 3891 4146 3917 4032 3917 3956 
C 3917 3860 3827 3714 3821 3708 
L 1811 540 
L 1363 3968 
C 1363 4153 1696 4166 1766 4166 
C 1862 4166 1920 4166 1920 4287 
C 1920 4352 1850 4352 1830 4352 
C 1722 4352 1594 4339 1485 4339 
L 1126 4339 
C 659 4339 467 4352 461 4352 
C 422 4352 346 4352 346 4236 
C 346 4166 390 4166 493 4166 
C 819 4166 838 4108 858 3949 
L 1370 25 
C 1389 -109 1389 -128 1478 -128 
C 1555 -128 1587 -109 1651 -7 
L 3962 3644 
z
" transform="scale(0.015625)"/>
       <path id="CMMI12-48" d="M 4787 3886 
C 4845 4102 4858 4166 5312 4166 
C 5427 4166 5491 4166 5491 4281 
C 5491 4352 5434 4352 5395 4352 
C 5280 4352 5146 4339 5024 4339 
L 4269 4339 
C 4147 4339 4013 4352 3891 4352 
C 3846 4352 3770 4352 3770 4230 
C 3770 4166 3814 4166 3936 4166 
C 4320 4166 4320 4115 4320 4045 
C 4320 4032 4320 3994 4294 3899 
L 3904 2361 
L 1971 2361 
L 2355 3886 
C 2413 4102 2426 4166 2880 4166 
C 2995 4166 3059 4166 3059 4281 
C 3059 4352 3002 4352 2963 4352 
C 2848 4352 2714 4339 2592 4339 
L 1837 4339 
C 1715 4339 1581 4352 1459 4352 
C 1414 4352 1338 4352 1338 4230 
C 1338 4166 1382 4166 1504 4166 
C 1888 4166 1888 4115 1888 4045 
C 1888 4032 1888 3994 1862 3899 
L 998 472 
C 941 249 928 185 486 185 
C 339 185 294 185 294 64 
C 294 0 365 0 384 0 
C 499 0 634 12 755 12 
L 1510 12 
C 1632 12 1766 0 1888 0 
C 1939 0 2010 0 2010 121 
C 2010 185 1952 185 1856 185 
C 1466 185 1466 236 1466 300 
C 1466 306 1466 351 1478 402 
L 1920 2176 
L 3859 2176 
C 3750 1755 3424 421 3411 383 
C 3341 191 3238 191 2861 185 
C 2784 185 2726 185 2726 64 
C 2726 0 2797 0 2816 0 
C 2931 0 3066 12 3187 12 
L 3942 12 
C 4064 12 4198 0 4320 0 
C 4371 0 4442 0 4442 121 
C 4442 185 4384 185 4288 185 
C 3898 185 3898 236 3898 300 
C 3898 306 3898 351 3910 402 
L 4787 3886 
z
" transform="scale(0.015625)"/>
      </defs>
      <use xlink:href="#CMEX10-c" transform="translate(0 84.683049) scale(0.996264)"/>
      <use xlink:href="#CMEX10-c" transform="translate(0 24.9066) scale(0.996264)"/>
      <use xlink:href="#CMMI12-56" transform="translate(34.40437 39.226102) scale(0.697382)"/>
      <use xlink:href="#CMSY10-0" transform="translate(89.38724 39.226102) scale(0.697382)"/>
      <use xlink:href="#CMMI12-48" transform="translate(143.628234 39.226102) scale(0.697382)"/>
      <use xlink:href="#CMMI12-48" transform="translate(89.016302 -34.355253) scale(0.697382)"/>
      <use xlink:href="#CMEX10-c" transform="translate(206.788706 84.683049) scale(0.996264)"/>
      <use xlink:href="#CMEX10-c" transform="translate(206.788706 24.9066) scale(0.996264)"/>
      <path d="M 34.40437 22.914133 
L 205.593192 22.914133 
L 205.593192 26.899083 
L 34.40437 26.899083 
L 34.40437 22.914133 
z
"/>
     </g>
    </g>
   </g>
   <g id="line2d_33">
    <path d="M 44.944497 83.59039 
L 50.012352 84.626903 
L 54.217594 85.706025 
L 57.775875 86.844315 
L 60.687196 87.997626 
L 63.16721 89.207941 
L 65.323744 90.507913 
L 67.156798 91.87899 
L 68.666372 93.280842 
L 69.960292 94.776964 
L 71.038559 96.339332 
L 72.008999 98.129485 
L 72.871613 100.222418 
L 73.518573 102.324893 
L 74.057707 104.706919 
L 74.489014 107.392995 
L 74.92032 111.642344 
L 75.2438 118.010388 
L 75.351627 122.418396 
L 75.459454 134.277653 
L 75.782934 116.533079 
L 76.106414 110.898893 
L 76.537721 106.85636 
L 77.076854 103.67359 
L 77.723815 101.034403 
L 78.586428 98.493806 
L 79.556869 96.352006 
L 80.635136 94.484422 
L 81.929056 92.680831 
L 83.43863 90.962586 
L 85.163857 89.332875 
L 87.212564 87.707548 
L 89.584752 86.111873 
L 92.388246 84.498142 
L 93.682166 83.924094 
L 100.367422 83.857714 
L 107.052677 83.568951 
L 113.953586 83.044683 
L 121.285802 82.262052 
L 123.011029 82.159363 
L 130.666725 81.63129 
L 142.743315 80.516003 
L 189.32445 76.180983 
L 201.293214 75.326877 
L 207.654989 75.070048 
L 212.938498 75.03107 
L 219.623753 75.207611 
L 226.848142 75.639504 
L 236.444719 76.428605 
L 250.13871 77.773511 
L 266.959675 79.64342 
L 291.867643 82.687224 
L 297.474632 83.092312 
L 302.43466 82.905429 
L 305.885114 82.220162 
L 307.933822 81.480261 
L 310.198182 80.294892 
L 312.031236 79.020978 
L 313.648637 77.614982 
L 314.942557 76.269612 
L 316.452131 74.427823 
L 318.069531 72.019401 
L 319.147798 70.085402 
L 319.471279 73.262736 
L 319.579105 69.948389 
L 319.902585 83.380138 
L 320.010412 109.269902 
L 320.226065 79.23117 
L 321.412159 57.323366 
L 321.519986 56.487772 
L 321.627813 57.267699 
L 321.735639 59.633923 
L 321.843466 65.021193 
L 321.951293 84.748213 
L 322.059119 77.133508 
L 322.166946 89.960756 
L 322.490426 57.01855 
L 322.70608 61.527844 
L 322.921733 50.226105 
L 323.02956 50.544109 
L 323.245213 60.580704 
L 323.35304 55.680129 
L 323.460866 62.650913 
L 323.67652 44.704678 
L 323.784347 41.575587 
L 323.892173 33.48 
L 324 76.635847 
L 324 76.635847 
" clip-path="url(#p650f15a7cc)" style="fill: none; stroke: #1f77b4; stroke-opacity: 0.7; stroke-width: 1.5; stroke-linecap: square"/>
   </g>
   <g id="line2d_34">
    <path d="M 44.944497 83.440335 
L 50.120179 84.464583 
L 54.433247 85.536308 
L 58.099355 86.673708 
L 61.118503 87.836817 
L 63.706343 89.070344 
L 65.862877 90.341105 
L 67.695931 91.675698 
L 69.205505 93.033086 
L 70.499426 94.472211 
L 71.685519 96.130967 
L 72.65596 97.866109 
L 73.518573 99.876721 
L 74.27336 102.264889 
L 74.812494 104.630682 
L 75.351627 108.138261 
L 75.675107 111.477035 
L 75.998587 117.653283 
L 76.106414 121.802906 
L 76.214241 131.747091 
L 76.861201 111.019685 
L 77.292508 106.919908 
L 77.831641 103.709372 
L 78.478602 101.054514 
L 79.341215 98.503132 
L 80.311655 96.354581 
L 81.389922 94.482394 
L 82.683843 92.675211 
L 84.193417 90.954139 
L 85.918644 89.32215 
L 87.967351 87.694842 
L 90.339539 86.097423 
L 93.143033 84.482063 
L 93.682166 84.296331 
L 100.259595 84.184594 
L 106.837024 83.849376 
L 113.630106 83.279439 
L 121.070148 82.425915 
L 122.795376 82.314268 
L 130.343245 81.852269 
L 163.230389 79.477954 
L 178.2183 78.623243 
L 190.941851 78.120325 
L 202.048001 77.900653 
L 213.046325 77.907481 
L 224.907262 78.148406 
L 238.601253 78.634744 
L 256.500485 79.501415 
L 267.930115 80.23936 
L 278.604959 81.183172 
L 285.613694 82.024487 
L 291.65199 82.962698 
L 296.719845 83.964582 
L 300.925086 84.999873 
L 304.05206 85.925928 
L 307.825995 87.283286 
L 311.060796 88.720878 
L 315.912997 91.532199 
L 316.452131 91.901834 
L 319.039972 93.724161 
L 319.255625 93.834837 
L 320.333892 94.527421 
L 320.549546 92.50955 
L 320.657372 94.687795 
L 320.765199 94.655433 
L 320.873026 94.556259 
L 320.980852 94.608163 
L 321.088679 94.83593 
L 321.412159 94.568829 
L 321.519986 94.814866 
L 321.843466 94.279816 
L 321.951293 92.279641 
L 322.059119 83.399088 
L 322.166946 86.873159 
L 322.382599 104.358602 
L 322.490426 81.127257 
L 322.598253 88.417536 
L 322.921733 69.966087 
L 323.02956 70.242419 
L 323.245213 79.319443 
L 323.35304 75.299695 
L 323.568693 79.755106 
L 323.67652 78.594064 
L 323.784347 63.416228 
L 323.892173 80.508583 
L 324 76.635847 
L 324 76.635847 
" clip-path="url(#p650f15a7cc)" style="fill: none; stroke: #ff7f0e; stroke-opacity: 0.7; stroke-width: 1.5; stroke-linecap: square"/>
   </g>
   <g id="line2d_35">
    <path d="M 44.944497 83.365371 
L 50.228006 84.395005 
L 54.648901 85.480345 
L 58.315008 86.605441 
L 61.334156 87.753992 
L 63.921997 88.969523 
L 66.078531 90.218519 
L 67.911585 91.52609 
L 69.528985 92.956646 
L 70.822906 94.379384 
L 72.008999 96.015068 
L 72.97944 97.720166 
L 73.842053 99.686433 
L 74.59684 102.004685 
L 75.2438 104.829904 
L 75.675107 107.582643 
L 76.106414 112.002837 
L 76.322068 115.856819 
L 76.537721 124.165786 
L 76.645548 184.68 
L 76.861201 118.884613 
L 77.184681 111.917274 
L 77.615988 107.429908 
L 78.155121 104.039692 
L 78.802082 101.285976 
L 79.556869 98.952085 
L 80.527309 96.694767 
L 81.605576 94.750781 
L 82.899496 92.889663 
L 84.40907 91.12812 
L 86.134297 89.465486 
L 88.183005 87.813581 
L 90.555192 86.196653 
L 93.358686 84.565314 
L 93.682166 84.49036 
L 100.151768 84.288861 
L 106.729197 83.858826 
L 113.630106 83.182201 
L 121.285802 82.202637 
L 122.795376 82.098757 
L 130.451071 81.527252 
L 162.691255 78.776972 
L 176.385246 77.854324 
L 186.736609 77.352902 
L 196.980146 77.083082 
L 206.253242 77.060851 
L 216.065472 77.263919 
L 226.848142 77.708882 
L 243.237801 78.653913 
L 260.27442 79.804438 
L 275.370158 81.059019 
L 283.888467 82.012106 
L 290.250243 82.937141 
L 295.641578 83.937559 
L 299.954646 84.941435 
L 303.297273 85.887566 
L 306.747728 87.07867 
L 310.306009 88.622312 
L 314.403424 91.019028 
L 315.481691 91.820125 
L 316.559958 92.70853 
L 317.099091 93.198453 
L 317.961705 94.057541 
L 319.147798 95.443316 
L 319.363452 95.613646 
L 319.579105 95.926252 
L 319.794759 96.196762 
L 320.010412 96.448099 
L 320.226065 96.843466 
L 320.765199 97.643224 
L 320.873026 97.62633 
L 320.980852 97.848135 
L 321.088679 98.367196 
L 321.304332 98.214745 
L 321.412159 98.439841 
L 321.519986 99.059976 
L 321.735639 98.679671 
L 321.843466 98.854889 
L 322.059119 99.690903 
L 322.166946 99.140765 
L 322.274773 99.185167 
L 322.490426 101.055193 
L 322.70608 98.329917 
L 322.813906 98.922057 
L 322.921733 100.757495 
L 323.02956 89.870174 
L 323.137386 90.843619 
L 323.245213 94.1145 
L 323.460866 77.761297 
L 323.568693 77.027227 
L 323.67652 81.486131 
L 323.784347 61.41032 
L 323.892173 79.541714 
L 324 76.635847 
L 324 76.635847 
" clip-path="url(#p650f15a7cc)" style="fill: none; stroke: #2ca02c; stroke-opacity: 0.7; stroke-width: 1.5; stroke-linecap: square"/>
   </g>
   <g id="line2d_36">
    <path d="M 44.944497 83.184056 
L 50.335833 84.19213 
L 54.864554 85.258221 
L 58.638489 86.368644 
L 61.765463 87.509964 
L 64.46113 88.726978 
L 66.725491 89.991712 
L 68.666372 91.334325 
L 70.283772 92.722798 
L 71.685519 94.223712 
L 72.871613 95.823219 
L 73.842053 97.481674 
L 74.704667 99.38 
L 75.459454 101.593195 
L 76.106414 104.241762 
L 76.645548 107.540764 
L 77.076854 111.945768 
L 77.292508 115.777131 
L 77.508161 123.974192 
L 77.615988 153.008178 
L 77.831641 118.946877 
L 78.155121 111.928 
L 78.586428 107.425339 
L 79.125562 104.028212 
L 79.772522 101.270672 
L 80.527309 98.934369 
L 81.497749 96.675212 
L 82.576016 94.729904 
L 83.869937 92.867664 
L 85.37951 91.105132 
L 87.104738 89.441585 
L 89.153445 87.788756 
L 91.525632 86.170877 
L 93.57434 84.998694 
L 99.936115 84.819881 
L 106.29789 84.417999 
L 112.983146 83.772354 
L 120.423188 82.824282 
L 123.118856 82.554389 
L 130.774552 81.864518 
L 154.172946 79.538127 
L 166.78867 78.550069 
L 180.374834 77.836367 
L 192.127945 77.475905 
L 204.851495 77.306893 
L 215.095032 77.385684 
L 224.583782 77.694473 
L 238.277773 78.392527 
L 259.411806 79.703039 
L 269.331863 80.458838 
L 277.526692 81.223157 
L 285.505868 82.177355 
L 291.867643 83.171061 
L 296.935498 84.181914 
L 300.817259 85.13926 
L 305.453807 86.580609 
L 308.257302 87.670598 
L 310.413836 88.667531 
L 311.707756 89.347915 
L 312.786023 89.971982 
L 313.756463 90.572535 
L 316.559958 92.710291 
L 317.099091 93.205803 
L 317.961705 94.088832 
L 318.824318 95.031825 
L 319.039972 95.290403 
L 319.471279 95.936484 
L 319.794759 96.271297 
L 320.010412 96.500482 
L 320.118239 96.614731 
L 320.333892 97.093781 
L 320.441719 97.104095 
L 321.196506 98.370963 
L 321.304332 98.304478 
L 321.412159 98.547031 
L 321.519986 99.184933 
L 321.735639 98.844333 
L 321.843466 99.060228 
L 322.059119 99.927737 
L 322.274773 99.237367 
L 322.490426 101.232557 
L 322.70608 98.820957 
L 322.813906 99.262186 
L 322.921733 101.728553 
L 323.245213 95.585066 
L 323.35304 96.051244 
L 323.460866 102.372261 
L 323.784347 78.999776 
L 323.892173 73.668648 
L 324 76.635847 
L 324 76.635847 
" clip-path="url(#p650f15a7cc)" style="fill: none; stroke: #d62728; stroke-opacity: 0.7; stroke-width: 1.5; stroke-linecap: square"/>
   </g>
   <g id="patch_3">
    <path d="M 45 192.24 
L 45 25.92 
" style="fill: none; stroke: #000000; stroke-width: 0.8; stroke-linejoin: miter; stroke-linecap: square"/>
   </g>
   <g id="patch_4">
    <path d="M 324 192.24 
L 324 25.92 
" style="fill: none; stroke: #000000; stroke-width: 0.8; stroke-linejoin: miter; stroke-linecap: square"/>
   </g>
   <g id="patch_5">
    <path d="M 45 192.24 
L 324 192.24 
" style="fill: none; stroke: #000000; stroke-width: 0.8; stroke-linejoin: miter; stroke-linecap: square"/>
   </g>
   <g id="patch_6">
    <path d="M 45 25.92 
L 324 25.92 
" style="fill: none; stroke: #000000; stroke-width: 0.8; stroke-linejoin: miter; stroke-linecap: square"/>
   </g>
   <g id="legend_1">
    <g id="patch_7">
     <path d="M 244.900313 187.24 
L 317 187.24 
Q 319 187.24 319 185.24 
L 319 130.491287 
Q 319 128.491287 317 128.491287 
L 244.900313 128.491287 
Q 242.900313 128.491287 242.900313 130.491287 
L 242.900313 185.24 
Q 242.900313 187.24 244.900313 187.24 
z
" style="fill: #ffffff; opacity: 0.8; stroke: #cccccc; stroke-linejoin: miter"/>
    </g>
    <g id="line2d_37">
     <path d="M 246.900313 135.991287 
L 256.900313 135.991287 
L 266.900313 135.991287 
" style="fill: none; stroke: #1f77b4; stroke-opacity: 0.7; stroke-width: 1.5; stroke-linecap: square"/>
    </g>
    <g id="text_11">
     <!-- degree 2 -->
     <g transform="translate(274.900313 139.491287) scale(0.1 -0.1)">
      <defs>
       <path id="CMSS17-64" d="M 2611 4416 
L 2138 4416 
L 2138 2495 
C 1939 2662 1613 2816 1254 2816 
C 672 2816 211 2179 211 1375 
C 211 572 666 -64 1235 -64 
C 1677 -64 1971 172 2125 307 
L 2125 -13 
L 2611 -13 
L 2611 4416 
z
M 2125 851 
C 2125 760 2125 663 1926 488 
C 1798 378 1645 326 1498 326 
C 1152 326 698 585 698 1369 
C 698 2185 1210 2425 1562 2425 
C 1798 2425 1990 2308 2125 2114 
L 2125 851 
z
" transform="scale(0.015625)"/>
       <path id="CMSS17-65" d="M 2502 1375 
C 2502 1587 2490 2001 2285 2347 
C 2061 2713 1696 2816 1421 2816 
C 755 2816 192 2184 192 1363 
C 192 579 774 -64 1510 -64 
C 1798 -64 2150 19 2470 249 
C 2470 275 2458 414 2451 421 
C 2451 433 2432 629 2432 655 
C 2125 408 1773 326 1517 326 
C 1107 326 666 667 646 1375 
L 2502 1375 
z
M 698 1728 
C 781 2086 1062 2425 1421 2425 
C 1517 2425 1965 2412 2080 1728 
L 698 1728 
z
" transform="scale(0.015625)"/>
       <path id="CMSS17-67" d="M 2848 2816 
C 2483 2809 2170 2739 1914 2617 
C 1702 2783 1485 2816 1338 2816 
C 781 2816 358 2356 358 1824 
C 358 1481 550 1222 563 1209 
C 448 1049 384 876 384 684 
C 384 460 474 300 544 211 
C 211 6 166 -308 166 -429 
C 166 -896 749 -1280 1498 -1280 
C 2253 -1280 2835 -896 2835 -423 
C 2835 460 1856 467 1587 467 
L 1069 467 
C 973 467 717 467 717 793 
C 717 921 774 1004 781 1011 
C 877 940 1075 832 1338 832 
C 1869 832 2310 1279 2310 1824 
C 2310 2128 2170 2349 2112 2425 
L 2131 2425 
C 2150 2425 2419 2444 2515 2444 
C 2720 2444 2739 2438 2918 2419 
L 2848 2816 
z
M 1338 1184 
C 1120 1184 813 1317 813 1824 
C 813 2375 1165 2463 1331 2463 
C 1549 2463 1856 2330 1856 1824 
C 1856 1272 1504 1184 1338 1184 
z
M 1581 0 
C 1734 0 2381 0 2381 -436 
C 2381 -711 1984 -928 1504 -928 
C 1018 -928 621 -717 621 -429 
C 621 -397 621 0 1062 0 
L 1581 0 
z
" transform="scale(0.015625)"/>
       <path id="CMSS17-72" d="M 954 1369 
C 954 1974 1395 2379 1958 2392 
L 1958 2816 
C 1549 2809 1165 2604 934 2270 
L 934 2783 
L 480 2783 
L 480 0 
L 954 0 
L 954 1369 
z
" transform="scale(0.015625)"/>
       <path id="CMSS17-32" d="M 1651 1353 
C 1830 1538 2099 1761 2285 1984 
C 2464 2201 2701 2507 2701 2953 
C 2701 3655 2227 4288 1421 4288 
C 787 4288 422 3891 250 3272 
L 499 2928 
C 640 3508 838 3878 1338 3878 
C 1888 3878 2195 3431 2195 2940 
C 2195 2354 1747 1901 1408 1563 
C 1030 1187 659 805 301 409 
L 301 0 
L 2701 0 
L 2701 435 
L 1613 435 
C 1536 435 1459 428 1382 428 
L 742 428 
L 742 435 
L 1651 1353 
z
" transform="scale(0.015625)"/>
      </defs>
      <use xlink:href="#CMSS17-64" transform="scale(0.996264)"/>
      <use xlink:href="#CMSS17-65" transform="translate(48.204943 0) scale(0.996264)"/>
      <use xlink:href="#CMSS17-67" transform="translate(89.843765 0) scale(0.996264)"/>
      <use xlink:href="#CMSS17-72" transform="translate(136.687389 0) scale(0.996264)"/>
      <use xlink:href="#CMSS17-65" transform="translate(168.597161 0) scale(0.996264)"/>
      <use xlink:href="#CMSS17-65" transform="translate(210.235983 0) scale(0.996264)"/>
      <use xlink:href="#CMSS17-32" transform="translate(283.103918 0) scale(0.996264)"/>
     </g>
    </g>
    <g id="line2d_38">
     <path d="M 246.900313 149.928465 
L 256.900313 149.928465 
L 266.900313 149.928465 
" style="fill: none; stroke: #ff7f0e; stroke-opacity: 0.7; stroke-width: 1.5; stroke-linecap: square"/>
    </g>
    <g id="text_12">
     <!-- degree 4 -->
     <g transform="translate(274.900313 153.428465) scale(0.1 -0.1)">
      <defs>
       <path id="CMSS17-34" d="M 2253 1088 
L 2835 1088 
L 2835 1478 
L 2253 1478 
L 2253 4224 
L 1690 4224 
L 166 1478 
L 166 1088 
L 1747 1088 
L 1747 0 
L 2253 0 
L 2253 1088 
z
M 659 1478 
C 1030 2139 1766 3474 1766 3927 
L 1766 1478 
L 659 1478 
z
" transform="scale(0.015625)"/>
      </defs>
      <use xlink:href="#CMSS17-64" transform="scale(0.996264)"/>
      <use xlink:href="#CMSS17-65" transform="translate(48.204943 0) scale(0.996264)"/>
      <use xlink:href="#CMSS17-67" transform="translate(89.843765 0) scale(0.996264)"/>
      <use xlink:href="#CMSS17-72" transform="translate(136.687389 0) scale(0.996264)"/>
      <use xlink:href="#CMSS17-65" transform="translate(168.597161 0) scale(0.996264)"/>
      <use xlink:href="#CMSS17-65" transform="translate(210.235983 0) scale(0.996264)"/>
      <use xlink:href="#CMSS17-34" transform="translate(283.103918 0) scale(0.996264)"/>
     </g>
    </g>
    <g id="line2d_39">
     <path d="M 246.900313 163.865643 
L 256.900313 163.865643 
L 266.900313 163.865643 
" style="fill: none; stroke: #2ca02c; stroke-opacity: 0.7; stroke-width: 1.5; stroke-linecap: square"/>
    </g>
    <g id="text_13">
     <!-- degree 6 -->
     <g transform="translate(274.900313 167.365643) scale(0.1 -0.1)">
      <defs>
       <path id="CMSS17-36" d="M 2496 4159 
C 2227 4268 2035 4288 1856 4288 
C 1024 4288 250 3408 250 2023 
C 250 268 986 -128 1510 -128 
C 1798 -128 2086 -39 2362 281 
C 2643 619 2752 900 2752 1392 
C 2752 2183 2362 2886 1779 2886 
C 1357 2886 992 2662 768 2381 
C 832 3290 1254 3897 1862 3897 
C 2029 3897 2246 3871 2496 3760 
L 2496 4159 
z
M 774 1372 
C 774 1423 774 1455 781 1551 
C 781 2049 1069 2496 1536 2496 
C 1837 2496 1990 2336 2106 2138 
C 2240 1889 2246 1653 2246 1392 
C 2246 1143 2246 894 2099 638 
C 1978 441 1818 268 1510 268 
C 902 268 800 1117 774 1372 
z
" transform="scale(0.015625)"/>
      </defs>
      <use xlink:href="#CMSS17-64" transform="scale(0.996264)"/>
      <use xlink:href="#CMSS17-65" transform="translate(48.204943 0) scale(0.996264)"/>
      <use xlink:href="#CMSS17-67" transform="translate(89.843765 0) scale(0.996264)"/>
      <use xlink:href="#CMSS17-72" transform="translate(136.687389 0) scale(0.996264)"/>
      <use xlink:href="#CMSS17-65" transform="translate(168.597161 0) scale(0.996264)"/>
      <use xlink:href="#CMSS17-65" transform="translate(210.235983 0) scale(0.996264)"/>
      <use xlink:href="#CMSS17-36" transform="translate(283.103918 0) scale(0.996264)"/>
     </g>
    </g>
    <g id="line2d_40">
     <path d="M 246.900313 177.802822 
L 256.900313 177.802822 
L 266.900313 177.802822 
" style="fill: none; stroke: #d62728; stroke-opacity: 0.7; stroke-width: 1.5; stroke-linecap: square"/>
    </g>
    <g id="text_14">
     <!-- degree 13 -->
     <g transform="translate(274.900313 181.302822) scale(0.1 -0.1)">
      <defs>
       <path id="CMSS17-31" d="M 1818 4288 
L 1696 4288 
C 1350 3949 947 3902 538 3891 
L 538 3520 
C 723 3526 1024 3539 1325 3673 
L 1325 371 
L 570 371 
L 570 0 
L 2573 0 
L 2573 371 
L 1818 371 
L 1818 4288 
z
" transform="scale(0.015625)"/>
       <path id="CMSS17-33" d="M 1005 2060 
L 1440 2060 
C 2042 2060 2214 1532 2214 1164 
C 2214 662 1933 268 1472 268 
C 1114 268 608 449 320 926 
C 275 700 275 687 250 533 
C 550 89 1037 -128 1485 -128 
C 2214 -128 2752 481 2752 1158 
C 2752 1667 2400 2092 1920 2252 
C 2304 2463 2586 2860 2586 3321 
C 2586 3859 2093 4288 1491 4288 
C 941 4288 512 3948 333 3583 
C 378 3519 493 3334 550 3238 
C 691 3615 1056 3897 1485 3897 
C 1843 3897 2080 3660 2080 3321 
C 2080 2969 1856 2585 1478 2496 
C 1453 2496 1056 2457 1005 2451 
L 1005 2060 
z
" transform="scale(0.015625)"/>
      </defs>
      <use xlink:href="#CMSS17-64" transform="scale(0.996264)"/>
      <use xlink:href="#CMSS17-65" transform="translate(48.204943 0) scale(0.996264)"/>
      <use xlink:href="#CMSS17-67" transform="translate(89.843765 0) scale(0.996264)"/>
      <use xlink:href="#CMSS17-72" transform="translate(136.687389 0) scale(0.996264)"/>
      <use xlink:href="#CMSS17-65" transform="translate(168.597161 0) scale(0.996264)"/>
      <use xlink:href="#CMSS17-65" transform="translate(210.235983 0) scale(0.996264)"/>
      <use xlink:href="#CMSS17-31" transform="translate(283.103918 0) scale(0.996264)"/>
      <use xlink:href="#CMSS17-33" transform="translate(329.947542 0) scale(0.996264)"/>
     </g>
    </g>
   </g>
  </g>
 </g>
 <defs>
  <clipPath id="p650f15a7cc">
   <rect x="45" y="25.92" width="279" height="166.32"/>
  </clipPath>
 </defs>
</svg>
