<?xml version="1.0" encoding="utf-8" standalone="no"?>
<!DOCTYPE svg PUBLIC "-//W3C//DTD SVG 1.1//EN"
  "http://www.w3.org/Graphics/SVG/1.1/DTD/svg11.dtd">
<svg xmlns:xlink="http://www.w3.org/1999/xlink" width="360pt" height="216pt" viewBox="0 0 360 216" xmlns="http://www.w3.org/2000/svg" version="1.1">
 <metadata>
  <rdf:RDF xmlns:dc="http://purl.org/dc/elements/1.1/" xmlns:cc="http://creativecommons.org/ns#" xmlns:rdf="http://www.w3.org/1999/02/22-rdf-syntax-ns#">
   <cc:Work>
    <dc:type rdf:resource="http://purl.org/dc/dcmitype/StillImage"/>
    <dc:date>2025-06-05T07:24:40.529463</dc:date>
    <dc:format>image/svg+xml</dc:format>
    <dc:creator>
     <cc:Agent>
      <dc:title>Matplotlib v3.10.0, https://matplotlib.org/</dc:title>
     </cc:Agent>
    </dc:creator>
   </cc:Work>
  </rdf:RDF>
 </metadata>
 <defs>
  <style type="text/css">*{stroke-linejoin: round; stroke-linecap: butt}</style>
 </defs>
 <g id="figure_1">
  <g id="patch_1">
   <path d="M 0 216 
L 360 216 
L 360 0 
L 0 0 
z
" style="fill: #ffffff"/>
  </g>
  <g id="axes_1">
   <g id="patch_2">
    <path d="M 45 192.24 
L 324 192.24 
L 324 25.92 
L 45 25.92 
z
" style="fill: #ffffff"/>
   </g>
   <g id="matplotlib.axis_1">
    <g id="xtick_1">
     <g id="line2d_1">
      <defs>
       <path id="m3cee407fff" d="M 0 0 
L 0 3.5 
" style="stroke: #000000; stroke-width: 0.8"/>
      </defs>
      <g>
       <use xlink:href="#m3cee407fff" x="45" y="192.24" style="stroke: #000000; stroke-width: 0.8"/>
      </g>
     </g>
     <g id="text_1">
      <!-- $\mathdefault{10^{-3}}$ -->
      <g transform="translate(34.919713 206.158498) scale(0.1 -0.1)">
       <defs>
        <path id="CMR17-31" d="M 1702 4083 
C 1702 4217 1696 4224 1606 4224 
C 1357 3927 979 3833 621 3820 
C 602 3820 570 3820 563 3808 
C 557 3795 557 3782 557 3648 
C 755 3648 1088 3686 1344 3839 
L 1344 467 
C 1344 243 1331 166 781 166 
L 589 166 
L 589 0 
C 896 6 1216 12 1523 12 
C 1830 12 2150 6 2458 0 
L 2458 166 
L 2266 166 
C 1715 166 1702 236 1702 467 
L 1702 4083 
z
" transform="scale(0.015625)"/>
        <path id="CMR17-30" d="M 2688 2038 
C 2688 2430 2682 3099 2413 3613 
C 2176 4063 1798 4224 1466 4224 
C 1158 4224 768 4082 525 3620 
C 269 3137 243 2539 243 2038 
C 243 1671 250 1112 448 623 
C 723 -39 1216 -128 1466 -128 
C 1760 -128 2208 -7 2470 604 
C 2662 1048 2688 1568 2688 2038 
z
M 1466 -26 
C 1056 -26 813 328 723 816 
C 653 1196 653 1749 653 2109 
C 653 2604 653 3015 736 3407 
C 858 3954 1216 4121 1466 4121 
C 1728 4121 2067 3947 2189 3420 
C 2272 3054 2278 2623 2278 2109 
C 2278 1691 2278 1176 2202 797 
C 2067 96 1690 -26 1466 -26 
z
" transform="scale(0.015625)"/>
        <path id="CMSY10-0" d="M 4218 1472 
C 4326 1472 4442 1472 4442 1600 
C 4442 1728 4326 1728 4218 1728 
L 755 1728 
C 646 1728 531 1728 531 1600 
C 531 1472 646 1472 755 1472 
L 4218 1472 
z
" transform="scale(0.015625)"/>
        <path id="CMR17-33" d="M 1414 2176 
C 1984 2176 2234 1673 2234 1094 
C 2234 322 1824 25 1453 25 
C 1114 25 563 193 390 691 
C 422 678 454 678 486 678 
C 640 678 755 780 755 947 
C 755 1132 614 1216 486 1216 
C 378 1216 211 1164 211 927 
C 211 335 787 -128 1466 -128 
C 2176 -128 2720 432 2720 1087 
C 2720 1718 2208 2176 1600 2246 
C 2086 2347 2554 2776 2554 3353 
C 2554 3856 2048 4224 1472 4224 
C 890 4224 378 3862 378 3347 
C 378 3123 544 3084 627 3084 
C 762 3084 877 3167 877 3334 
C 877 3500 762 3584 627 3584 
C 602 3584 570 3584 544 3571 
C 730 3999 1235 4076 1459 4076 
C 1683 4076 2106 3966 2106 3347 
C 2106 3167 2080 2851 1862 2574 
C 1670 2329 1453 2316 1242 2297 
C 1210 2297 1062 2284 1037 2284 
C 992 2278 966 2272 966 2227 
C 966 2182 973 2176 1101 2176 
L 1414 2176 
z
" transform="scale(0.015625)"/>
       </defs>
       <use xlink:href="#CMR17-31" transform="scale(0.996264)"/>
       <use xlink:href="#CMR17-30" transform="translate(45.690477 0) scale(0.996264)"/>
       <use xlink:href="#CMSY10-0" transform="translate(91.380954 36.153639) scale(0.697382)"/>
       <use xlink:href="#CMR17-33" transform="translate(145.621947 36.153639) scale(0.697382)"/>
      </g>
     </g>
    </g>
    <g id="xtick_2">
     <g id="line2d_2">
      <g>
       <use xlink:href="#m3cee407fff" x="138" y="192.24" style="stroke: #000000; stroke-width: 0.8"/>
      </g>
     </g>
     <g id="text_2">
      <!-- $\mathdefault{10^{-2}}$ -->
      <g transform="translate(127.919713 206.158498) scale(0.1 -0.1)">
       <defs>
        <path id="CMR17-32" d="M 2669 990 
L 2554 990 
C 2490 537 2438 460 2413 422 
C 2381 371 1920 371 1830 371 
L 602 371 
C 832 620 1280 1073 1824 1596 
C 2214 1966 2669 2400 2669 3033 
C 2669 3788 2067 4224 1395 4224 
C 691 4224 262 3603 262 3027 
C 262 2777 448 2745 525 2745 
C 589 2745 781 2783 781 3007 
C 781 3206 614 3264 525 3264 
C 486 3264 448 3257 422 3244 
C 544 3788 915 4057 1306 4057 
C 1862 4057 2227 3616 2227 3033 
C 2227 2477 1901 1998 1536 1583 
L 262 147 
L 262 0 
L 2515 0 
L 2669 990 
z
" transform="scale(0.015625)"/>
       </defs>
       <use xlink:href="#CMR17-31" transform="scale(0.996264)"/>
       <use xlink:href="#CMR17-30" transform="translate(45.690477 0) scale(0.996264)"/>
       <use xlink:href="#CMSY10-0" transform="translate(91.380954 36.153639) scale(0.697382)"/>
       <use xlink:href="#CMR17-32" transform="translate(145.621947 36.153639) scale(0.697382)"/>
      </g>
     </g>
    </g>
    <g id="xtick_3">
     <g id="line2d_3">
      <g>
       <use xlink:href="#m3cee407fff" x="231" y="192.24" style="stroke: #000000; stroke-width: 0.8"/>
      </g>
     </g>
     <g id="text_3">
      <!-- $\mathdefault{10^{-1}}$ -->
      <g transform="translate(220.919713 206.158498) scale(0.1 -0.1)">
       <use xlink:href="#CMR17-31" transform="scale(0.996264)"/>
       <use xlink:href="#CMR17-30" transform="translate(45.690477 0) scale(0.996264)"/>
       <use xlink:href="#CMSY10-0" transform="translate(91.380954 36.153639) scale(0.697382)"/>
       <use xlink:href="#CMR17-31" transform="translate(145.621947 36.153639) scale(0.697382)"/>
      </g>
     </g>
    </g>
    <g id="xtick_4">
     <g id="line2d_4">
      <g>
       <use xlink:href="#m3cee407fff" x="324" y="192.24" style="stroke: #000000; stroke-width: 0.8"/>
      </g>
     </g>
     <g id="text_4">
      <!-- $\mathdefault{10^{0}}$ -->
      <g transform="translate(317.033046 206.158498) scale(0.1 -0.1)">
       <use xlink:href="#CMR17-31" transform="scale(0.996264)"/>
       <use xlink:href="#CMR17-30" transform="translate(45.690477 0) scale(0.996264)"/>
       <use xlink:href="#CMR17-30" transform="translate(91.380954 36.153639) scale(0.697382)"/>
      </g>
     </g>
    </g>
    <g id="xtick_5">
     <g id="line2d_5">
      <defs>
       <path id="m5434b219eb" d="M 0 0 
L 0 2 
" style="stroke: #000000; stroke-width: 0.6"/>
      </defs>
      <g>
       <use xlink:href="#m5434b219eb" x="72.99579" y="192.24" style="stroke: #000000; stroke-width: 0.6"/>
      </g>
     </g>
    </g>
    <g id="xtick_6">
     <g id="line2d_6">
      <g>
       <use xlink:href="#m5434b219eb" x="89.372277" y="192.24" style="stroke: #000000; stroke-width: 0.6"/>
      </g>
     </g>
    </g>
    <g id="xtick_7">
     <g id="line2d_7">
      <g>
       <use xlink:href="#m5434b219eb" x="100.991579" y="192.24" style="stroke: #000000; stroke-width: 0.6"/>
      </g>
     </g>
    </g>
    <g id="xtick_8">
     <g id="line2d_8">
      <g>
       <use xlink:href="#m5434b219eb" x="110.00421" y="192.24" style="stroke: #000000; stroke-width: 0.6"/>
      </g>
     </g>
    </g>
    <g id="xtick_9">
     <g id="line2d_9">
      <g>
       <use xlink:href="#m5434b219eb" x="117.368066" y="192.24" style="stroke: #000000; stroke-width: 0.6"/>
      </g>
     </g>
    </g>
    <g id="xtick_10">
     <g id="line2d_10">
      <g>
       <use xlink:href="#m5434b219eb" x="123.594118" y="192.24" style="stroke: #000000; stroke-width: 0.6"/>
      </g>
     </g>
    </g>
    <g id="xtick_11">
     <g id="line2d_11">
      <g>
       <use xlink:href="#m5434b219eb" x="128.987369" y="192.24" style="stroke: #000000; stroke-width: 0.6"/>
      </g>
     </g>
    </g>
    <g id="xtick_12">
     <g id="line2d_12">
      <g>
       <use xlink:href="#m5434b219eb" x="133.744553" y="192.24" style="stroke: #000000; stroke-width: 0.6"/>
      </g>
     </g>
    </g>
    <g id="xtick_13">
     <g id="line2d_13">
      <g>
       <use xlink:href="#m5434b219eb" x="165.99579" y="192.24" style="stroke: #000000; stroke-width: 0.6"/>
      </g>
     </g>
    </g>
    <g id="xtick_14">
     <g id="line2d_14">
      <g>
       <use xlink:href="#m5434b219eb" x="182.372277" y="192.24" style="stroke: #000000; stroke-width: 0.6"/>
      </g>
     </g>
    </g>
    <g id="xtick_15">
     <g id="line2d_15">
      <g>
       <use xlink:href="#m5434b219eb" x="193.991579" y="192.24" style="stroke: #000000; stroke-width: 0.6"/>
      </g>
     </g>
    </g>
    <g id="xtick_16">
     <g id="line2d_16">
      <g>
       <use xlink:href="#m5434b219eb" x="203.00421" y="192.24" style="stroke: #000000; stroke-width: 0.6"/>
      </g>
     </g>
    </g>
    <g id="xtick_17">
     <g id="line2d_17">
      <g>
       <use xlink:href="#m5434b219eb" x="210.368066" y="192.24" style="stroke: #000000; stroke-width: 0.6"/>
      </g>
     </g>
    </g>
    <g id="xtick_18">
     <g id="line2d_18">
      <g>
       <use xlink:href="#m5434b219eb" x="216.594118" y="192.24" style="stroke: #000000; stroke-width: 0.6"/>
      </g>
     </g>
    </g>
    <g id="xtick_19">
     <g id="line2d_19">
      <g>
       <use xlink:href="#m5434b219eb" x="221.987369" y="192.24" style="stroke: #000000; stroke-width: 0.6"/>
      </g>
     </g>
    </g>
    <g id="xtick_20">
     <g id="line2d_20">
      <g>
       <use xlink:href="#m5434b219eb" x="226.744553" y="192.24" style="stroke: #000000; stroke-width: 0.6"/>
      </g>
     </g>
    </g>
    <g id="xtick_21">
     <g id="line2d_21">
      <g>
       <use xlink:href="#m5434b219eb" x="258.99579" y="192.24" style="stroke: #000000; stroke-width: 0.6"/>
      </g>
     </g>
    </g>
    <g id="xtick_22">
     <g id="line2d_22">
      <g>
       <use xlink:href="#m5434b219eb" x="275.372277" y="192.24" style="stroke: #000000; stroke-width: 0.6"/>
      </g>
     </g>
    </g>
    <g id="xtick_23">
     <g id="line2d_23">
      <g>
       <use xlink:href="#m5434b219eb" x="286.991579" y="192.24" style="stroke: #000000; stroke-width: 0.6"/>
      </g>
     </g>
    </g>
    <g id="xtick_24">
     <g id="line2d_24">
      <g>
       <use xlink:href="#m5434b219eb" x="296.00421" y="192.24" style="stroke: #000000; stroke-width: 0.6"/>
      </g>
     </g>
    </g>
    <g id="xtick_25">
     <g id="line2d_25">
      <g>
       <use xlink:href="#m5434b219eb" x="303.368066" y="192.24" style="stroke: #000000; stroke-width: 0.6"/>
      </g>
     </g>
    </g>
    <g id="xtick_26">
     <g id="line2d_26">
      <g>
       <use xlink:href="#m5434b219eb" x="309.594118" y="192.24" style="stroke: #000000; stroke-width: 0.6"/>
      </g>
     </g>
    </g>
    <g id="xtick_27">
     <g id="line2d_27">
      <g>
       <use xlink:href="#m5434b219eb" x="314.987369" y="192.24" style="stroke: #000000; stroke-width: 0.6"/>
      </g>
     </g>
    </g>
    <g id="xtick_28">
     <g id="line2d_28">
      <g>
       <use xlink:href="#m5434b219eb" x="319.744553" y="192.24" style="stroke: #000000; stroke-width: 0.6"/>
      </g>
     </g>
    </g>
    <g id="text_5">
     <!-- $x$ -->
     <g transform="translate(178.402253 227.31637) scale(0.22 -0.22)">
      <defs>
       <path id="CMMI12-78" d="M 3034 2624 
C 2829 2585 2752 2431 2752 2310 
C 2752 2156 2874 2105 2963 2105 
C 3155 2105 3290 2271 3290 2444 
C 3290 2694 2982 2816 2714 2816 
C 2323 2816 2106 2451 2048 2329 
C 1901 2790 1504 2816 1389 2816 
C 736 2816 390 1993 390 1849 
C 390 1823 416 1790 461 1790 
C 512 1790 525 1829 538 1855 
C 755 2572 1184 2687 1370 2687 
C 1658 2687 1715 2438 1715 2284 
C 1715 2143 1677 1993 1600 1678 
L 1382 778 
C 1286 390 1101 64 762 64 
C 730 64 570 64 435 126 
C 666 166 717 358 717 435 
C 717 563 621 640 499 640 
C 346 640 179 505 179 300 
C 179 57 480 -64 755 -64 
C 1062 -64 1280 153 1414 415 
C 1517 64 1837 -64 2074 -64 
C 2726 -64 3072 751 3072 896 
C 3072 929 3046 955 3008 955 
C 2950 955 2944 922 2925 870 
C 2752 300 2381 64 2093 64 
C 1869 64 1747 204 1747 467 
C 1747 607 1773 712 1875 1146 
L 2099 2039 
C 2195 2425 2413 2687 2707 2687 
C 2720 2687 2899 2687 3034 2624 
z
" transform="scale(0.015625)"/>
      </defs>
      <use xlink:href="#CMMI12-78" transform="scale(0.996264)"/>
     </g>
    </g>
   </g>
   <g id="matplotlib.axis_2">
    <g id="ytick_1">
     <g id="line2d_29">
      <defs>
       <path id="m034827af79" d="M 0 0 
L -3.5 0 
" style="stroke: #000000; stroke-width: 0.8"/>
      </defs>
      <g>
       <use xlink:href="#m034827af79" x="45" y="192.24" style="stroke: #000000; stroke-width: 0.8"/>
      </g>
     </g>
     <g id="text_6">
      <!-- $\mathdefault{0.00}$ -->
      <g transform="translate(20.288586 195.699249) scale(0.1 -0.1)">
       <defs>
        <path id="CMMI12-3a" d="M 1178 307 
C 1178 492 1024 620 870 620 
C 685 620 557 467 557 313 
C 557 128 710 0 864 0 
C 1050 0 1178 153 1178 307 
z
" transform="scale(0.015625)"/>
       </defs>
       <use xlink:href="#CMR17-30" transform="scale(0.996264)"/>
       <use xlink:href="#CMMI12-3a" transform="translate(45.690477 0) scale(0.996264)"/>
       <use xlink:href="#CMR17-30" transform="translate(72.787654 0) scale(0.996264)"/>
       <use xlink:href="#CMR17-30" transform="translate(118.478131 0) scale(0.996264)"/>
      </g>
     </g>
    </g>
    <g id="ytick_2">
     <g id="line2d_30">
      <g>
       <use xlink:href="#m034827af79" x="45" y="152.64" style="stroke: #000000; stroke-width: 0.8"/>
      </g>
     </g>
     <g id="text_7">
      <!-- $\mathdefault{0.05}$ -->
      <g transform="translate(20.288586 156.099249) scale(0.1 -0.1)">
       <defs>
        <path id="CMR17-35" d="M 730 3750 
C 794 3724 1056 3641 1325 3641 
C 1920 3641 2246 3961 2432 4140 
C 2432 4191 2432 4224 2394 4224 
C 2387 4224 2374 4224 2323 4198 
C 2099 4102 1837 4032 1517 4032 
C 1325 4032 1037 4055 723 4191 
C 653 4224 640 4224 634 4224 
C 602 4224 595 4217 595 4090 
L 595 2231 
C 595 2113 595 2080 659 2080 
C 691 2080 704 2093 736 2139 
C 941 2435 1222 2560 1542 2560 
C 1766 2560 2246 2415 2246 1293 
C 2246 1087 2246 716 2054 422 
C 1894 159 1645 25 1370 25 
C 947 25 518 319 403 812 
C 429 806 480 793 506 793 
C 589 793 749 838 749 1036 
C 749 1209 627 1280 506 1280 
C 358 1280 262 1190 262 1011 
C 262 454 704 -128 1382 -128 
C 2042 -128 2669 441 2669 1267 
C 2669 2054 2170 2662 1549 2662 
C 1222 2662 947 2540 730 2304 
L 730 3750 
z
" transform="scale(0.015625)"/>
       </defs>
       <use xlink:href="#CMR17-30" transform="scale(0.996264)"/>
       <use xlink:href="#CMMI12-3a" transform="translate(45.690477 0) scale(0.996264)"/>
       <use xlink:href="#CMR17-30" transform="translate(72.787654 0) scale(0.996264)"/>
       <use xlink:href="#CMR17-35" transform="translate(118.478131 0) scale(0.996264)"/>
      </g>
     </g>
    </g>
    <g id="ytick_3">
     <g id="line2d_31">
      <g>
       <use xlink:href="#m034827af79" x="45" y="113.04" style="stroke: #000000; stroke-width: 0.8"/>
      </g>
     </g>
     <g id="text_8">
      <!-- $\mathdefault{0.10}$ -->
      <g transform="translate(20.288586 116.499249) scale(0.1 -0.1)">
       <use xlink:href="#CMR17-30" transform="scale(0.996264)"/>
       <use xlink:href="#CMMI12-3a" transform="translate(45.690477 0) scale(0.996264)"/>
       <use xlink:href="#CMR17-31" transform="translate(72.787654 0) scale(0.996264)"/>
       <use xlink:href="#CMR17-30" transform="translate(118.478131 0) scale(0.996264)"/>
      </g>
     </g>
    </g>
    <g id="ytick_4">
     <g id="line2d_32">
      <g>
       <use xlink:href="#m034827af79" x="45" y="73.44" style="stroke: #000000; stroke-width: 0.8"/>
      </g>
     </g>
     <g id="text_9">
      <!-- $\mathdefault{0.15}$ -->
      <g transform="translate(20.288586 76.899249) scale(0.1 -0.1)">
       <use xlink:href="#CMR17-30" transform="scale(0.996264)"/>
       <use xlink:href="#CMMI12-3a" transform="translate(45.690477 0) scale(0.996264)"/>
       <use xlink:href="#CMR17-31" transform="translate(72.787654 0) scale(0.996264)"/>
       <use xlink:href="#CMR17-35" transform="translate(118.478131 0) scale(0.996264)"/>
      </g>
     </g>
    </g>
    <g id="ytick_5">
     <g id="line2d_33">
      <g>
       <use xlink:href="#m034827af79" x="45" y="33.84" style="stroke: #000000; stroke-width: 0.8"/>
      </g>
     </g>
     <g id="text_10">
      <!-- $\mathdefault{0.20}$ -->
      <g transform="translate(20.288586 37.299249) scale(0.1 -0.1)">
       <use xlink:href="#CMR17-30" transform="scale(0.996264)"/>
       <use xlink:href="#CMMI12-3a" transform="translate(45.690477 0) scale(0.996264)"/>
       <use xlink:href="#CMR17-32" transform="translate(72.787654 0) scale(0.996264)"/>
       <use xlink:href="#CMR17-30" transform="translate(118.478131 0) scale(0.996264)"/>
      </g>
     </g>
    </g>
    <g id="text_11">
     <!-- $x(\Delta_T u_v+\Delta_T d_v)$ -->
     <g transform="translate(10.827467 184.004865) rotate(-90) scale(0.22 -0.22)">
      <defs>
       <path id="CMR17-28" d="M 1958 -1562 
C 1958 -1556 1958 -1543 1939 -1524 
C 1645 -1223 858 -403 858 1596 
C 858 3595 1632 4408 1946 4729 
C 1946 4735 1958 4748 1958 4767 
C 1958 4787 1939 4800 1914 4800 
C 1843 4800 1299 4325 986 3620 
C 666 2909 576 2218 576 1603 
C 576 1141 621 360 1005 -467 
C 1312 -1133 1837 -1600 1914 -1600 
C 1946 -1600 1958 -1588 1958 -1562 
z
" transform="scale(0.015625)"/>
       <path id="CMR17-1" d="M 2598 4435 
C 2547 4544 2522 4544 2470 4544 
C 2394 4544 2387 4531 2342 4441 
L 269 108 
C 262 96 237 38 237 32 
C 237 6 243 0 358 0 
L 4576 0 
C 4691 0 4698 6 4698 32 
C 4698 38 4672 96 4666 108 
L 2598 4435 
z
M 2310 4056 
L 4083 358 
L 531 358 
L 2310 4056 
z
" transform="scale(0.015625)"/>
       <path id="CMMI12-54" d="M 2669 3886 
C 2707 4038 2720 4096 2816 4121 
C 2867 4134 3078 4134 3213 4134 
C 3853 4134 4154 4109 4154 3612 
C 4154 3516 4128 3274 4090 3038 
L 4083 2962 
C 4083 2937 4109 2898 4147 2898 
C 4211 2898 4211 2930 4230 3032 
L 4416 4159 
C 4429 4217 4429 4230 4429 4249 
C 4429 4319 4390 4319 4262 4319 
L 762 4319 
C 614 4319 608 4313 570 4198 
L 179 3051 
C 173 3038 154 2968 154 2962 
C 154 2930 179 2898 218 2898 
C 269 2898 282 2924 307 3007 
C 576 3777 710 4134 1562 4134 
L 1990 4134 
C 2144 4134 2208 4134 2208 4064 
C 2208 4045 2208 4032 2176 3917 
L 1318 497 
C 1254 249 1242 185 563 185 
C 403 185 358 185 358 64 
C 358 0 429 0 461 0 
C 621 0 787 12 947 12 
L 1946 12 
C 2106 12 2278 0 2438 0 
C 2509 0 2573 0 2573 121 
C 2573 185 2528 185 2362 185 
C 1786 185 1786 242 1786 338 
C 1786 344 1786 389 1811 491 
L 2669 3886 
z
" transform="scale(0.015625)"/>
       <path id="CMMI12-75" d="M 2182 370 
C 2266 12 2573 -64 2726 -64 
C 2931 -64 3085 70 3187 287 
C 3296 517 3379 893 3379 913 
C 3379 944 3354 970 3315 970 
C 3258 970 3251 938 3226 842 
C 3110 402 2995 64 2739 64 
C 2547 64 2547 274 2547 357 
C 2547 504 2566 568 2630 836 
C 2675 1008 2720 1181 2758 1359 
L 3021 2400 
C 3066 2560 3066 2572 3066 2591 
C 3066 2687 2989 2752 2893 2752 
C 2707 2752 2662 2591 2624 2432 
C 2560 2183 2214 810 2170 587 
C 2163 587 1914 64 1446 64 
C 1114 64 1050 351 1050 587 
C 1050 951 1229 1462 1395 1890 
C 1472 2094 1504 2177 1504 2305 
C 1504 2579 1306 2816 998 2816 
C 410 2816 173 1890 173 1838 
C 173 1813 198 1781 243 1781 
C 301 1781 307 1807 333 1896 
C 486 2445 736 2687 979 2687 
C 1043 2687 1146 2681 1146 2477 
C 1146 2311 1075 2126 979 1883 
C 698 1123 666 881 666 689 
C 666 38 1158 -64 1421 -64 
C 1830 -64 2054 217 2182 370 
z
" transform="scale(0.015625)"/>
       <path id="CMMI12-76" d="M 2925 2388 
C 2925 2790 2720 2816 2669 2816 
C 2515 2816 2374 2662 2374 2534 
C 2374 2458 2419 2413 2445 2388 
C 2509 2330 2675 2158 2675 1826 
C 2675 1558 2291 64 1523 64 
C 1133 64 1056 389 1056 625 
C 1056 945 1203 1392 1376 1851 
C 1478 2113 1504 2177 1504 2305 
C 1504 2573 1312 2816 998 2816 
C 410 2816 173 1890 173 1838 
C 173 1813 198 1781 243 1781 
C 301 1781 307 1807 333 1896 
C 486 2445 736 2687 979 2687 
C 1037 2687 1146 2687 1146 2477 
C 1146 2311 1075 2126 979 1883 
C 672 1066 672 868 672 715 
C 672 574 691 313 890 134 
C 1120 -64 1440 -64 1498 -64 
C 2560 -64 2925 2024 2925 2388 
z
" transform="scale(0.015625)"/>
       <path id="CMR17-2b" d="M 2413 1472 
L 4109 1472 
C 4198 1472 4307 1472 4307 1580 
C 4307 1696 4205 1696 4109 1696 
L 2413 1696 
L 2413 3385 
C 2413 3475 2413 3584 2304 3584 
C 2189 3584 2189 3481 2189 3385 
L 2189 1696 
L 493 1696 
C 403 1696 294 1696 294 1587 
C 294 1472 397 1472 493 1472 
L 2189 1472 
L 2189 -194 
C 2189 -282 2189 -391 2298 -391 
C 2413 -391 2413 -289 2413 -194 
L 2413 1472 
z
" transform="scale(0.015625)"/>
       <path id="CMMI12-64" d="M 3219 4255 
C 3226 4281 3238 4319 3238 4351 
C 3238 4416 3174 4416 3162 4416 
C 3155 4416 2842 4390 2810 4383 
C 2701 4377 2605 4364 2490 4358 
C 2330 4345 2285 4339 2285 4223 
C 2285 4159 2336 4159 2426 4159 
C 2739 4159 2746 4103 2746 4040 
C 2746 4002 2733 3951 2726 3932 
L 2336 2394 
C 2266 2560 2093 2816 1760 2816 
C 1037 2816 256 1883 256 938 
C 256 306 627 -64 1062 -64 
C 1414 -64 1715 210 1894 421 
C 1958 44 2259 -64 2451 -64 
C 2643 -64 2797 51 2912 281 
C 3014 498 3104 887 3104 913 
C 3104 945 3078 970 3040 970 
C 2982 970 2976 938 2950 842 
C 2854 466 2733 64 2470 64 
C 2285 64 2272 230 2272 357 
C 2272 383 2272 517 2317 696 
L 3219 4255 
z
M 1926 759 
C 1894 651 1894 638 1805 517 
C 1664 338 1382 64 1082 64 
C 819 64 672 300 672 676 
C 672 1028 870 1743 992 2011 
C 1210 2458 1510 2687 1760 2687 
C 2182 2687 2266 2164 2266 2113 
C 2266 2107 2246 2024 2240 2011 
L 1926 759 
z
" transform="scale(0.015625)"/>
       <path id="CMR17-29" d="M 1683 1596 
C 1683 2057 1638 2839 1254 3665 
C 947 4332 422 4800 346 4800 
C 326 4800 301 4793 301 4761 
C 301 4748 307 4742 314 4729 
C 621 4408 1402 3595 1402 1603 
C 1402 -396 627 -1210 314 -1530 
C 307 -1543 301 -1549 301 -1562 
C 301 -1594 326 -1600 346 -1600 
C 416 -1600 960 -1127 1274 -422 
C 1594 289 1683 981 1683 1596 
z
" transform="scale(0.015625)"/>
      </defs>
      <use xlink:href="#CMMI12-78" transform="scale(0.996264)"/>
      <use xlink:href="#CMR17-28" transform="translate(55.43406 0) scale(0.996264)"/>
      <use xlink:href="#CMR17-1" transform="translate(90.714827 0) scale(0.996264)"/>
      <use xlink:href="#CMMI12-54" transform="translate(167.634417 -14.943915) scale(0.697382)"/>
      <use xlink:href="#CMMI12-75" transform="translate(217.638871 0) scale(0.996264)"/>
      <use xlink:href="#CMMI12-76" transform="translate(273.159201 -14.943915) scale(0.697382)"/>
      <use xlink:href="#CMR17-2b" transform="translate(331.31099 0) scale(0.996264)"/>
      <use xlink:href="#CMR17-1" transform="translate(425.164985 0) scale(0.996264)"/>
      <use xlink:href="#CMMI12-54" transform="translate(502.084575 -14.943915) scale(0.697382)"/>
      <use xlink:href="#CMMI12-64" transform="translate(552.089029 0) scale(0.996264)"/>
      <use xlink:href="#CMMI12-76" transform="translate(602.778126 -14.943915) scale(0.697382)"/>
      <use xlink:href="#CMR17-29" transform="translate(638.790707 0) scale(0.996264)"/>
     </g>
    </g>
   </g>
   <g id="line2d_34">
    <path d="M 44.944497 171.538785 
L 59.932409 168.510342 
L 78.694255 164.47663 
L 109.963998 157.732138 
L 121.932762 155.404781 
L 132.068472 153.654139 
L 141.449395 152.255742 
L 150.830318 151.083633 
L 161.397335 149.996983 
L 181.345274 148.005823 
L 187.167916 147.153291 
L 191.912291 146.237587 
L 196.009706 145.224149 
L 199.675814 144.09368 
L 203.018441 142.838993 
L 206.253242 141.38512 
L 209.27239 139.783423 
L 212.183711 137.985903 
L 214.987205 135.993691 
L 217.790699 133.719702 
L 220.486367 131.244488 
L 223.182034 128.465032 
L 225.877702 125.36207 
L 228.573369 121.918807 
L 231.376864 117.962486 
L 234.180358 113.613816 
L 237.091679 108.679455 
L 240.110827 103.11903 
L 243.345628 96.684825 
L 246.903909 89.095405 
L 251.10915 79.576173 
L 263.940527 50.109382 
L 266.528368 44.958834 
L 268.684902 41.141076 
L 270.517956 38.324459 
L 272.135357 36.228321 
L 273.537104 34.749364 
L 274.831024 33.694611 
L 276.017118 33.014318 
L 277.095385 32.65267 
L 278.065825 32.550262 
L 279.036266 32.671394 
L 280.006706 33.027598 
L 280.977146 33.630072 
L 281.947587 34.489569 
L 283.025854 35.75837 
L 284.104121 37.36996 
L 285.290214 39.552423 
L 286.584135 42.437712 
L 287.985882 46.172147 
L 289.387629 50.54968 
L 290.897203 55.985899 
L 292.514603 62.630944 
L 294.347657 71.150728 
L 296.396365 81.822708 
L 298.768552 95.477456 
L 301.7877 114.278019 
L 307.825995 152.181572 
L 309.874702 163.496948 
L 311.599929 171.824375 
L 313.109503 178.007629 
L 314.403424 182.395206 
L 315.589517 185.643503 
L 316.667784 187.956439 
L 317.638225 189.539329 
L 318.608665 190.688121 
L 319.471279 191.388221 
L 320.441719 191.876912 
L 321.519986 192.142554 
L 322.921733 192.23582 
L 324 192.24 
L 324 192.24 
" clip-path="url(#pc32b44851c)" style="fill: none; stroke-dasharray: 5.55,2.4; stroke-dashoffset: 0; stroke: #000000; stroke-opacity: 0.2; stroke-width: 1.5"/>
   </g>
   <g id="line2d_35">
    <path d="M 44.944497 172.27687 
L 64.568957 168.729857 
L 104.572663 161.436162 
L 118.266654 159.21589 
L 130.882378 157.394741 
L 145.22333 155.562413 
L 164.632136 153.082964 
L 171.964351 151.903518 
L 177.786993 150.747204 
L 182.747022 149.54232 
L 187.167916 148.247545 
L 191.265331 146.819983 
L 195.147092 145.229235 
L 198.8132 143.482207 
L 202.263654 141.594 
L 205.606282 139.516161 
L 208.94891 137.17296 
L 212.183711 134.635514 
L 215.418512 131.818946 
L 218.76114 128.605217 
L 222.103767 125.078902 
L 225.554222 121.11461 
L 229.22033 116.558189 
L 233.209918 111.236911 
L 237.954292 104.517682 
L 252.187417 84.064353 
L 255.098738 80.431596 
L 257.578752 77.680618 
L 259.735286 75.614254 
L 261.676167 74.064423 
L 263.401394 72.970496 
L 264.910968 72.258511 
L 266.312715 71.822087 
L 267.714462 71.619743 
L 269.008382 71.655463 
L 270.302303 71.918252 
L 271.596223 72.420833 
L 272.890144 73.175077 
L 274.184064 74.192204 
L 275.477984 75.482386 
L 276.879732 77.198543 
L 278.389305 79.4275 
L 279.898879 82.059653 
L 281.51628 85.332538 
L 283.241507 89.339743 
L 285.074561 94.171733 
L 287.123268 100.244792 
L 289.279802 107.347899 
L 291.759816 116.299191 
L 294.886791 128.485223 
L 303.620753 163.122608 
L 305.777288 170.527254 
L 307.610341 176.092431 
L 309.227742 180.346275 
L 310.737316 183.707286 
L 312.139063 186.279274 
L 313.432983 188.18442 
L 314.619077 189.549899 
L 315.805171 190.577168 
L 316.991264 191.303315 
L 318.177358 191.775617 
L 319.579105 192.081826 
L 321.412159 192.222136 
L 324 192.24 
L 324 192.24 
" clip-path="url(#pc32b44851c)" style="fill: none; stroke: #1f77b4; stroke-opacity: 0.6; stroke-width: 1.5; stroke-linecap: square"/>
   </g>
   <g id="line2d_36">
    <path d="M 44.986539 171.994948 
L 65.618473 168.349819 
L 89.358816 164.121811 
L 112.597421 159.987079 
L 125.459572 157.974123 
L 137.986539 156.263961 
L 157.802498 153.856287 
L 167.952934 152.503828 
L 174.99496 151.343442 
L 180.050223 150.320316 
L 184.965487 149.104256 
L 189.346954 147.797341 
L 193.299289 146.392819 
L 197.210994 144.754221 
L 200.777078 143.013314 
L 204.31511 141.026415 
L 207.568026 138.949173 
L 210.800902 136.628643 
L 213.999621 134.066137 
L 217.342743 131.091401 
L 220.604645 127.888014 
L 223.944513 124.297218 
L 227.472203 120.169521 
L 231.254908 115.384155 
L 235.443429 109.707314 
L 240.640285 102.262431 
L 250.884841 87.497243 
L 254.199893 83.171844 
L 256.839703 80.074691 
L 259.116736 77.732569 
L 261.144807 75.961292 
L 262.954055 74.674319 
L 264.56865 73.790645 
L 266.064724 73.21888 
L 267.452812 72.920118 
L 268.794776 72.859542 
L 270.093582 73.02887 
L 271.35192 73.419291 
L 272.62029 74.049999 
L 273.896597 74.936061 
L 275.22396 76.136164 
L 276.596224 77.686267 
L 278.049544 79.681449 
L 279.573853 82.174208 
L 281.159508 85.20878 
L 282.834709 88.905983 
L 284.62198 93.401384 
L 286.538179 98.833651 
L 288.659192 105.541173 
L 291.041258 113.850125 
L 293.862318 124.542198 
L 298.267917 142.256601 
L 302.492812 158.934596 
L 304.960276 167.788613 
L 306.958596 174.163692 
L 308.686103 178.960006 
L 310.229343 182.612825 
L 311.624464 185.369985 
L 312.919914 187.459949 
L 314.140757 189.024184 
L 315.309091 190.173436 
L 316.460802 191.003809 
L 317.643638 191.585359 
L 318.930379 191.96553 
L 320.457513 192.174299 
L 322.728542 192.239135 
L 324 192.24 
L 324 192.24 
" clip-path="url(#pc32b44851c)" style="fill: none; stroke: #ff7f0e; stroke-opacity: 0.6; stroke-width: 1.5; stroke-linecap: square"/>
   </g>
   <g id="line2d_37">
    <path d="M -1 179.074775 
L 1.598164 179.074406 
L 16.693902 176.93192 
L 31.78964 174.563691 
L 47.963645 171.804857 
L 69.528985 167.877669 
L 100.798729 162.167827 
L 114.8162 159.83856 
L 127.755404 157.91375 
L 141.772875 156.075297 
L 165.494749 153.037944 
L 171.964351 151.981711 
L 177.355686 150.916094 
L 182.747022 149.612952 
L 187.06009 148.349203 
L 191.373158 146.84281 
L 195.686226 145.048181 
L 198.921027 143.484589 
L 202.155828 141.712117 
L 205.390629 139.711129 
L 208.62543 137.463112 
L 211.860231 134.951453 
L 215.095032 132.162382 
L 218.329833 129.086033 
L 221.564634 125.717898 
L 224.799435 122.059893 
L 228.034236 118.122356 
L 232.347304 112.474297 
L 236.660372 106.448871 
L 244.208241 95.411725 
L 249.599576 87.666158 
L 252.834377 83.340602 
L 256.069178 79.441645 
L 258.225712 77.165082 
L 260.382246 75.211971 
L 262.53878 73.641588 
L 264.695314 72.515363 
L 265.773581 72.138354 
L 266.851848 71.895877 
L 267.930115 71.795725 
L 269.008382 71.845586 
L 270.086649 72.052995 
L 271.164916 72.425256 
L 272.243183 72.96939 
L 273.32145 73.69205 
L 274.399717 74.599452 
L 275.477984 75.69728 
L 276.556252 76.990607 
L 277.634519 78.483789 
L 279.791053 82.082972 
L 281.947587 86.511484 
L 284.104121 91.767678 
L 286.260655 97.827875 
L 288.417189 104.642726 
L 290.573723 112.133786 
L 293.808524 124.38786 
L 303.512927 162.837677 
L 305.669461 170.26142 
L 307.825995 176.759763 
L 309.982529 182.146357 
L 311.060796 184.383468 
L 312.139063 186.307054 
L 313.21733 187.918725 
L 314.295597 189.22775 
L 315.373864 190.251394 
L 316.452131 191.014848 
L 317.530398 191.550651 
L 318.608665 191.89744 
L 320.765199 192.195732 
L 324 192.24 
L 324 192.24 
" clip-path="url(#pc32b44851c)" style="fill: none; stroke-dasharray: 1.5,2.475; stroke-dashoffset: 0; stroke: #2ca02c; stroke-opacity: 0.6; stroke-width: 1.5"/>
   </g>
   <g id="line2d_38">
    <path d="M -1 179.265606 
L 0.627723 179.265378 
L 3.862524 178.78952 
L 7.097325 178.317796 
L 10.332126 177.847094 
L 13.566927 177.37497 
L 16.801728 176.898898 
L 20.03653 176.416538 
L 23.271331 175.925914 
L 26.506132 175.425503 
L 29.740933 174.914287 
L 32.975734 174.391765 
L 36.210535 173.857924 
L 39.445336 173.313179 
L 42.680137 172.758275 
L 45.914938 172.19419 
L 49.149739 171.622035 
L 52.38454 171.042958 
L 55.619341 170.458086 
L 58.854142 169.868482 
L 62.088943 169.275145 
L 65.323744 168.678975 
L 68.558545 168.08092 
L 71.793346 167.481881 
L 75.028147 166.882803 
L 78.262948 166.284727 
L 81.497749 165.688759 
L 84.73255 165.096082 
L 87.967351 164.507941 
L 91.202152 163.925613 
L 94.436953 163.350389 
L 97.671754 162.783542 
L 100.906555 162.226306 
L 104.141356 161.679864 
L 107.376157 161.14527 
L 110.610958 160.623518 
L 113.845759 160.115467 
L 117.080561 159.621798 
L 120.315362 159.142759 
L 123.550163 158.678732 
L 126.784964 158.229496 
L 130.019765 157.794667 
L 133.254566 157.372742 
L 136.489367 156.963469 
L 139.724168 156.564228 
L 142.958969 156.172409 
L 146.19377 155.784971 
L 149.428571 155.397959 
L 152.663372 155.006855 
L 155.898173 154.606146 
L 159.132974 154.188946 
L 162.367775 153.748148 
L 165.602576 153.275345 
L 168.837377 152.761074 
L 172.072178 152.194787 
L 175.306979 151.564826 
L 178.54178 150.858412 
L 181.776581 150.061601 
L 185.011382 149.159355 
L 188.246183 148.135516 
L 191.480984 146.972876 
L 194.715785 145.653267 
L 197.950586 144.157632 
L 201.185387 142.466355 
L 204.420188 140.559501 
L 207.654989 138.417352 
L 210.889791 136.02104 
L 214.124592 133.353554 
L 217.359393 130.401023 
L 220.594194 127.154278 
L 223.828995 123.610776 
L 227.063796 119.776844 
L 230.298597 115.669637 
L 233.533398 111.319514 
L 236.768199 106.771243 
L 240.003 102.084928 
L 243.237801 97.336758 
L 246.472602 92.61857 
L 249.707403 88.040293 
L 252.942204 83.729839 
L 256.177005 79.839213 
L 259.411806 76.544688 
L 262.646607 74.04395 
L 265.881408 72.545886 
L 269.116209 72.258729 
L 272.35101 73.383818 
L 275.585811 76.110465 
L 278.820612 80.593704 
L 282.055413 86.923179 
L 285.290214 95.107775 
L 288.525015 105.045471 
L 291.759816 116.493458 
L 294.994617 129.049272 
L 298.229418 142.141334 
L 301.464219 155.044216 
L 304.69902 166.932387 
L 307.933822 176.983699 
L 311.168623 184.541239 
L 314.403424 189.318119 
L 317.638225 191.585478 
L 320.873026 192.111118 
L 324 192.24 
" clip-path="url(#pc32b44851c)" style="fill: none; stroke-dasharray: 1.5,2.475; stroke-dashoffset: 0; stroke: #d62728; stroke-opacity: 0.6; stroke-width: 1.5"/>
   </g>
   <g id="line2d_39">
    <path d="M -1 173.098577 
L 45.558184 172.993679 
L 64.62954 169.616061 
L 108.261083 161.797025 
L 121.564524 159.709685 
L 133.751585 158.021315 
L 147.427154 156.362218 
L 167.986988 153.89014 
L 175.15039 152.775986 
L 180.825272 151.672128 
L 185.662887 150.510866 
L 190.03535 149.235707 
L 194.035681 147.839688 
L 197.756919 146.309053 
L 201.2921 144.61727 
L 204.734241 142.719986 
L 207.990329 140.674725 
L 211.246413 138.364826 
L 214.409469 135.849774 
L 217.572524 133.052953 
L 220.735576 129.963741 
L 223.991665 126.472399 
L 227.340779 122.553068 
L 230.87596 118.067268 
L 234.690219 112.857998 
L 239.062671 106.493645 
L 245.38879 96.835126 
L 251.993988 86.855609 
L 255.436148 82.055059 
L 258.134042 78.65334 
L 260.459825 76.067856 
L 262.506494 74.122546 
L 264.274086 72.735595 
L 265.855618 71.756683 
L 267.344107 71.086572 
L 268.73958 70.700155 
L 270.042015 70.567258 
L 271.251416 70.654298 
L 272.460816 70.955813 
L 273.670217 71.483047 
L 274.87963 72.246694 
L 276.182057 73.344722 
L 277.484496 74.73983 
L 278.879957 76.575132 
L 280.368456 78.931966 
L 281.856948 81.709193 
L 283.438476 85.125326 
L 285.113036 89.263843 
L 286.973663 94.479163 
L 288.927309 100.623658 
L 291.160051 108.41567 
L 293.671891 118.018694 
L 296.927974 131.405482 
L 303.998334 160.746801 
L 306.324105 169.269751 
L 308.184726 175.290345 
L 309.859284 179.971603 
L 311.34778 183.4809 
L 312.650217 186.023134 
L 313.859618 187.939758 
L 315.069024 189.442085 
L 316.185397 190.485251 
L 317.301768 191.232697 
L 318.418141 191.727733 
L 319.720573 192.054751 
L 321.302099 192.210387 
L 324 192.24 
L 324 192.24 
" clip-path="url(#pc32b44851c)" style="fill: none; stroke-dasharray: 9.6,2.4,1.5,2.4; stroke-dashoffset: 0; stroke: #9467bd; stroke-opacity: 0.6; stroke-width: 1.5"/>
   </g>
   <g id="patch_3">
    <path d="M 45 192.24 
L 45 25.92 
" style="fill: none; stroke: #000000; stroke-width: 0.8; stroke-linejoin: miter; stroke-linecap: square"/>
   </g>
   <g id="patch_4">
    <path d="M 324 192.24 
L 324 25.92 
" style="fill: none; stroke: #000000; stroke-width: 0.8; stroke-linejoin: miter; stroke-linecap: square"/>
   </g>
   <g id="patch_5">
    <path d="M 45 192.24 
L 324 192.24 
" style="fill: none; stroke: #000000; stroke-width: 0.8; stroke-linejoin: miter; stroke-linecap: square"/>
   </g>
   <g id="patch_6">
    <path d="M 45 25.92 
L 324 25.92 
" style="fill: none; stroke: #000000; stroke-width: 0.8; stroke-linejoin: miter; stroke-linecap: square"/>
   </g>
   <g id="legend_1">
    <g id="patch_7">
     <path d="M 52 117.54307 
L 183.76495 117.54307 
Q 185.76495 117.54307 185.76495 115.54307 
L 185.76495 32.92 
Q 185.76495 30.92 183.76495 30.92 
L 52 30.92 
Q 50 30.92 50 32.92 
L 50 115.54307 
Q 50 117.54307 52 117.54307 
z
" style="fill: #ffffff; opacity: 0.8; stroke: #cccccc; stroke-linejoin: miter"/>
    </g>
    <g id="line2d_40">
     <path d="M 54 38.42 
L 64 38.42 
L 74 38.42 
" style="fill: none; stroke-dasharray: 5.55,2.4; stroke-dashoffset: 0; stroke: #000000; stroke-opacity: 0.2; stroke-width: 1.5"/>
    </g>
    <g id="text_12">
     <!-- initial GS-A distribution -->
     <g transform="translate(82 41.92) scale(0.1 -0.1)">
      <defs>
       <path id="CMSS17-69" d="M 979 4224 
L 442 4224 
L 442 3686 
L 979 3686 
L 979 4224 
z
M 947 2752 
L 474 2752 
L 474 0 
L 947 0 
L 947 2752 
z
" transform="scale(0.015625)"/>
       <path id="CMSS17-6e" d="M 2618 1878 
C 2618 2283 2522 2816 1798 2816 
C 1389 2816 1120 2604 941 2386 
L 941 2783 
L 474 2783 
L 474 0 
L 960 0 
L 960 1556 
C 960 1962 1114 2425 1549 2425 
C 2112 2425 2131 2045 2131 1826 
L 2131 0 
L 2618 0 
L 2618 1878 
z
" transform="scale(0.015625)"/>
       <path id="CMSS17-74" d="M 1069 2380 
L 1901 2380 
L 1901 2752 
L 1069 2752 
L 1069 3520 
L 614 3520 
L 614 2752 
L 109 2752 
L 109 2380 
L 602 2380 
L 602 751 
C 602 384 685 -64 1107 -64 
C 1427 -64 1722 25 2003 172 
L 1901 551 
C 1747 416 1562 339 1363 339 
C 1082 339 1069 699 1069 860 
L 1069 2380 
z
" transform="scale(0.015625)"/>
       <path id="CMSS17-61" d="M 2406 1789 
C 2406 2399 1978 2816 1402 2816 
C 1120 2816 813 2764 461 2559 
L 499 2133 
C 659 2250 934 2438 1395 2438 
C 1722 2438 1920 2185 1920 1782 
L 1920 1536 
C 896 1504 256 1209 256 711 
C 256 452 416 -64 947 -64 
C 1043 -64 1562 -52 1933 224 
L 1933 -13 
L 2406 -13 
L 2406 1789 
z
M 1920 824 
C 1920 711 1920 559 1728 446 
C 1562 339 1350 326 1261 326 
C 941 326 723 503 723 723 
C 723 1165 1722 1209 1920 1216 
L 1920 824 
z
" transform="scale(0.015625)"/>
       <path id="CMSS17-6c" d="M 947 4416 
L 474 4416 
L 474 0 
L 947 0 
L 947 4416 
z
" transform="scale(0.015625)"/>
       <path id="CMSS17-47" d="M 3610 1868 
L 2336 1868 
L 2336 1472 
L 3123 1472 
L 3123 473 
C 2874 403 2618 352 2362 352 
C 1466 352 934 1311 934 2220 
C 934 3123 1491 4070 2362 4070 
C 2854 4070 3130 3916 3469 3660 
L 3552 4172 
C 3130 4390 2867 4480 2387 4480 
C 1146 4480 397 3353 397 2201 
C 397 1100 1152 -64 2349 -64 
C 2797 -64 3213 51 3610 249 
L 3610 1868 
z
" transform="scale(0.015625)"/>
       <path id="CMSS17-53" d="M 2797 4230 
C 2515 4396 2208 4544 1690 4544 
C 864 4544 333 3934 333 3309 
C 333 3064 403 2787 653 2504 
C 902 2220 1184 2143 1542 2053 
C 1690 2014 1939 1943 1984 1924 
C 2342 1782 2515 1454 2515 1144 
C 2515 738 2202 307 1645 307 
C 1453 307 890 339 358 829 
L 269 320 
C 794 -64 1363 -128 1651 -128 
C 2438 -128 3002 494 3002 1202 
C 3002 1460 2925 1789 2656 2092 
C 2394 2381 2163 2446 1638 2588 
C 1338 2665 1146 2717 986 2916 
C 877 3058 819 3193 819 3367 
C 819 3728 1126 4121 1690 4121 
C 1971 4121 2336 4063 2707 3715 
L 2797 4230 
z
" transform="scale(0.015625)"/>
       <path id="CMSS17-2d" d="M 1664 1216 
L 1664 1587 
L 64 1587 
L 64 1216 
L 1664 1216 
z
" transform="scale(0.015625)"/>
       <path id="CMSS17-41" d="M 2272 4416 
L 1722 4416 
L 166 0 
L 653 0 
L 1101 1280 
L 2816 1280 
L 3270 0 
L 3827 0 
L 2272 4416 
z
M 2694 1638 
L 1222 1638 
C 1530 2530 1914 3638 1958 3924 
L 1965 3924 
C 2010 3663 2138 3281 2246 2956 
L 2694 1638 
z
" transform="scale(0.015625)"/>
       <path id="CMSS17-64" d="M 2611 4416 
L 2138 4416 
L 2138 2495 
C 1939 2662 1613 2816 1254 2816 
C 672 2816 211 2179 211 1375 
C 211 572 666 -64 1235 -64 
C 1677 -64 1971 172 2125 307 
L 2125 -13 
L 2611 -13 
L 2611 4416 
z
M 2125 851 
C 2125 760 2125 663 1926 488 
C 1798 378 1645 326 1498 326 
C 1152 326 698 585 698 1369 
C 698 2185 1210 2425 1562 2425 
C 1798 2425 1990 2308 2125 2114 
L 2125 851 
z
" transform="scale(0.015625)"/>
       <path id="CMSS17-73" d="M 2061 2623 
C 1683 2803 1389 2816 1197 2816 
C 742 2816 198 2655 198 2009 
C 198 1363 902 1222 1094 1183 
C 1389 1126 1715 1062 1715 742 
C 1715 339 1254 339 1171 339 
C 915 339 563 409 243 639 
L 166 211 
C 531 0 883 -64 1178 -64 
C 1965 -64 2163 416 2163 780 
C 2163 1094 1984 1305 1862 1401 
C 1651 1567 1574 1587 1050 1695 
C 960 1708 646 1779 646 2067 
C 646 2431 1050 2431 1139 2431 
C 1555 2431 1811 2303 1984 2207 
L 2061 2623 
z
" transform="scale(0.015625)"/>
       <path id="CMSS17-72" d="M 954 1369 
C 954 1974 1395 2379 1958 2392 
L 1958 2816 
C 1549 2809 1165 2604 934 2270 
L 934 2783 
L 480 2783 
L 480 0 
L 954 0 
L 954 1369 
z
" transform="scale(0.015625)"/>
       <path id="CMSS17-62" d="M 954 4416 
L 480 4416 
L 480 -13 
L 966 -13 
L 966 275 
C 1210 38 1504 -64 1766 -64 
C 2381 -64 2880 559 2880 1382 
C 2880 2133 2496 2816 1926 2816 
C 1523 2816 1165 2649 954 2476 
L 954 4416 
z
M 966 2095 
C 1107 2276 1306 2425 1587 2425 
C 1965 2425 2394 2146 2394 1382 
C 2394 566 1882 326 1530 326 
C 1402 326 1267 358 1139 468 
C 966 624 966 721 966 812 
L 966 2095 
z
" transform="scale(0.015625)"/>
       <path id="CMSS17-75" d="M 2618 2752 
L 2131 2752 
L 2131 976 
C 2131 500 1786 307 1421 307 
C 998 307 960 448 960 712 
L 960 2752 
L 474 2752 
L 474 680 
C 474 179 646 -64 1088 -64 
C 1306 -64 1798 -13 2144 307 
L 2144 -13 
L 2618 -13 
L 2618 2752 
z
" transform="scale(0.015625)"/>
       <path id="CMSS17-6f" d="M 2829 1356 
C 2829 2175 2221 2816 1504 2816 
C 768 2816 173 2156 173 1356 
C 173 544 787 -64 1498 -64 
C 2227 -64 2829 563 2829 1356 
z
M 1504 339 
C 1050 339 659 710 659 1407 
C 659 2150 1114 2425 1498 2425 
C 1914 2425 2342 2124 2342 1407 
C 2342 684 1926 339 1504 339 
z
" transform="scale(0.015625)"/>
      </defs>
      <use xlink:href="#CMSS17-69" transform="scale(0.996264)"/>
      <use xlink:href="#CMSS17-6e" transform="translate(22.180723 0) scale(0.996264)"/>
      <use xlink:href="#CMSS17-69" transform="translate(70.385666 0) scale(0.996264)"/>
      <use xlink:href="#CMSS17-74" transform="translate(92.566389 0) scale(0.996264)"/>
      <use xlink:href="#CMSS17-69" transform="translate(126.397956 0) scale(0.996264)"/>
      <use xlink:href="#CMSS17-61" transform="translate(148.578679 0) scale(0.996264)"/>
      <use xlink:href="#CMSS17-6c" transform="translate(193.5006 0) scale(0.996264)"/>
      <use xlink:href="#CMSS17-47" transform="translate(246.910435 0) scale(0.996264)"/>
      <use xlink:href="#CMSS17-53" transform="translate(309.368661 0) scale(0.996264)"/>
      <use xlink:href="#CMSS17-2d" transform="translate(361.417177 0) scale(0.996264)"/>
      <use xlink:href="#CMSS17-41" transform="translate(392.64629 0) scale(0.996264)"/>
      <use xlink:href="#CMSS17-64" transform="translate(486.093257 0) scale(0.996264)"/>
      <use xlink:href="#CMSS17-69" transform="translate(534.298201 0) scale(0.996264)"/>
      <use xlink:href="#CMSS17-73" transform="translate(556.478924 0) scale(0.996264)"/>
      <use xlink:href="#CMSS17-74" transform="translate(592.392466 0) scale(0.996264)"/>
      <use xlink:href="#CMSS17-72" transform="translate(626.224032 0) scale(0.996264)"/>
      <use xlink:href="#CMSS17-69" transform="translate(658.133805 0) scale(0.996264)"/>
      <use xlink:href="#CMSS17-62" transform="translate(680.314528 0) scale(0.996264)"/>
      <use xlink:href="#CMSS17-75" transform="translate(728.519471 0) scale(0.996264)"/>
      <use xlink:href="#CMSS17-74" transform="translate(776.724414 0) scale(0.996264)"/>
      <use xlink:href="#CMSS17-69" transform="translate(810.555981 0) scale(0.996264)"/>
      <use xlink:href="#CMSS17-6f" transform="translate(832.736704 0) scale(0.996264)"/>
      <use xlink:href="#CMSS17-6e" transform="translate(879.580327 0) scale(0.996264)"/>
     </g>
    </g>
    <g id="line2d_41">
     <path d="M 54 52.357178 
L 64 52.357178 
L 74 52.357178 
" style="fill: none; stroke: #1f77b4; stroke-opacity: 0.6; stroke-width: 1.5; stroke-linecap: square"/>
    </g>
    <g id="text_13">
     <!-- Python Hirai -->
     <g transform="translate(82 55.857178) scale(0.1 -0.1)">
      <defs>
       <path id="CMSS17-50" d="M 2106 1856 
C 2874 1856 3501 2447 3501 3139 
C 3501 3818 2899 4416 2067 4416 
L 570 4416 
L 570 0 
L 1107 0 
L 1107 1856 
L 2106 1856 
z
M 1926 4057 
C 2669 4057 2995 3598 2995 3139 
C 2995 2711 2694 2227 1926 2227 
L 1094 2227 
L 1094 4057 
L 1926 4057 
z
" transform="scale(0.015625)"/>
       <path id="CMSS17-79" d="M 2675 2752 
L 2176 2752 
C 1632 1293 1446 701 1434 383 
L 1427 383 
C 1408 695 1126 1459 902 2006 
L 602 2752 
L 83 2752 
L 1216 14 
C 1146 -177 1043 -464 1011 -527 
C 870 -884 774 -884 672 -884 
C 646 -884 442 -877 211 -807 
L 250 -1229 
C 410 -1261 570 -1280 685 -1280 
C 845 -1280 1165 -1280 1459 -495 
L 2675 2752 
z
" transform="scale(0.015625)"/>
       <path id="CMSS17-68" d="M 2618 1878 
C 2618 2283 2522 2816 1798 2816 
C 1395 2816 1133 2617 947 2399 
L 947 4416 
L 474 4416 
L 474 0 
L 960 0 
L 960 1556 
C 960 1962 1114 2425 1549 2425 
C 2112 2425 2131 2045 2131 1826 
L 2131 0 
L 2618 0 
L 2618 1878 
z
" transform="scale(0.015625)"/>
       <path id="CMSS17-48" d="M 3674 4416 
L 3136 4416 
L 3136 2496 
L 1101 2496 
L 1101 4416 
L 563 4416 
L 563 0 
L 1101 0 
L 1101 2105 
L 3136 2105 
L 3136 0 
L 3674 0 
L 3674 4416 
z
" transform="scale(0.015625)"/>
      </defs>
      <use xlink:href="#CMSS17-50" transform="scale(0.996264)"/>
      <use xlink:href="#CMSS17-79" transform="translate(59.735586 0) scale(0.996264)"/>
      <use xlink:href="#CMSS17-74" transform="translate(102.735728 0) scale(0.996264)"/>
      <use xlink:href="#CMSS17-68" transform="translate(136.567295 0) scale(0.996264)"/>
      <use xlink:href="#CMSS17-6f" transform="translate(184.772238 0) scale(0.996264)"/>
      <use xlink:href="#CMSS17-6e" transform="translate(231.615861 0) scale(0.996264)"/>
      <use xlink:href="#CMSS17-48" transform="translate(311.049917 0) scale(0.996264)"/>
      <use xlink:href="#CMSS17-69" transform="translate(377.111436 0) scale(0.996264)"/>
      <use xlink:href="#CMSS17-72" transform="translate(399.292159 0) scale(0.996264)"/>
      <use xlink:href="#CMSS17-61" transform="translate(431.201932 0) scale(0.996264)"/>
      <use xlink:href="#CMSS17-69" transform="translate(476.123853 0) scale(0.996264)"/>
     </g>
    </g>
    <g id="line2d_42">
     <path d="M 54 66.294357 
L 64 66.294357 
L 74 66.294357 
" style="fill: none; stroke: #ff7f0e; stroke-opacity: 0.6; stroke-width: 1.5; stroke-linecap: square"/>
    </g>
    <g id="text_14">
     <!-- Python Vogelsang -->
     <g transform="translate(82 69.794357) scale(0.1 -0.1)">
      <defs>
       <path id="CMSS17-56" d="M 3910 4416 
L 3411 4416 
L 2304 1361 
C 2272 1272 2074 687 2035 484 
L 2029 484 
C 1978 725 1773 1291 1664 1603 
L 922 3670 
L 646 4416 
L 83 4416 
L 1715 0 
L 2278 0 
L 3910 4416 
z
" transform="scale(0.015625)"/>
       <path id="CMSS17-67" d="M 2848 2816 
C 2483 2809 2170 2739 1914 2617 
C 1702 2783 1485 2816 1338 2816 
C 781 2816 358 2356 358 1824 
C 358 1481 550 1222 563 1209 
C 448 1049 384 876 384 684 
C 384 460 474 300 544 211 
C 211 6 166 -308 166 -429 
C 166 -896 749 -1280 1498 -1280 
C 2253 -1280 2835 -896 2835 -423 
C 2835 460 1856 467 1587 467 
L 1069 467 
C 973 467 717 467 717 793 
C 717 921 774 1004 781 1011 
C 877 940 1075 832 1338 832 
C 1869 832 2310 1279 2310 1824 
C 2310 2128 2170 2349 2112 2425 
L 2131 2425 
C 2150 2425 2419 2444 2515 2444 
C 2720 2444 2739 2438 2918 2419 
L 2848 2816 
z
M 1338 1184 
C 1120 1184 813 1317 813 1824 
C 813 2375 1165 2463 1331 2463 
C 1549 2463 1856 2330 1856 1824 
C 1856 1272 1504 1184 1338 1184 
z
M 1581 0 
C 1734 0 2381 0 2381 -436 
C 2381 -711 1984 -928 1504 -928 
C 1018 -928 621 -717 621 -429 
C 621 -397 621 0 1062 0 
L 1581 0 
z
" transform="scale(0.015625)"/>
       <path id="CMSS17-65" d="M 2502 1375 
C 2502 1587 2490 2001 2285 2347 
C 2061 2713 1696 2816 1421 2816 
C 755 2816 192 2184 192 1363 
C 192 579 774 -64 1510 -64 
C 1798 -64 2150 19 2470 249 
C 2470 275 2458 414 2451 421 
C 2451 433 2432 629 2432 655 
C 2125 408 1773 326 1517 326 
C 1107 326 666 667 646 1375 
L 2502 1375 
z
M 698 1728 
C 781 2086 1062 2425 1421 2425 
C 1517 2425 1965 2412 2080 1728 
L 698 1728 
z
" transform="scale(0.015625)"/>
      </defs>
      <use xlink:href="#CMSS17-50" transform="scale(0.996264)"/>
      <use xlink:href="#CMSS17-79" transform="translate(59.735586 0) scale(0.996264)"/>
      <use xlink:href="#CMSS17-74" transform="translate(102.735728 0) scale(0.996264)"/>
      <use xlink:href="#CMSS17-68" transform="translate(136.567295 0) scale(0.996264)"/>
      <use xlink:href="#CMSS17-6f" transform="translate(184.772238 0) scale(0.996264)"/>
      <use xlink:href="#CMSS17-6e" transform="translate(231.615861 0) scale(0.996264)"/>
      <use xlink:href="#CMSS17-56" transform="translate(311.049917 0) scale(0.996264)"/>
      <use xlink:href="#CMSS17-6f" transform="translate(370.665318 0) scale(0.996264)"/>
      <use xlink:href="#CMSS17-67" transform="translate(417.508942 0) scale(0.996264)"/>
      <use xlink:href="#CMSS17-65" transform="translate(464.352565 0) scale(0.996264)"/>
      <use xlink:href="#CMSS17-6c" transform="translate(505.991387 0) scale(0.996264)"/>
      <use xlink:href="#CMSS17-73" transform="translate(528.17211 0) scale(0.996264)"/>
      <use xlink:href="#CMSS17-61" transform="translate(564.085652 0) scale(0.996264)"/>
      <use xlink:href="#CMSS17-6e" transform="translate(609.007573 0) scale(0.996264)"/>
      <use xlink:href="#CMSS17-67" transform="translate(657.212516 0) scale(0.996264)"/>
     </g>
    </g>
    <g id="line2d_43">
     <path d="M 54 80.231535 
L 64 80.231535 
L 74 80.231535 
" style="fill: none; stroke-dasharray: 1.5,2.475; stroke-dashoffset: 0; stroke: #2ca02c; stroke-opacity: 0.6; stroke-width: 1.5"/>
    </g>
    <g id="text_15">
     <!-- Mathematica Hirai -->
     <g transform="translate(82 83.731535) scale(0.1 -0.1)">
      <defs>
       <path id="CMSS17-4d" d="M 3194 2373 
L 2886 1476 
C 2835 1311 2662 795 2624 592 
L 2618 592 
C 2598 719 2560 853 2458 1177 
C 2400 1368 2336 1565 2272 1743 
L 1325 4416 
L 576 4416 
L 576 0 
L 1075 0 
L 1075 3899 
L 1082 3899 
C 1082 3893 1139 3613 1530 2500 
L 2374 102 
L 2848 102 
L 3610 2233 
C 3661 2379 3821 2843 3891 3066 
C 3955 3257 4115 3728 4154 3912 
L 4160 3912 
L 4160 0 
L 4666 0 
L 4666 4416 
L 3923 4416 
L 3194 2373 
z
" transform="scale(0.015625)"/>
       <path id="CMSS17-6d" d="M 4288 1878 
C 4288 2309 4179 2816 3462 2816 
C 2982 2816 2694 2515 2566 2328 
C 2451 2668 2182 2816 1798 2816 
C 1363 2816 1088 2566 941 2386 
L 941 2783 
L 474 2783 
L 474 0 
L 960 0 
L 960 1556 
C 960 1936 1101 2425 1555 2425 
C 2138 2425 2138 2013 2138 1826 
L 2138 0 
L 2624 0 
L 2624 1556 
C 2624 1936 2765 2425 3219 2425 
C 3802 2425 3802 2013 3802 1826 
L 3802 0 
L 4288 0 
L 4288 1878 
z
" transform="scale(0.015625)"/>
       <path id="CMSS17-63" d="M 2464 2540 
C 2464 2585 2170 2713 2093 2739 
C 1882 2816 1613 2816 1542 2816 
C 710 2816 211 2092 211 1363 
C 211 595 768 -64 1517 -64 
C 1946 -64 2253 76 2502 243 
L 2464 665 
C 2189 454 1869 339 1523 339 
C 1024 339 698 774 698 1369 
C 698 1830 909 2412 1549 2412 
C 1901 2412 2099 2342 2394 2143 
L 2464 2540 
z
" transform="scale(0.015625)"/>
      </defs>
      <use xlink:href="#CMSS17-4d" transform="scale(0.996264)"/>
      <use xlink:href="#CMSS17-61" transform="translate(81.67603 0) scale(0.996264)"/>
      <use xlink:href="#CMSS17-74" transform="translate(126.597951 0) scale(0.996264)"/>
      <use xlink:href="#CMSS17-68" transform="translate(160.429517 0) scale(0.996264)"/>
      <use xlink:href="#CMSS17-65" transform="translate(208.63446 0) scale(0.996264)"/>
      <use xlink:href="#CMSS17-6d" transform="translate(250.273282 0) scale(0.996264)"/>
      <use xlink:href="#CMSS17-61" transform="translate(324.502537 0) scale(0.996264)"/>
      <use xlink:href="#CMSS17-74" transform="translate(369.424457 0) scale(0.996264)"/>
      <use xlink:href="#CMSS17-69" transform="translate(403.256024 0) scale(0.996264)"/>
      <use xlink:href="#CMSS17-63" transform="translate(425.436747 0) scale(0.996264)"/>
      <use xlink:href="#CMSS17-61" transform="translate(467.075569 0) scale(0.996264)"/>
      <use xlink:href="#CMSS17-48" transform="translate(543.226603 0) scale(0.996264)"/>
      <use xlink:href="#CMSS17-69" transform="translate(609.288122 0) scale(0.996264)"/>
      <use xlink:href="#CMSS17-72" transform="translate(631.468845 0) scale(0.996264)"/>
      <use xlink:href="#CMSS17-61" transform="translate(663.378617 0) scale(0.996264)"/>
      <use xlink:href="#CMSS17-69" transform="translate(708.300538 0) scale(0.996264)"/>
     </g>
    </g>
    <g id="line2d_44">
     <path d="M 54 94.168713 
L 64 94.168713 
L 74 94.168713 
" style="fill: none; stroke-dasharray: 1.5,2.475; stroke-dashoffset: 0; stroke: #d62728; stroke-opacity: 0.6; stroke-width: 1.5"/>
    </g>
    <g id="text_16">
     <!-- Mathematica Vogelsang -->
     <g transform="translate(82 97.668713) scale(0.1 -0.1)">
      <use xlink:href="#CMSS17-4d" transform="scale(0.996264)"/>
      <use xlink:href="#CMSS17-61" transform="translate(81.67603 0) scale(0.996264)"/>
      <use xlink:href="#CMSS17-74" transform="translate(126.597951 0) scale(0.996264)"/>
      <use xlink:href="#CMSS17-68" transform="translate(160.429517 0) scale(0.996264)"/>
      <use xlink:href="#CMSS17-65" transform="translate(208.63446 0) scale(0.996264)"/>
      <use xlink:href="#CMSS17-6d" transform="translate(250.273282 0) scale(0.996264)"/>
      <use xlink:href="#CMSS17-61" transform="translate(324.502537 0) scale(0.996264)"/>
      <use xlink:href="#CMSS17-74" transform="translate(369.424457 0) scale(0.996264)"/>
      <use xlink:href="#CMSS17-69" transform="translate(403.256024 0) scale(0.996264)"/>
      <use xlink:href="#CMSS17-63" transform="translate(425.436747 0) scale(0.996264)"/>
      <use xlink:href="#CMSS17-61" transform="translate(467.075569 0) scale(0.996264)"/>
      <use xlink:href="#CMSS17-56" transform="translate(543.226603 0) scale(0.996264)"/>
      <use xlink:href="#CMSS17-6f" transform="translate(602.842004 0) scale(0.996264)"/>
      <use xlink:href="#CMSS17-67" transform="translate(649.685627 0) scale(0.996264)"/>
      <use xlink:href="#CMSS17-65" transform="translate(696.529251 0) scale(0.996264)"/>
      <use xlink:href="#CMSS17-6c" transform="translate(738.168073 0) scale(0.996264)"/>
      <use xlink:href="#CMSS17-73" transform="translate(760.348796 0) scale(0.996264)"/>
      <use xlink:href="#CMSS17-61" transform="translate(796.262338 0) scale(0.996264)"/>
      <use xlink:href="#CMSS17-6e" transform="translate(841.184258 0) scale(0.996264)"/>
      <use xlink:href="#CMSS17-67" transform="translate(889.389202 0) scale(0.996264)"/>
     </g>
    </g>
    <g id="line2d_45">
     <path d="M 54 108.105892 
L 64 108.105892 
L 74 108.105892 
" style="fill: none; stroke-dasharray: 9.6,2.4,1.5,2.4; stroke-dashoffset: 0; stroke: #9467bd; stroke-opacity: 0.6; stroke-width: 1.5"/>
    </g>
    <g id="text_17">
     <!-- APFEL++ -->
     <g transform="translate(82 111.605892) scale(0.1 -0.1)">
      <defs>
       <path id="CMSS17-46" d="M 2918 1984 
L 2918 2374 
L 1101 2374 
L 1101 3993 
L 1882 3993 
C 1958 3993 2035 3987 2112 3987 
L 3168 3987 
L 3168 4403 
L 563 4403 
L 563 0 
L 1101 0 
L 1101 1984 
L 2918 1984 
z
" transform="scale(0.015625)"/>
       <path id="CMSS17-45" d="M 1958 435 
C 1446 435 1216 435 1101 428 
L 1101 2105 
L 3085 2105 
L 3085 2496 
L 1101 2496 
L 1101 3993 
L 1926 3993 
C 2003 3993 2080 3987 2157 3987 
L 3251 3987 
L 3251 4403 
L 563 4403 
L 563 0 
L 3334 0 
L 3334 441 
L 1958 435 
z
" transform="scale(0.015625)"/>
       <path id="CMSS17-4c" d="M 1670 416 
C 1594 416 1517 409 1440 409 
L 1101 409 
L 1101 4416 
L 563 4416 
L 563 0 
L 3002 0 
L 3002 416 
L 1670 416 
z
" transform="scale(0.015625)"/>
       <path id="CMSS17-2b" d="M 2451 1472 
L 4141 1472 
C 4230 1472 4339 1472 4339 1580 
C 4339 1696 4237 1696 4141 1696 
L 2451 1696 
L 2451 3385 
C 2451 3475 2451 3584 2342 3584 
C 2227 3584 2227 3481 2227 3385 
L 2227 1696 
L 531 1696 
C 442 1696 333 1696 333 1587 
C 333 1472 435 1472 531 1472 
L 2227 1472 
L 2227 -194 
C 2227 -282 2227 -391 2336 -391 
C 2451 -391 2451 -289 2451 -194 
L 2451 1472 
z
" transform="scale(0.015625)"/>
      </defs>
      <use xlink:href="#CMSS17-41" transform="scale(0.996264)"/>
      <use xlink:href="#CMSS17-50" transform="translate(62.217855 0) scale(0.996264)"/>
      <use xlink:href="#CMSS17-46" transform="translate(121.953441 0) scale(0.996264)"/>
      <use xlink:href="#CMSS17-45" transform="translate(175.243 0) scale(0.996264)"/>
      <use xlink:href="#CMSS17-4c" transform="translate(231.135014 0) scale(0.996264)"/>
      <use xlink:href="#CMSS17-2b" transform="translate(281.822119 0) scale(0.996264)"/>
      <use xlink:href="#CMSS17-2b" transform="translate(354.690054 0) scale(0.996264)"/>
     </g>
    </g>
   </g>
  </g>
 </g>
 <defs>
  <clipPath id="pc32b44851c">
   <rect x="45" y="25.92" width="279" height="166.32"/>
  </clipPath>
 </defs>
</svg>
