<?xml version="1.0" encoding="utf-8" standalone="no"?>
<!DOCTYPE svg PUBLIC "-//W3C//DTD SVG 1.1//EN"
  "http://www.w3.org/Graphics/SVG/1.1/DTD/svg11.dtd">
<svg xmlns:xlink="http://www.w3.org/1999/xlink" width="360pt" height="180pt" viewBox="0 0 360 180" xmlns="http://www.w3.org/2000/svg" version="1.1">
 <metadata>
  <rdf:RDF xmlns:dc="http://purl.org/dc/elements/1.1/" xmlns:cc="http://creativecommons.org/ns#" xmlns:rdf="http://www.w3.org/1999/02/22-rdf-syntax-ns#">
   <cc:Work>
    <dc:type rdf:resource="http://purl.org/dc/dcmitype/StillImage"/>
    <dc:date>2025-06-05T07:24:41.021366</dc:date>
    <dc:format>image/svg+xml</dc:format>
    <dc:creator>
     <cc:Agent>
      <dc:title>Matplotlib v3.10.0, https://matplotlib.org/</dc:title>
     </cc:Agent>
    </dc:creator>
   </cc:Work>
  </rdf:RDF>
 </metadata>
 <defs>
  <style type="text/css">*{stroke-linejoin: round; stroke-linecap: butt}</style>
 </defs>
 <g id="figure_1">
  <g id="patch_1">
   <path d="M 0 180 
L 360 180 
L 360 0 
L 0 0 
z
" style="fill: #ffffff"/>
  </g>
  <g id="axes_1">
   <g id="patch_2">
    <path d="M 45 160.2 
L 324 160.2 
L 324 21.6 
L 45 21.6 
z
" style="fill: #ffffff"/>
   </g>
   <g id="matplotlib.axis_1">
    <g id="xtick_1">
     <g id="line2d_1">
      <defs>
       <path id="m3737ae854a" d="M 0 0 
L 0 3.5 
" style="stroke: #000000; stroke-width: 0.8"/>
      </defs>
      <g>
       <use xlink:href="#m3737ae854a" x="45" y="160.2" style="stroke: #000000; stroke-width: 0.8"/>
      </g>
     </g>
     <g id="text_1">
      <!-- $\mathdefault{10^{-3}}$ -->
      <g transform="translate(34.919713 174.118498) scale(0.1 -0.1)">
       <defs>
        <path id="CMR17-31" d="M 1702 4083 
C 1702 4217 1696 4224 1606 4224 
C 1357 3927 979 3833 621 3820 
C 602 3820 570 3820 563 3808 
C 557 3795 557 3782 557 3648 
C 755 3648 1088 3686 1344 3839 
L 1344 467 
C 1344 243 1331 166 781 166 
L 589 166 
L 589 0 
C 896 6 1216 12 1523 12 
C 1830 12 2150 6 2458 0 
L 2458 166 
L 2266 166 
C 1715 166 1702 236 1702 467 
L 1702 4083 
z
" transform="scale(0.015625)"/>
        <path id="CMR17-30" d="M 2688 2038 
C 2688 2430 2682 3099 2413 3613 
C 2176 4063 1798 4224 1466 4224 
C 1158 4224 768 4082 525 3620 
C 269 3137 243 2539 243 2038 
C 243 1671 250 1112 448 623 
C 723 -39 1216 -128 1466 -128 
C 1760 -128 2208 -7 2470 604 
C 2662 1048 2688 1568 2688 2038 
z
M 1466 -26 
C 1056 -26 813 328 723 816 
C 653 1196 653 1749 653 2109 
C 653 2604 653 3015 736 3407 
C 858 3954 1216 4121 1466 4121 
C 1728 4121 2067 3947 2189 3420 
C 2272 3054 2278 2623 2278 2109 
C 2278 1691 2278 1176 2202 797 
C 2067 96 1690 -26 1466 -26 
z
" transform="scale(0.015625)"/>
        <path id="CMSY10-0" d="M 4218 1472 
C 4326 1472 4442 1472 4442 1600 
C 4442 1728 4326 1728 4218 1728 
L 755 1728 
C 646 1728 531 1728 531 1600 
C 531 1472 646 1472 755 1472 
L 4218 1472 
z
" transform="scale(0.015625)"/>
        <path id="CMR17-33" d="M 1414 2176 
C 1984 2176 2234 1673 2234 1094 
C 2234 322 1824 25 1453 25 
C 1114 25 563 193 390 691 
C 422 678 454 678 486 678 
C 640 678 755 780 755 947 
C 755 1132 614 1216 486 1216 
C 378 1216 211 1164 211 927 
C 211 335 787 -128 1466 -128 
C 2176 -128 2720 432 2720 1087 
C 2720 1718 2208 2176 1600 2246 
C 2086 2347 2554 2776 2554 3353 
C 2554 3856 2048 4224 1472 4224 
C 890 4224 378 3862 378 3347 
C 378 3123 544 3084 627 3084 
C 762 3084 877 3167 877 3334 
C 877 3500 762 3584 627 3584 
C 602 3584 570 3584 544 3571 
C 730 3999 1235 4076 1459 4076 
C 1683 4076 2106 3966 2106 3347 
C 2106 3167 2080 2851 1862 2574 
C 1670 2329 1453 2316 1242 2297 
C 1210 2297 1062 2284 1037 2284 
C 992 2278 966 2272 966 2227 
C 966 2182 973 2176 1101 2176 
L 1414 2176 
z
" transform="scale(0.015625)"/>
       </defs>
       <use xlink:href="#CMR17-31" transform="scale(0.996264)"/>
       <use xlink:href="#CMR17-30" transform="translate(45.690477 0) scale(0.996264)"/>
       <use xlink:href="#CMSY10-0" transform="translate(91.380954 36.153639) scale(0.697382)"/>
       <use xlink:href="#CMR17-33" transform="translate(145.621947 36.153639) scale(0.697382)"/>
      </g>
     </g>
    </g>
    <g id="xtick_2">
     <g id="line2d_2">
      <g>
       <use xlink:href="#m3737ae854a" x="138" y="160.2" style="stroke: #000000; stroke-width: 0.8"/>
      </g>
     </g>
     <g id="text_2">
      <!-- $\mathdefault{10^{-2}}$ -->
      <g transform="translate(127.919713 174.118498) scale(0.1 -0.1)">
       <defs>
        <path id="CMR17-32" d="M 2669 990 
L 2554 990 
C 2490 537 2438 460 2413 422 
C 2381 371 1920 371 1830 371 
L 602 371 
C 832 620 1280 1073 1824 1596 
C 2214 1966 2669 2400 2669 3033 
C 2669 3788 2067 4224 1395 4224 
C 691 4224 262 3603 262 3027 
C 262 2777 448 2745 525 2745 
C 589 2745 781 2783 781 3007 
C 781 3206 614 3264 525 3264 
C 486 3264 448 3257 422 3244 
C 544 3788 915 4057 1306 4057 
C 1862 4057 2227 3616 2227 3033 
C 2227 2477 1901 1998 1536 1583 
L 262 147 
L 262 0 
L 2515 0 
L 2669 990 
z
" transform="scale(0.015625)"/>
       </defs>
       <use xlink:href="#CMR17-31" transform="scale(0.996264)"/>
       <use xlink:href="#CMR17-30" transform="translate(45.690477 0) scale(0.996264)"/>
       <use xlink:href="#CMSY10-0" transform="translate(91.380954 36.153639) scale(0.697382)"/>
       <use xlink:href="#CMR17-32" transform="translate(145.621947 36.153639) scale(0.697382)"/>
      </g>
     </g>
    </g>
    <g id="xtick_3">
     <g id="line2d_3">
      <g>
       <use xlink:href="#m3737ae854a" x="231" y="160.2" style="stroke: #000000; stroke-width: 0.8"/>
      </g>
     </g>
     <g id="text_3">
      <!-- $\mathdefault{10^{-1}}$ -->
      <g transform="translate(220.919713 174.118498) scale(0.1 -0.1)">
       <use xlink:href="#CMR17-31" transform="scale(0.996264)"/>
       <use xlink:href="#CMR17-30" transform="translate(45.690477 0) scale(0.996264)"/>
       <use xlink:href="#CMSY10-0" transform="translate(91.380954 36.153639) scale(0.697382)"/>
       <use xlink:href="#CMR17-31" transform="translate(145.621947 36.153639) scale(0.697382)"/>
      </g>
     </g>
    </g>
    <g id="xtick_4">
     <g id="line2d_4">
      <g>
       <use xlink:href="#m3737ae854a" x="324" y="160.2" style="stroke: #000000; stroke-width: 0.8"/>
      </g>
     </g>
     <g id="text_4">
      <!-- $\mathdefault{10^{0}}$ -->
      <g transform="translate(317.033046 174.118498) scale(0.1 -0.1)">
       <use xlink:href="#CMR17-31" transform="scale(0.996264)"/>
       <use xlink:href="#CMR17-30" transform="translate(45.690477 0) scale(0.996264)"/>
       <use xlink:href="#CMR17-30" transform="translate(91.380954 36.153639) scale(0.697382)"/>
      </g>
     </g>
    </g>
    <g id="xtick_5">
     <g id="line2d_5">
      <defs>
       <path id="ma4ed27b817" d="M 0 0 
L 0 2 
" style="stroke: #000000; stroke-width: 0.6"/>
      </defs>
      <g>
       <use xlink:href="#ma4ed27b817" x="72.99579" y="160.2" style="stroke: #000000; stroke-width: 0.6"/>
      </g>
     </g>
    </g>
    <g id="xtick_6">
     <g id="line2d_6">
      <g>
       <use xlink:href="#ma4ed27b817" x="89.372277" y="160.2" style="stroke: #000000; stroke-width: 0.6"/>
      </g>
     </g>
    </g>
    <g id="xtick_7">
     <g id="line2d_7">
      <g>
       <use xlink:href="#ma4ed27b817" x="100.991579" y="160.2" style="stroke: #000000; stroke-width: 0.6"/>
      </g>
     </g>
    </g>
    <g id="xtick_8">
     <g id="line2d_8">
      <g>
       <use xlink:href="#ma4ed27b817" x="110.00421" y="160.2" style="stroke: #000000; stroke-width: 0.6"/>
      </g>
     </g>
    </g>
    <g id="xtick_9">
     <g id="line2d_9">
      <g>
       <use xlink:href="#ma4ed27b817" x="117.368066" y="160.2" style="stroke: #000000; stroke-width: 0.6"/>
      </g>
     </g>
    </g>
    <g id="xtick_10">
     <g id="line2d_10">
      <g>
       <use xlink:href="#ma4ed27b817" x="123.594118" y="160.2" style="stroke: #000000; stroke-width: 0.6"/>
      </g>
     </g>
    </g>
    <g id="xtick_11">
     <g id="line2d_11">
      <g>
       <use xlink:href="#ma4ed27b817" x="128.987369" y="160.2" style="stroke: #000000; stroke-width: 0.6"/>
      </g>
     </g>
    </g>
    <g id="xtick_12">
     <g id="line2d_12">
      <g>
       <use xlink:href="#ma4ed27b817" x="133.744553" y="160.2" style="stroke: #000000; stroke-width: 0.6"/>
      </g>
     </g>
    </g>
    <g id="xtick_13">
     <g id="line2d_13">
      <g>
       <use xlink:href="#ma4ed27b817" x="165.99579" y="160.2" style="stroke: #000000; stroke-width: 0.6"/>
      </g>
     </g>
    </g>
    <g id="xtick_14">
     <g id="line2d_14">
      <g>
       <use xlink:href="#ma4ed27b817" x="182.372277" y="160.2" style="stroke: #000000; stroke-width: 0.6"/>
      </g>
     </g>
    </g>
    <g id="xtick_15">
     <g id="line2d_15">
      <g>
       <use xlink:href="#ma4ed27b817" x="193.991579" y="160.2" style="stroke: #000000; stroke-width: 0.6"/>
      </g>
     </g>
    </g>
    <g id="xtick_16">
     <g id="line2d_16">
      <g>
       <use xlink:href="#ma4ed27b817" x="203.00421" y="160.2" style="stroke: #000000; stroke-width: 0.6"/>
      </g>
     </g>
    </g>
    <g id="xtick_17">
     <g id="line2d_17">
      <g>
       <use xlink:href="#ma4ed27b817" x="210.368066" y="160.2" style="stroke: #000000; stroke-width: 0.6"/>
      </g>
     </g>
    </g>
    <g id="xtick_18">
     <g id="line2d_18">
      <g>
       <use xlink:href="#ma4ed27b817" x="216.594118" y="160.2" style="stroke: #000000; stroke-width: 0.6"/>
      </g>
     </g>
    </g>
    <g id="xtick_19">
     <g id="line2d_19">
      <g>
       <use xlink:href="#ma4ed27b817" x="221.987369" y="160.2" style="stroke: #000000; stroke-width: 0.6"/>
      </g>
     </g>
    </g>
    <g id="xtick_20">
     <g id="line2d_20">
      <g>
       <use xlink:href="#ma4ed27b817" x="226.744553" y="160.2" style="stroke: #000000; stroke-width: 0.6"/>
      </g>
     </g>
    </g>
    <g id="xtick_21">
     <g id="line2d_21">
      <g>
       <use xlink:href="#ma4ed27b817" x="258.99579" y="160.2" style="stroke: #000000; stroke-width: 0.6"/>
      </g>
     </g>
    </g>
    <g id="xtick_22">
     <g id="line2d_22">
      <g>
       <use xlink:href="#ma4ed27b817" x="275.372277" y="160.2" style="stroke: #000000; stroke-width: 0.6"/>
      </g>
     </g>
    </g>
    <g id="xtick_23">
     <g id="line2d_23">
      <g>
       <use xlink:href="#ma4ed27b817" x="286.991579" y="160.2" style="stroke: #000000; stroke-width: 0.6"/>
      </g>
     </g>
    </g>
    <g id="xtick_24">
     <g id="line2d_24">
      <g>
       <use xlink:href="#ma4ed27b817" x="296.00421" y="160.2" style="stroke: #000000; stroke-width: 0.6"/>
      </g>
     </g>
    </g>
    <g id="xtick_25">
     <g id="line2d_25">
      <g>
       <use xlink:href="#ma4ed27b817" x="303.368066" y="160.2" style="stroke: #000000; stroke-width: 0.6"/>
      </g>
     </g>
    </g>
    <g id="xtick_26">
     <g id="line2d_26">
      <g>
       <use xlink:href="#ma4ed27b817" x="309.594118" y="160.2" style="stroke: #000000; stroke-width: 0.6"/>
      </g>
     </g>
    </g>
    <g id="xtick_27">
     <g id="line2d_27">
      <g>
       <use xlink:href="#ma4ed27b817" x="314.987369" y="160.2" style="stroke: #000000; stroke-width: 0.6"/>
      </g>
     </g>
    </g>
    <g id="xtick_28">
     <g id="line2d_28">
      <g>
       <use xlink:href="#ma4ed27b817" x="319.744553" y="160.2" style="stroke: #000000; stroke-width: 0.6"/>
      </g>
     </g>
    </g>
    <g id="text_5">
     <!-- $x$ -->
     <g transform="translate(178.402253 195.27637) scale(0.22 -0.22)">
      <defs>
       <path id="CMMI12-78" d="M 3034 2624 
C 2829 2585 2752 2431 2752 2310 
C 2752 2156 2874 2105 2963 2105 
C 3155 2105 3290 2271 3290 2444 
C 3290 2694 2982 2816 2714 2816 
C 2323 2816 2106 2451 2048 2329 
C 1901 2790 1504 2816 1389 2816 
C 736 2816 390 1993 390 1849 
C 390 1823 416 1790 461 1790 
C 512 1790 525 1829 538 1855 
C 755 2572 1184 2687 1370 2687 
C 1658 2687 1715 2438 1715 2284 
C 1715 2143 1677 1993 1600 1678 
L 1382 778 
C 1286 390 1101 64 762 64 
C 730 64 570 64 435 126 
C 666 166 717 358 717 435 
C 717 563 621 640 499 640 
C 346 640 179 505 179 300 
C 179 57 480 -64 755 -64 
C 1062 -64 1280 153 1414 415 
C 1517 64 1837 -64 2074 -64 
C 2726 -64 3072 751 3072 896 
C 3072 929 3046 955 3008 955 
C 2950 955 2944 922 2925 870 
C 2752 300 2381 64 2093 64 
C 1869 64 1747 204 1747 467 
C 1747 607 1773 712 1875 1146 
L 2099 2039 
C 2195 2425 2413 2687 2707 2687 
C 2720 2687 2899 2687 3034 2624 
z
" transform="scale(0.015625)"/>
      </defs>
      <use xlink:href="#CMMI12-78" transform="scale(0.996264)"/>
     </g>
    </g>
   </g>
   <g id="matplotlib.axis_2">
    <g id="ytick_1">
     <g id="line2d_29">
      <defs>
       <path id="m6d97cda630" d="M 0 0 
L -3.5 0 
" style="stroke: #000000; stroke-width: 0.8"/>
      </defs>
      <g>
       <use xlink:href="#m6d97cda630" x="45" y="135.247266" style="stroke: #000000; stroke-width: 0.8"/>
      </g>
     </g>
     <g id="text_6">
      <!-- $\mathdefault{10^{-5}}$ -->
      <g transform="translate(17.839427 138.706515) scale(0.1 -0.1)">
       <defs>
        <path id="CMR17-35" d="M 730 3750 
C 794 3724 1056 3641 1325 3641 
C 1920 3641 2246 3961 2432 4140 
C 2432 4191 2432 4224 2394 4224 
C 2387 4224 2374 4224 2323 4198 
C 2099 4102 1837 4032 1517 4032 
C 1325 4032 1037 4055 723 4191 
C 653 4224 640 4224 634 4224 
C 602 4224 595 4217 595 4090 
L 595 2231 
C 595 2113 595 2080 659 2080 
C 691 2080 704 2093 736 2139 
C 941 2435 1222 2560 1542 2560 
C 1766 2560 2246 2415 2246 1293 
C 2246 1087 2246 716 2054 422 
C 1894 159 1645 25 1370 25 
C 947 25 518 319 403 812 
C 429 806 480 793 506 793 
C 589 793 749 838 749 1036 
C 749 1209 627 1280 506 1280 
C 358 1280 262 1190 262 1011 
C 262 454 704 -128 1382 -128 
C 2042 -128 2669 441 2669 1267 
C 2669 2054 2170 2662 1549 2662 
C 1222 2662 947 2540 730 2304 
L 730 3750 
z
" transform="scale(0.015625)"/>
       </defs>
       <use xlink:href="#CMR17-31" transform="scale(0.996264)"/>
       <use xlink:href="#CMR17-30" transform="translate(45.690477 0) scale(0.996264)"/>
       <use xlink:href="#CMSY10-0" transform="translate(91.380954 36.153639) scale(0.697382)"/>
       <use xlink:href="#CMR17-35" transform="translate(145.621947 36.153639) scale(0.697382)"/>
      </g>
     </g>
    </g>
    <g id="ytick_2">
     <g id="line2d_30">
      <g>
       <use xlink:href="#m6d97cda630" x="45" y="103.629211" style="stroke: #000000; stroke-width: 0.8"/>
      </g>
     </g>
     <g id="text_7">
      <!-- $\mathdefault{10^{-2}}$ -->
      <g transform="translate(17.839427 107.08846) scale(0.1 -0.1)">
       <use xlink:href="#CMR17-31" transform="scale(0.996264)"/>
       <use xlink:href="#CMR17-30" transform="translate(45.690477 0) scale(0.996264)"/>
       <use xlink:href="#CMSY10-0" transform="translate(91.380954 36.153639) scale(0.697382)"/>
       <use xlink:href="#CMR17-32" transform="translate(145.621947 36.153639) scale(0.697382)"/>
      </g>
     </g>
    </g>
    <g id="ytick_3">
     <g id="line2d_31">
      <g>
       <use xlink:href="#m6d97cda630" x="45" y="72.011156" style="stroke: #000000; stroke-width: 0.8"/>
      </g>
     </g>
     <g id="text_8">
      <!-- $\mathdefault{10^{1}}$ -->
      <g transform="translate(24.066092 75.470406) scale(0.1 -0.1)">
       <use xlink:href="#CMR17-31" transform="scale(0.996264)"/>
       <use xlink:href="#CMR17-30" transform="translate(45.690477 0) scale(0.996264)"/>
       <use xlink:href="#CMR17-31" transform="translate(91.380954 36.153639) scale(0.697382)"/>
      </g>
     </g>
    </g>
    <g id="ytick_4">
     <g id="line2d_32">
      <g>
       <use xlink:href="#m6d97cda630" x="45" y="40.393102" style="stroke: #000000; stroke-width: 0.8"/>
      </g>
     </g>
     <g id="text_9">
      <!-- $\mathdefault{10^{4}}$ -->
      <g transform="translate(24.066092 43.852351) scale(0.1 -0.1)">
       <defs>
        <path id="CMR17-34" d="M 2150 4147 
C 2150 4281 2144 4288 2029 4288 
L 128 1254 
L 128 1088 
L 1779 1088 
L 1779 460 
C 1779 230 1766 166 1318 166 
L 1197 166 
L 1197 0 
C 1402 12 1747 12 1965 12 
C 2182 12 2528 12 2733 0 
L 2733 166 
L 2611 166 
C 2163 166 2150 230 2150 460 
L 2150 1088 
L 2803 1088 
L 2803 1254 
L 2150 1254 
L 2150 4147 
z
M 1798 3723 
L 1798 1254 
L 256 1254 
L 1798 3723 
z
" transform="scale(0.015625)"/>
       </defs>
       <use xlink:href="#CMR17-31" transform="scale(0.996264)"/>
       <use xlink:href="#CMR17-30" transform="translate(45.690477 0) scale(0.996264)"/>
       <use xlink:href="#CMR17-34" transform="translate(91.380954 36.153639) scale(0.697382)"/>
      </g>
     </g>
    </g>
    <g id="text_10">
     <!-- $\left|\frac {X-H}H\right|$ -->
     <g transform="translate(6.16806 119.021101) rotate(-90) scale(0.22 -0.22)">
      <defs>
       <path id="CMEX10-c" d="M 928 -3738 
C 928 -3840 928 -3975 1062 -3975 
C 1203 -3975 1203 -3847 1203 -3738 
L 1203 -103 
C 1203 0 1203 134 1069 134 
C 928 134 928 6 928 -103 
L 928 -3738 
z
" transform="scale(0.015625)"/>
       <path id="CMMI12-58" d="M 3040 2586 
L 2438 3981 
C 2522 4134 2714 4159 2790 4166 
C 2829 4166 2899 4172 2899 4281 
C 2899 4352 2842 4352 2803 4352 
C 2694 4352 2566 4339 2458 4339 
L 2086 4339 
C 1696 4339 1414 4352 1408 4352 
C 1357 4352 1293 4352 1293 4230 
C 1293 4166 1350 4166 1434 4166 
C 1805 4166 1830 4102 1894 3949 
L 2656 2179 
L 1267 701 
C 1037 453 762 211 288 185 
C 211 179 160 179 160 64 
C 160 44 166 0 237 0 
C 326 0 422 12 512 12 
L 813 12 
C 1018 12 1242 0 1440 0 
C 1485 0 1562 0 1562 115 
C 1562 179 1517 185 1478 185 
C 1350 198 1267 268 1267 370 
C 1267 478 1344 555 1530 746 
L 2099 1363 
C 2240 1510 2579 1879 2720 2019 
L 3392 453 
C 3398 440 3424 376 3424 370 
C 3424 312 3283 198 3078 185 
C 3040 185 2970 179 2970 64 
C 2970 0 3034 0 3066 0 
C 3174 0 3302 12 3411 12 
L 4115 12 
C 4230 12 4352 0 4461 0 
C 4506 0 4576 0 4576 121 
C 4576 185 4512 185 4454 185 
C 4070 191 4058 223 3949 459 
L 3104 2433 
L 3917 3300 
C 3981 3363 4128 3523 4186 3586 
C 4461 3873 4717 4134 5235 4166 
C 5299 4172 5363 4172 5363 4281 
C 5363 4352 5306 4352 5280 4352 
C 5190 4352 5094 4339 5005 4339 
L 4710 4339 
C 4506 4339 4282 4352 4083 4352 
C 4038 4352 3962 4352 3962 4236 
C 3962 4172 4006 4166 4045 4166 
C 4147 4153 4256 4102 4256 3981 
L 4250 3968 
C 4243 3924 4230 3860 4160 3784 
L 3040 2586 
z
" transform="scale(0.015625)"/>
       <path id="CMMI12-48" d="M 4787 3886 
C 4845 4102 4858 4166 5312 4166 
C 5427 4166 5491 4166 5491 4281 
C 5491 4352 5434 4352 5395 4352 
C 5280 4352 5146 4339 5024 4339 
L 4269 4339 
C 4147 4339 4013 4352 3891 4352 
C 3846 4352 3770 4352 3770 4230 
C 3770 4166 3814 4166 3936 4166 
C 4320 4166 4320 4115 4320 4045 
C 4320 4032 4320 3994 4294 3899 
L 3904 2361 
L 1971 2361 
L 2355 3886 
C 2413 4102 2426 4166 2880 4166 
C 2995 4166 3059 4166 3059 4281 
C 3059 4352 3002 4352 2963 4352 
C 2848 4352 2714 4339 2592 4339 
L 1837 4339 
C 1715 4339 1581 4352 1459 4352 
C 1414 4352 1338 4352 1338 4230 
C 1338 4166 1382 4166 1504 4166 
C 1888 4166 1888 4115 1888 4045 
C 1888 4032 1888 3994 1862 3899 
L 998 472 
C 941 249 928 185 486 185 
C 339 185 294 185 294 64 
C 294 0 365 0 384 0 
C 499 0 634 12 755 12 
L 1510 12 
C 1632 12 1766 0 1888 0 
C 1939 0 2010 0 2010 121 
C 2010 185 1952 185 1856 185 
C 1466 185 1466 236 1466 300 
C 1466 306 1466 351 1478 402 
L 1920 2176 
L 3859 2176 
C 3750 1755 3424 421 3411 383 
C 3341 191 3238 191 2861 185 
C 2784 185 2726 185 2726 64 
C 2726 0 2797 0 2816 0 
C 2931 0 3066 12 3187 12 
L 3942 12 
C 4064 12 4198 0 4320 0 
C 4371 0 4442 0 4442 121 
C 4442 185 4384 185 4288 185 
C 3898 185 3898 236 3898 300 
C 3898 306 3898 351 3910 402 
L 4787 3886 
z
" transform="scale(0.015625)"/>
      </defs>
      <use xlink:href="#CMEX10-c" transform="translate(0 84.683049) scale(0.996264)"/>
      <use xlink:href="#CMEX10-c" transform="translate(0 24.9066) scale(0.996264)"/>
      <use xlink:href="#CMMI12-58" transform="translate(34.40437 39.226102) scale(0.697382)"/>
      <use xlink:href="#CMSY10-0" transform="translate(96.558879 39.226102) scale(0.697382)"/>
      <use xlink:href="#CMMI12-48" transform="translate(150.799872 39.226102) scale(0.697382)"/>
      <use xlink:href="#CMMI12-48" transform="translate(92.602129 -34.355253) scale(0.697382)"/>
      <use xlink:href="#CMEX10-c" transform="translate(213.960344 84.683049) scale(0.996264)"/>
      <use xlink:href="#CMEX10-c" transform="translate(213.960344 24.9066) scale(0.996264)"/>
      <path d="M 34.40437 22.914133 
L 212.76483 22.914133 
L 212.76483 26.899083 
L 34.40437 26.899083 
L 34.40437 22.914133 
z
"/>
     </g>
    </g>
   </g>
   <g id="line2d_33">
    <path d="M 44.944497 102.215094 
L 45.160151 102.235063 
L 47.532338 102.97864 
L 49.473219 103.357528 
L 51.198446 103.46244 
L 52.815847 103.344011 
L 54.541074 103.001024 
L 56.805435 102.453019 
L 60.040236 103.890693 
L 61.981116 104.513618 
L 63.49069 104.779621 
L 64.892437 104.814695 
L 65.755051 104.844024 
L 69.097679 107.044987 
L 70.499426 107.706595 
L 71.577693 107.994164 
L 72.548133 108.046531 
L 73.087266 108.122391 
L 77.076854 112.558881 
L 77.831641 112.963773 
L 78.478602 113.03777 
L 79.233388 112.860077 
L 80.096002 115.236812 
L 80.850789 118.056424 
L 81.389922 120.908088 
L 81.821229 124.354106 
L 82.144709 129.03272 
L 82.252536 132.076733 
L 82.360363 140.466079 
L 82.576016 131.218885 
L 82.899496 127.940506 
L 83.11515 127.389262 
L 83.222976 127.389372 
L 83.43863 127.942177 
L 83.654283 129.573283 
L 83.76211 131.245263 
L 83.977763 140.010376 
L 84.193417 128.955047 
L 84.516897 124.291333 
L 84.624723 123.792229 
L 84.840377 128.500447 
L 84.948204 136.555055 
L 85.163857 127.153676 
L 85.487337 123.093526 
L 85.918644 120.998961 
L 86.349951 120.091767 
L 86.673431 119.847242 
L 86.996911 119.908042 
L 87.320391 120.288041 
L 87.643871 121.079703 
L 87.967351 122.551726 
L 88.183005 124.31115 
L 88.398658 127.933164 
L 88.506485 132.977829 
L 88.614311 132.375607 
L 88.829965 124.921933 
L 89.153445 120.964492 
L 89.369098 119.436015 
L 89.908232 122.53577 
L 90.339539 126.138335 
L 90.663019 130.351764 
L 90.878672 135.187725 
L 91.094326 148.218306 
L 91.309979 140.762239 
L 91.417806 145.432848 
L 91.849112 130.625487 
L 92.280419 125.21736 
L 92.819553 121.219022 
L 93.466513 117.990232 
L 93.682166 117.526359 
L 94.329127 118.576379 
L 94.760433 118.881101 
L 95.083914 118.840263 
L 95.407394 118.571229 
L 95.946527 117.722213 
L 96.916967 115.597142 
L 97.456101 114.371821 
L 98.318715 114.638457 
L 98.857848 114.490486 
L 99.396982 114.108803 
L 100.151768 113.282794 
L 101.122209 112.197125 
L 101.769169 112.220106 
L 102.416129 112.028912 
L 103.170916 111.568097 
L 104.464836 110.660365 
L 105.219623 110.591019 
L 106.082237 110.2711 
L 107.052677 109.662839 
L 107.376157 109.560379 
L 108.238771 109.487356 
L 109.209211 109.167192 
L 110.287478 108.765579 
L 111.257919 108.652372 
L 112.336186 108.287841 
L 112.767492 108.174069 
L 113.845759 108.083169 
L 114.924027 107.770952 
L 115.247507 107.731185 
L 116.325774 107.649307 
L 119.776228 107.13666 
L 120.962322 107.057703 
L 122.364069 106.932662 
L 134.548486 106.380464 
L 139.508514 106.353641 
L 142.958969 106.409756 
L 145.762463 106.516097 
L 151.908585 106.925816 
L 156.760787 107.553409 
L 159.564281 108.084706 
L 162.799082 108.931527 
L 165.171269 109.781102 
L 167.004323 110.668938 
L 168.513897 111.62984 
L 169.807817 112.719725 
L 170.778258 113.79717 
L 171.640871 115.086453 
L 172.287832 116.396571 
L 172.826965 117.919027 
L 173.258272 119.680274 
L 173.689579 122.628717 
L 173.905232 125.520212 
L 174.013059 128.029289 
L 174.120885 134.243578 
L 174.552192 123.327802 
L 174.983499 119.912856 
L 175.522633 116.948851 
L 176.277419 115.116897 
L 177.140033 113.617479 
L 178.326127 112.105634 
L 179.620047 110.841717 
L 180.913968 109.877816 
L 187.167916 106.604933 
L 190.079237 105.539483 
L 193.960998 104.410937 
L 198.381893 103.415602 
L 203.126268 102.586861 
L 208.194123 101.908481 
L 214.016765 101.33248 
L 220.70202 100.89857 
L 227.387276 100.691744 
L 234.503838 100.699599 
L 242.051707 100.937008 
L 249.707403 101.401407 
L 257.363099 102.085941 
L 265.018794 103.005118 
L 271.596223 104.016075 
L 277.203212 105.093687 
L 281.83976 106.197458 
L 285.721521 107.335638 
L 288.956322 108.509304 
L 291.436336 109.629892 
L 293.485044 110.794013 
L 294.994617 111.891688 
L 296.288538 113.074084 
L 297.366805 114.357088 
L 298.229418 115.727807 
L 298.876379 117.116972 
L 299.415512 118.729352 
L 299.846819 120.622661 
L 300.170299 122.854285 
L 300.385952 125.343278 
L 300.601606 131.233994 
L 300.709433 136.658602 
L 300.925086 126.297781 
L 301.248566 122.385376 
L 301.679873 119.779447 
L 302.219006 117.778778 
L 302.865967 116.141456 
L 303.72858 114.575949 
L 304.69902 113.253256 
L 305.885114 111.99944 
L 307.394688 110.701731 
L 309.443395 109.247786 
L 312.139063 107.591502 
L 317.206918 104.472204 
L 318.824318 103.240278 
L 319.579105 102.615677 
L 319.686932 102.18381 
L 319.794759 102.431132 
L 320.226065 102.047479 
L 320.333892 101.454513 
L 320.549546 104.42886 
L 320.765199 101.573029 
L 321.412159 100.876198 
L 321.519986 98.867493 
L 321.627813 90.578655 
L 321.735639 97.662726 
L 321.843466 95.014639 
L 322.059119 96.192457 
L 322.166946 96.159479 
L 322.274773 101.371297 
L 322.382599 96.21507 
L 322.490426 96.493314 
L 322.598253 97.178088 
L 323.02956 78.49761 
L 323.137386 96.57536 
L 323.245213 80.993778 
L 323.35304 83.15478 
L 323.460866 82.828068 
L 323.568693 83.094095 
L 323.67652 79.834251 
L 323.892173 85.266051 
L 324 82.550508 
L 324 82.550508 
" clip-path="url(#pcad340d46c)" style="fill: none; stroke: #ff7f0e; stroke-opacity: 0.7; stroke-width: 1.5; stroke-linecap: square"/>
   </g>
   <g id="line2d_34">
    <path d="M 44.944497 109.25054 
L 46.454071 109.246618 
L 49.149739 109.287805 
L 50.012352 109.293005 
L 50.551486 109.271378 
L 55.403687 109.325346 
L 55.942821 109.303456 
L 60.795023 109.357309 
L 61.334156 109.335123 
L 66.186358 109.388726 
L 66.725491 109.366313 
L 71.577693 109.419836 
L 72.116826 109.397251 
L 76.969028 109.450971 
L 77.508161 109.428287 
L 82.360363 109.482193 
L 82.899496 109.459505 
L 87.751698 109.513971 
L 88.290831 109.491399 
L 93.143033 109.54691 
L 93.682166 109.52459 
L 98.534368 109.581532 
L 99.073501 109.559634 
L 103.925703 109.61859 
L 104.464836 109.597318 
L 109.317038 109.65913 
L 109.856172 109.638788 
L 114.708373 109.704421 
L 115.247507 109.685241 
L 120.099708 109.755682 
L 120.746668 109.737617 
L 130.235418 109.858512 
L 132.823259 109.895782 
L 134.548486 109.922794 
L 137.244154 109.973823 
L 138.645901 110.007616 
L 140.263301 110.019721 
L 144.145063 110.109037 
L 145.978116 110.157326 
L 147.272037 110.18829 
L 149.105091 110.227872 
L 150.938145 110.270289 
L 170.239124 111.052483 
L 181.992235 111.83691 
L 184.687902 112.049313 
L 185.442689 112.130807 
L 190.510544 112.579592 
L 191.265331 112.635424 
L 191.588811 112.685493 
L 192.343598 112.742064 
L 192.667078 112.793657 
L 193.314038 112.859293 
L 193.745345 112.903969 
L 194.392305 112.970882 
L 194.823612 113.016309 
L 195.470572 113.08441 
L 195.901879 113.130523 
L 196.548839 113.199724 
L 196.980146 113.246445 
L 197.627106 113.31664 
L 198.058413 113.363893 
L 198.705373 113.434919 
L 199.13668 113.48257 
L 199.78364 113.554333 
L 200.214947 113.602299 
L 200.861907 113.674629 
L 201.293214 113.722779 
L 201.940174 113.795499 
L 202.371481 113.8437 
L 203.018441 113.916615 
L 203.449748 113.964722 
L 204.096708 114.037625 
L 204.528015 114.08547 
L 205.174975 114.158131 
L 205.606282 114.205535 
L 206.253242 114.277679 
L 206.684549 114.324462 
L 207.331509 114.39585 
L 207.762816 114.441815 
L 208.409776 114.512158 
L 208.841083 114.557081 
L 209.488043 114.62607 
L 209.91935 114.669745 
L 210.56631 114.737068 
L 210.997617 114.779255 
L 211.644577 114.844591 
L 212.075884 114.885061 
L 212.722844 114.948075 
L 213.154151 114.986581 
L 213.801111 115.046931 
L 214.232418 115.083239 
L 214.879378 115.140602 
L 215.418512 115.196952 
L 216.820259 115.312083 
L 218.76114 115.438995 
L 222.103767 115.589985 
L 227.063796 115.689777 
L 227.818583 115.671299 
L 228.249889 115.662165 
L 228.89685 115.656896 
L 229.328156 115.643854 
L 229.86729 115.61423 
L 230.406423 115.616341 
L 230.945557 115.578877 
L 231.48469 115.579881 
L 232.023824 115.534687 
L 232.455131 115.582313 
L 232.886438 115.466205 
L 233.317744 115.54876 
L 233.533398 115.53467 
L 233.964705 115.404277 
L 234.396011 115.4948 
L 234.503838 115.55389 
L 234.935145 115.348171 
L 235.366452 115.38513 
L 235.689932 115.415958 
L 236.121239 115.257995 
L 236.552545 115.364427 
L 236.660372 115.434634 
L 237.091679 115.190645 
L 237.522986 115.232793 
L 237.738639 115.3645 
L 238.169946 115.102306 
L 238.493426 115.107181 
L 238.924733 115.185876 
L 239.35604 114.989895 
L 239.67952 115.05579 
L 239.895173 115.205752 
L 240.32648 114.909088 
L 240.64996 114.914415 
L 241.081267 115.003399 
L 241.512574 114.784793 
L 241.836054 114.858101 
L 242.051707 115.025214 
L 242.483014 114.697215 
L 242.806494 114.703265 
L 243.237801 114.802182 
L 243.561281 114.585501 
L 243.884761 114.591977 
L 244.316068 114.69565 
L 244.639548 114.470536 
L 244.963028 114.477491 
L 245.394335 114.5858 
L 245.717815 114.352781 
L 246.041295 114.360258 
L 246.472602 114.473057 
L 246.796082 114.232639 
L 247.119562 114.240655 
L 247.550869 114.35777 
L 247.874349 114.110479 
L 248.197829 114.119056 
L 248.629136 114.240309 
L 248.952616 113.986664 
L 249.276096 113.995828 
L 249.707403 114.121058 
L 250.030883 113.861509 
L 250.354363 113.87125 
L 250.78567 114.000258 
L 251.10915 113.735288 
L 251.43263 113.745611 
L 251.863937 113.87818 
L 252.187417 113.608231 
L 252.510897 113.619233 
L 252.942204 113.75529 
L 253.265684 113.480866 
L 253.589164 113.492374 
L 254.020471 113.631623 
L 254.343951 113.353092 
L 254.667431 113.365138 
L 255.098738 113.507426 
L 255.422218 113.225208 
L 255.745698 113.237819 
L 256.069178 113.55203 
L 256.177005 113.382898 
L 256.500485 113.097397 
L 256.823965 113.110519 
L 257.147445 113.429227 
L 257.470925 113.030994 
L 257.794406 112.946094 
L 258.117886 113.161198 
L 258.225712 113.306177 
L 258.549192 112.904245 
L 258.872673 112.818839 
L 259.196153 113.036404 
L 259.303979 113.18294 
L 259.627459 112.777924 
L 259.95094 112.692134 
L 260.27442 112.911896 
L 260.382246 113.059923 
L 260.705726 112.652172 
L 261.029207 112.566061 
L 261.352687 112.787699 
L 261.460513 112.936935 
L 261.783993 112.527027 
L 262.107474 112.440665 
L 262.430954 112.66385 
L 262.53878 112.814115 
L 262.86226 112.402606 
L 263.185741 112.316095 
L 263.509221 112.540544 
L 263.617047 112.691606 
L 263.940527 112.278986 
L 264.264008 112.192385 
L 264.587488 112.41776 
L 264.695314 112.569416 
L 265.018794 112.156229 
L 265.342275 112.069622 
L 265.665755 112.295583 
L 265.773581 112.44761 
L 266.097061 112.034389 
L 266.420542 111.947841 
L 266.744022 112.174029 
L 266.851848 112.326196 
L 267.175329 111.913489 
L 267.498809 111.827066 
L 267.822289 112.0531 
L 267.930115 112.205152 
L 268.253596 111.793551 
L 268.577076 111.707322 
L 268.900556 111.932785 
L 269.008382 112.084458 
L 269.331863 111.674475 
L 269.655343 111.588351 
L 269.978823 111.812212 
L 270.086649 111.962929 
L 270.41013 111.557133 
L 270.73361 111.472235 
L 271.05709 111.695971 
L 271.164916 111.846323 
L 271.488397 111.442119 
L 271.811877 111.357362 
L 272.135357 111.579165 
L 272.243183 111.728293 
L 272.566664 111.327728 
L 272.890144 111.243483 
L 273.213624 111.462961 
L 273.32145 111.610563 
L 273.644931 111.214486 
L 273.968411 111.130887 
L 274.291891 111.347497 
L 274.399717 111.493208 
L 274.723198 111.102517 
L 275.046678 111.019688 
L 275.370158 111.232851 
L 275.477984 111.37628 
L 275.801465 110.991919 
L 276.124945 110.90999 
L 276.448425 111.119041 
L 276.556252 111.259762 
L 276.879732 110.882775 
L 277.203212 110.801888 
L 277.526692 111.006081 
L 277.634519 111.143608 
L 277.957999 110.775154 
L 278.281479 110.695493 
L 278.604959 110.894058 
L 278.712786 111.027884 
L 279.036266 110.669219 
L 279.359746 110.590924 
L 279.683226 110.782937 
L 279.791053 110.912461 
L 280.114533 110.564982 
L 280.438013 110.488264 
L 280.761493 110.672702 
L 280.86932 110.797249 
L 281.300626 110.410131 
L 281.624106 110.417755 
L 282.055413 110.546085 
L 282.378893 110.311816 
L 282.702373 110.317638 
L 283.13368 110.438734 
L 283.45716 110.215949 
L 283.78064 110.219701 
L 284.211947 110.332419 
L 284.643254 110.100321 
L 284.966734 110.171117 
L 285.182388 110.33874 
L 285.613694 110.032755 
L 285.937175 110.031543 
L 286.368481 110.123631 
L 286.799788 109.92592 
L 287.123268 109.978238 
L 287.446748 110.02123 
L 287.878055 109.844485 
L 288.309362 109.931982 
L 288.417189 109.995323 
L 288.848495 109.785072 
L 289.279802 109.79598 
L 289.603282 109.821343 
L 290.142416 109.691216 
L 291.112856 109.631291 
L 295.857231 109.277248 
L 295.965058 109.183105 
L 296.396365 109.439068 
L 296.719845 109.377544 
L 297.151151 109.199435 
L 297.474632 109.438618 
L 297.690285 109.427594 
L 298.013765 109.121823 
L 298.121592 108.944221 
L 298.552899 109.459602 
L 298.768552 109.452053 
L 298.984205 109.236976 
L 299.199859 108.822805 
L 299.523339 109.412363 
L 299.738992 109.539897 
L 299.954646 109.400555 
L 300.278126 108.700004 
L 300.709433 109.590571 
L 300.925086 109.594353 
L 301.140739 109.241575 
L 301.356393 108.575486 
L 301.7877 109.719545 
L 302.003353 109.732398 
L 302.219006 109.282347 
L 302.43466 108.449042 
L 302.865967 109.910835 
L 302.973793 110.000395 
L 303.08162 109.936879 
L 303.297273 109.35973 
L 303.512927 108.319834 
L 303.944234 110.18988 
L 304.05206 110.315207 
L 304.159887 110.235642 
L 304.37554 109.486684 
L 304.591194 108.18811 
L 305.022501 110.598232 
L 305.130327 110.77769 
L 305.238154 110.675254 
L 305.453807 109.683045 
L 305.669461 108.053577 
L 306.100768 111.211421 
L 306.208594 111.479434 
L 306.316421 111.340713 
L 306.532074 109.979259 
L 306.747728 107.914387 
L 307.286861 112.616108 
L 307.394688 112.412323 
L 307.610341 110.429347 
L 307.825995 107.770638 
L 308.365128 114.770337 
L 308.472955 114.402359 
L 308.904262 107.621159 
L 309.227742 114.383669 
L 309.443395 122.192937 
L 309.551222 120.392512 
L 309.874702 109.632294 
L 309.982529 107.464399 
L 310.198182 113.01919 
L 310.306009 120.722398 
L 310.521662 115.341534 
L 310.629489 115.931209 
L 310.737316 123.022546 
L 310.952969 110.163377 
L 311.060796 107.299354 
L 311.168623 110.234222 
L 311.276449 116.426447 
L 311.384276 115.574149 
L 311.599929 110.854093 
L 311.707756 111.083892 
L 311.815583 112.999726 
L 311.923409 153.9 
L 312.139063 107.123707 
L 312.354716 119.284996 
L 312.57037 108.745583 
L 312.678196 108.005378 
L 312.786023 108.130343 
L 312.89385 109.305434 
L 313.001676 113.215847 
L 313.109503 112.883513 
L 313.21733 106.9341 
L 313.325157 112.911947 
L 313.432983 111.885915 
L 313.648637 106.318128 
L 313.756463 105.706228 
L 313.86429 105.774321 
L 313.972117 106.640745 
L 314.079943 109.128344 
L 314.18777 118.680664 
L 314.295597 106.717447 
L 314.403424 118.247187 
L 314.619077 105.488508 
L 314.83473 103.639221 
L 314.942557 103.665065 
L 315.050384 104.356054 
L 315.158211 106.247623 
L 315.266037 113.836304 
L 315.373864 106.469612 
L 315.481691 114.436979 
L 315.697344 103.340629 
L 315.912997 101.652985 
L 316.020824 101.640082 
L 316.128651 102.211288 
L 316.236478 103.767889 
L 316.344304 108.626803 
L 316.452131 106.168273 
L 316.559958 109.110701 
L 316.775611 101.261384 
L 316.991264 99.647869 
L 317.099091 99.593543 
L 317.206918 100.070124 
L 317.314745 101.405799 
L 317.530398 105.770277 
L 317.638225 105.723404 
L 317.853878 99.137572 
L 318.069531 97.531741 
L 318.177358 97.426721 
L 318.285185 97.815716 
L 318.393012 98.983491 
L 318.608665 105.188706 
L 319.147798 95.194637 
L 319.255625 95.019983 
L 319.363452 95.312639 
L 319.471279 96.330738 
L 319.686932 104.232108 
L 320.010412 94.281482 
L 320.226065 92.463467 
L 320.333892 92.179965 
L 320.441719 92.34157 
L 320.549546 93.189265 
L 320.657372 95.676979 
L 320.765199 102.589197 
L 321.088679 91.116338 
L 321.412159 88.469128 
L 321.519986 88.38555 
L 321.627813 88.926942 
L 321.735639 90.910741 
L 321.843466 102.550084 
L 322.059119 88.581554 
L 322.382599 83.241125 
L 322.70608 80.656123 
L 322.813906 80.60834 
L 322.921733 82.029545 
L 323.67652 61.12132 
L 323.892173 45.700546 
L 324 82.550508 
L 324 82.550508 
" clip-path="url(#pcad340d46c)" style="fill: none; stroke-dasharray: 1.5,2.475; stroke-dashoffset: 0; stroke: #2ca02c; stroke-opacity: 0.7; stroke-width: 1.5"/>
   </g>
   <g id="line2d_35">
    <path d="M 44.944497 107.209311 
L 46.346245 107.351352 
L 47.424512 107.269151 
L 48.502779 107.402845 
L 49.365392 107.541058 
L 50.443659 107.412682 
L 51.521926 107.507184 
L 52.70802 107.672109 
L 53.786287 107.556291 
L 54.864554 107.671138 
L 55.942821 107.810934 
L 57.021088 107.680103 
L 58.099355 107.786595 
L 59.177622 107.917374 
L 60.255889 107.769131 
L 61.334156 107.863229 
L 62.412423 107.981514 
L 63.49069 107.816965 
L 64.568957 107.897601 
L 65.539397 108.034313 
L 66.509838 107.839005 
L 67.588105 107.856724 
L 68.989852 107.950032 
L 70.068119 107.785125 
L 71.146386 107.863654 
L 72.008999 107.956694 
L 73.087266 107.734544 
L 74.165533 107.754109 
L 75.351627 107.836479 
L 76.429894 107.634836 
L 77.508161 107.668708 
L 78.586428 107.725937 
L 79.664695 107.521898 
L 80.742962 107.547125 
L 81.821229 107.595025 
L 82.899496 107.390025 
L 83.977763 107.407062 
L 85.05603 107.445933 
L 86.134297 107.240967 
L 87.212564 107.249998 
L 88.290831 107.279943 
L 89.369098 107.075818 
L 90.555192 107.088224 
L 91.525632 107.098102 
L 92.711726 106.886342 
L 93.89782 106.911048 
L 94.652607 106.932666 
L 95.8387 106.701834 
L 97.024794 106.696882 
L 97.995234 106.692755 
L 99.181328 106.486606 
L 100.367422 106.492987 
L 101.230035 106.473523 
L 102.416129 106.271722 
L 103.71005 106.279797 
L 104.35701 106.274425 
L 105.65093 106.050648 
L 106.944851 106.050948 
L 107.699638 106.015957 
L 108.993558 105.818153 
L 110.395305 105.839172 
L 110.826612 105.809115 
L 112.228359 105.593515 
L 113.630106 105.606518 
L 114.16924 105.55294 
L 115.570987 105.363797 
L 116.972734 105.386214 
L 117.404041 105.325919 
L 118.913614 105.142164 
L 124.520603 104.806805 
L 126.138003 104.730569 
L 127.431924 104.657704 
L 129.157151 104.545423 
L 130.990205 104.448054 
L 132.715432 104.390313 
L 133.901526 104.330163 
L 135.73458 104.240351 
L 137.567634 104.155817 
L 139.508514 104.130807 
L 140.478955 104.069448 
L 142.527662 104.026923 
L 144.037236 103.969223 
L 148.026824 103.908633 
L 158.486014 104.030032 
L 169.915644 104.669952 
L 179.620047 105.624345 
L 181.668755 105.788965 
L 182.315715 105.896077 
L 184.148769 106.112367 
L 185.873996 106.295861 
L 187.491396 106.443086 
L 188.893143 106.560364 
L 190.402717 106.709253 
L 192.451425 106.83268 
L 193.745345 106.889249 
L 195.470572 106.918867 
L 196.764493 106.965081 
L 199.028853 106.932594 
L 200.322774 106.872562 
L 201.724521 106.770258 
L 203.018441 106.763598 
L 204.312362 106.540836 
L 204.743669 106.543981 
L 206.145416 106.529249 
L 207.547163 106.287087 
L 207.97847 106.280818 
L 209.488043 106.231826 
L 214.663725 105.747672 
L 216.604606 105.634405 
L 218.43766 105.533058 
L 228.789023 105.352553 
L 236.660372 105.709147 
L 236.876025 105.711066 
L 237.954292 105.533494 
L 239.03256 105.586068 
L 240.32648 105.735441 
L 241.29692 105.550187 
L 242.267361 105.603954 
L 243.129974 105.870565 
L 243.345628 105.866781 
L 244.208241 105.578926 
L 245.070855 105.524912 
L 245.933468 105.706992 
L 246.580429 105.892422 
L 247.335215 105.574018 
L 248.090002 105.47147 
L 248.844789 105.577855 
L 249.599576 105.91683 
L 249.707403 105.987392 
L 250.46219 105.584018 
L 251.216977 105.437733 
L 251.971764 105.53245 
L 252.618724 105.82297 
L 252.942204 106.054166 
L 253.589164 105.643373 
L 254.236124 105.456219 
L 254.883085 105.471967 
L 255.530045 105.698658 
L 256.284832 106.078596 
L 256.931792 105.657251 
L 257.578752 105.487665 
L 258.225712 105.549022 
L 258.872673 105.857933 
L 259.519633 106.234231 
L 260.166593 105.749684 
L 260.813553 105.555209 
L 261.460513 105.622407 
L 261.999647 105.891203 
L 262.53878 106.397468 
L 262.646607 106.534183 
L 263.293567 105.915198 
L 263.940527 105.640668 
L 264.479661 105.637193 
L 265.018794 105.841879 
L 265.557928 106.29081 
L 265.881408 106.710647 
L 266.420542 106.102566 
L 266.959675 105.775921 
L 267.498809 105.681692 
L 268.037942 105.811151 
L 268.577076 106.190876 
L 269.116209 106.89885 
L 269.224036 106.734993 
L 269.763169 106.138199 
L 270.302303 105.838232 
L 270.841436 105.787656 
L 271.38057 105.984246 
L 271.919703 106.470424 
L 272.35101 107.141665 
L 272.890144 106.412722 
L 273.429277 106.030908 
L 273.968411 105.925923 
L 274.507544 106.085964 
L 274.938851 106.428506 
L 275.370158 107.01657 
L 275.585811 107.434118 
L 276.124945 106.645145 
L 276.664078 106.235538 
L 277.203212 106.12299 
L 277.634519 106.235559 
L 278.065825 106.546645 
L 278.497132 107.105957 
L 278.820612 107.750544 
L 279.359746 106.92738 
L 279.898879 106.505073 
L 280.438013 106.393521 
L 280.86932 106.515905 
L 281.300626 106.846801 
L 281.731933 107.441276 
L 282.055413 108.130224 
L 282.594547 107.31199 
L 283.13368 106.898251 
L 283.672814 106.797935 
L 284.104121 106.931306 
L 284.535427 107.275425 
L 284.966734 107.886688 
L 285.290214 108.592351 
L 285.829348 107.859952 
L 286.368481 107.499461 
L 286.907615 107.431878 
L 287.338922 107.5776 
L 287.770228 107.9181 
L 288.201535 108.499936 
L 288.525015 109.152347 
L 289.064149 108.692543 
L 289.603282 108.501266 
L 290.142416 108.529289 
L 290.681549 108.759407 
L 291.32851 109.311168 
L 292.083296 110.02683 
L 293.377217 110.882621 
L 294.024177 111.18758 
L 294.455484 111.18773 
L 294.886791 110.938467 
L 294.994617 110.83166 
L 295.533751 113.635648 
L 295.965058 117.247823 
L 296.288538 122.437942 
L 296.396365 126.053894 
L 296.504191 145.996717 
L 296.719845 124.447899 
L 296.935498 123.063095 
L 297.043325 123.360192 
L 297.151151 124.46893 
L 297.366805 133.064534 
L 297.582458 120.893741 
L 297.905938 115.511703 
L 298.229418 112.232302 
L 298.445072 116.941523 
L 298.552899 125.506061 
L 298.768552 115.332479 
L 299.092032 111.265875 
L 299.415512 109.54517 
L 299.738992 108.684977 
L 300.062472 108.382281 
L 300.278126 108.46731 
L 300.493779 108.82133 
L 300.709433 109.546651 
L 300.925086 110.904988 
L 301.140739 113.81976 
L 301.356393 122.494888 
L 301.464219 114.670258 
L 301.572046 124.255886 
L 301.7877 110.973693 
L 302.11118 107.246221 
L 302.542486 105.137597 
L 302.973793 104.191498 
L 303.297273 103.970587 
L 303.512927 104.04733 
L 303.72858 104.335124 
L 304.05206 105.335566 
L 304.267714 106.683978 
L 304.483367 109.452487 
L 304.591194 112.610501 
L 304.69902 122.662219 
L 304.914674 108.331763 
L 305.238154 104.289122 
L 305.669461 102.016913 
L 306.100768 100.929123 
L 306.424248 100.582537 
L 306.639901 100.553542 
L 306.855555 100.70373 
L 307.071208 101.076577 
L 307.394688 102.284574 
L 307.610341 103.952211 
L 307.825995 107.884386 
L 307.933822 115.578294 
L 308.149475 104.797012 
L 308.472955 101.080829 
L 308.904262 98.852349 
L 309.335569 97.733084 
L 309.659049 97.344172 
L 309.874702 97.281261 
L 310.090356 97.393537 
L 310.306009 97.724377 
L 310.521662 98.365411 
L 310.737316 99.528098 
L 310.952969 101.859529 
L 311.060796 104.268981 
L 311.168623 111.379662 
L 311.384276 101.633348 
L 311.707756 97.910885 
L 312.139063 95.593763 
L 312.57037 94.363276 
L 313.001676 93.798448 
L 313.21733 93.753723 
L 313.432983 93.900318 
L 313.648637 94.302259 
L 313.86429 95.099453 
L 314.079943 96.654758 
L 314.295597 100.522993 
L 314.403424 108.720531 
L 314.619077 98.29866 
L 314.942557 94.396378 
L 315.373864 91.864997 
L 315.805171 90.407559 
L 316.236478 89.595294 
L 316.559958 89.396676 
L 316.775611 89.51962 
L 316.991264 89.951167 
L 317.206918 90.917312 
L 317.422571 93.137435 
L 317.530398 95.682725 
L 317.638225 106.396078 
L 317.853878 93.723099 
L 318.177358 89.336937 
L 318.716492 85.56731 
L 319.363452 82.61516 
L 320.118239 80.077515 
L 320.657372 78.892083 
L 320.873026 78.731865 
L 322.166946 69.52119 
L 322.70608 64.136714 
L 323.137386 57.964677 
L 323.460866 50.866735 
L 323.784347 37.433599 
L 323.892173 27.9 
L 324 82.550508 
L 324 82.550508 
" clip-path="url(#pcad340d46c)" style="fill: none; stroke-dasharray: 1.5,2.475; stroke-dashoffset: 0; stroke: #d62728; stroke-opacity: 0.7; stroke-width: 1.5"/>
   </g>
   <g id="line2d_36">
    <path d="M 44.944497 97.060276 
L 45.160151 97.156534 
L 83.654283 97.884528 
L 130.990205 98.785437 
L 144.576369 98.799515 
L 156.32948 98.587908 
L 167.43563 98.164288 
L 181.560928 97.386325 
L 200.322774 96.37195 
L 209.91935 96.086832 
L 218.222006 96.059102 
L 225.769875 96.253576 
L 232.562957 96.645206 
L 238.601253 97.209963 
L 243.776934 97.912602 
L 248.090002 98.71964 
L 251.540457 99.583018 
L 254.343951 100.504917 
L 256.608312 101.476115 
L 258.441366 102.499376 
L 259.95094 103.60082 
L 261.137033 104.738168 
L 262.107474 105.970247 
L 262.86226 107.25502 
L 263.509221 108.769397 
L 264.048354 110.607402 
L 264.479661 112.941434 
L 264.803141 116.139356 
L 265.018794 121.343649 
L 265.126621 134.664017 
L 265.342275 117.77528 
L 265.665755 113.63202 
L 266.097061 110.944489 
L 266.636195 108.905792 
L 267.283155 107.247491 
L 268.145769 105.669984 
L 269.116209 104.349745 
L 270.302303 103.103427 
L 271.70405 101.939556 
L 273.429277 100.790105 
L 275.585811 99.626591 
L 278.173652 98.483221 
L 281.408453 97.298662 
L 285.505868 96.042328 
L 290.897203 94.638917 
L 298.552899 92.902731 
L 313.54081 89.553648 
L 317.206918 88.50598 
L 320.118239 87.395248 
L 321.951293 86.398221 
L 323.35304 85.230005 
L 323.67652 83.71705 
L 323.784347 82.045764 
L 323.892173 77.469578 
L 324 82.550508 
L 324 82.550508 
" clip-path="url(#pcad340d46c)" style="fill: none; stroke-dasharray: 9.6,2.4,1.5,2.4; stroke-dashoffset: 0; stroke: #9467bd; stroke-opacity: 0.7; stroke-width: 1.5"/>
   </g>
   <g id="patch_3">
    <path d="M 45 160.2 
L 45 21.6 
" style="fill: none; stroke: #000000; stroke-width: 0.8; stroke-linejoin: miter; stroke-linecap: square"/>
   </g>
   <g id="patch_4">
    <path d="M 324 160.2 
L 324 21.6 
" style="fill: none; stroke: #000000; stroke-width: 0.8; stroke-linejoin: miter; stroke-linecap: square"/>
   </g>
   <g id="patch_5">
    <path d="M 45 160.2 
L 324 160.2 
" style="fill: none; stroke: #000000; stroke-width: 0.8; stroke-linejoin: miter; stroke-linecap: square"/>
   </g>
   <g id="patch_6">
    <path d="M 45 21.6 
L 324 21.6 
" style="fill: none; stroke: #000000; stroke-width: 0.8; stroke-linejoin: miter; stroke-linecap: square"/>
   </g>
   <g id="legend_1">
    <g id="patch_7">
     <path d="M 52 85.348713 
L 183.76495 85.348713 
Q 185.76495 85.348713 185.76495 83.348713 
L 185.76495 28.6 
Q 185.76495 26.6 183.76495 26.6 
L 52 26.6 
Q 50 26.6 50 28.6 
L 50 83.348713 
Q 50 85.348713 52 85.348713 
z
" style="fill: #ffffff; opacity: 0.8; stroke: #cccccc; stroke-linejoin: miter"/>
    </g>
    <g id="line2d_37">
     <path d="M 54 34.1 
L 64 34.1 
L 74 34.1 
" style="fill: none; stroke: #ff7f0e; stroke-opacity: 0.7; stroke-width: 1.5; stroke-linecap: square"/>
    </g>
    <g id="text_11">
     <!-- Python Vogelsang -->
     <g transform="translate(82 37.6) scale(0.1 -0.1)">
      <defs>
       <path id="CMSS17-50" d="M 2106 1856 
C 2874 1856 3501 2447 3501 3139 
C 3501 3818 2899 4416 2067 4416 
L 570 4416 
L 570 0 
L 1107 0 
L 1107 1856 
L 2106 1856 
z
M 1926 4057 
C 2669 4057 2995 3598 2995 3139 
C 2995 2711 2694 2227 1926 2227 
L 1094 2227 
L 1094 4057 
L 1926 4057 
z
" transform="scale(0.015625)"/>
       <path id="CMSS17-79" d="M 2675 2752 
L 2176 2752 
C 1632 1293 1446 701 1434 383 
L 1427 383 
C 1408 695 1126 1459 902 2006 
L 602 2752 
L 83 2752 
L 1216 14 
C 1146 -177 1043 -464 1011 -527 
C 870 -884 774 -884 672 -884 
C 646 -884 442 -877 211 -807 
L 250 -1229 
C 410 -1261 570 -1280 685 -1280 
C 845 -1280 1165 -1280 1459 -495 
L 2675 2752 
z
" transform="scale(0.015625)"/>
       <path id="CMSS17-74" d="M 1069 2380 
L 1901 2380 
L 1901 2752 
L 1069 2752 
L 1069 3520 
L 614 3520 
L 614 2752 
L 109 2752 
L 109 2380 
L 602 2380 
L 602 751 
C 602 384 685 -64 1107 -64 
C 1427 -64 1722 25 2003 172 
L 1901 551 
C 1747 416 1562 339 1363 339 
C 1082 339 1069 699 1069 860 
L 1069 2380 
z
" transform="scale(0.015625)"/>
       <path id="CMSS17-68" d="M 2618 1878 
C 2618 2283 2522 2816 1798 2816 
C 1395 2816 1133 2617 947 2399 
L 947 4416 
L 474 4416 
L 474 0 
L 960 0 
L 960 1556 
C 960 1962 1114 2425 1549 2425 
C 2112 2425 2131 2045 2131 1826 
L 2131 0 
L 2618 0 
L 2618 1878 
z
" transform="scale(0.015625)"/>
       <path id="CMSS17-6f" d="M 2829 1356 
C 2829 2175 2221 2816 1504 2816 
C 768 2816 173 2156 173 1356 
C 173 544 787 -64 1498 -64 
C 2227 -64 2829 563 2829 1356 
z
M 1504 339 
C 1050 339 659 710 659 1407 
C 659 2150 1114 2425 1498 2425 
C 1914 2425 2342 2124 2342 1407 
C 2342 684 1926 339 1504 339 
z
" transform="scale(0.015625)"/>
       <path id="CMSS17-6e" d="M 2618 1878 
C 2618 2283 2522 2816 1798 2816 
C 1389 2816 1120 2604 941 2386 
L 941 2783 
L 474 2783 
L 474 0 
L 960 0 
L 960 1556 
C 960 1962 1114 2425 1549 2425 
C 2112 2425 2131 2045 2131 1826 
L 2131 0 
L 2618 0 
L 2618 1878 
z
" transform="scale(0.015625)"/>
       <path id="CMSS17-56" d="M 3910 4416 
L 3411 4416 
L 2304 1361 
C 2272 1272 2074 687 2035 484 
L 2029 484 
C 1978 725 1773 1291 1664 1603 
L 922 3670 
L 646 4416 
L 83 4416 
L 1715 0 
L 2278 0 
L 3910 4416 
z
" transform="scale(0.015625)"/>
       <path id="CMSS17-67" d="M 2848 2816 
C 2483 2809 2170 2739 1914 2617 
C 1702 2783 1485 2816 1338 2816 
C 781 2816 358 2356 358 1824 
C 358 1481 550 1222 563 1209 
C 448 1049 384 876 384 684 
C 384 460 474 300 544 211 
C 211 6 166 -308 166 -429 
C 166 -896 749 -1280 1498 -1280 
C 2253 -1280 2835 -896 2835 -423 
C 2835 460 1856 467 1587 467 
L 1069 467 
C 973 467 717 467 717 793 
C 717 921 774 1004 781 1011 
C 877 940 1075 832 1338 832 
C 1869 832 2310 1279 2310 1824 
C 2310 2128 2170 2349 2112 2425 
L 2131 2425 
C 2150 2425 2419 2444 2515 2444 
C 2720 2444 2739 2438 2918 2419 
L 2848 2816 
z
M 1338 1184 
C 1120 1184 813 1317 813 1824 
C 813 2375 1165 2463 1331 2463 
C 1549 2463 1856 2330 1856 1824 
C 1856 1272 1504 1184 1338 1184 
z
M 1581 0 
C 1734 0 2381 0 2381 -436 
C 2381 -711 1984 -928 1504 -928 
C 1018 -928 621 -717 621 -429 
C 621 -397 621 0 1062 0 
L 1581 0 
z
" transform="scale(0.015625)"/>
       <path id="CMSS17-65" d="M 2502 1375 
C 2502 1587 2490 2001 2285 2347 
C 2061 2713 1696 2816 1421 2816 
C 755 2816 192 2184 192 1363 
C 192 579 774 -64 1510 -64 
C 1798 -64 2150 19 2470 249 
C 2470 275 2458 414 2451 421 
C 2451 433 2432 629 2432 655 
C 2125 408 1773 326 1517 326 
C 1107 326 666 667 646 1375 
L 2502 1375 
z
M 698 1728 
C 781 2086 1062 2425 1421 2425 
C 1517 2425 1965 2412 2080 1728 
L 698 1728 
z
" transform="scale(0.015625)"/>
       <path id="CMSS17-6c" d="M 947 4416 
L 474 4416 
L 474 0 
L 947 0 
L 947 4416 
z
" transform="scale(0.015625)"/>
       <path id="CMSS17-73" d="M 2061 2623 
C 1683 2803 1389 2816 1197 2816 
C 742 2816 198 2655 198 2009 
C 198 1363 902 1222 1094 1183 
C 1389 1126 1715 1062 1715 742 
C 1715 339 1254 339 1171 339 
C 915 339 563 409 243 639 
L 166 211 
C 531 0 883 -64 1178 -64 
C 1965 -64 2163 416 2163 780 
C 2163 1094 1984 1305 1862 1401 
C 1651 1567 1574 1587 1050 1695 
C 960 1708 646 1779 646 2067 
C 646 2431 1050 2431 1139 2431 
C 1555 2431 1811 2303 1984 2207 
L 2061 2623 
z
" transform="scale(0.015625)"/>
       <path id="CMSS17-61" d="M 2406 1789 
C 2406 2399 1978 2816 1402 2816 
C 1120 2816 813 2764 461 2559 
L 499 2133 
C 659 2250 934 2438 1395 2438 
C 1722 2438 1920 2185 1920 1782 
L 1920 1536 
C 896 1504 256 1209 256 711 
C 256 452 416 -64 947 -64 
C 1043 -64 1562 -52 1933 224 
L 1933 -13 
L 2406 -13 
L 2406 1789 
z
M 1920 824 
C 1920 711 1920 559 1728 446 
C 1562 339 1350 326 1261 326 
C 941 326 723 503 723 723 
C 723 1165 1722 1209 1920 1216 
L 1920 824 
z
" transform="scale(0.015625)"/>
      </defs>
      <use xlink:href="#CMSS17-50" transform="scale(0.996264)"/>
      <use xlink:href="#CMSS17-79" transform="translate(59.735586 0) scale(0.996264)"/>
      <use xlink:href="#CMSS17-74" transform="translate(102.735728 0) scale(0.996264)"/>
      <use xlink:href="#CMSS17-68" transform="translate(136.567295 0) scale(0.996264)"/>
      <use xlink:href="#CMSS17-6f" transform="translate(184.772238 0) scale(0.996264)"/>
      <use xlink:href="#CMSS17-6e" transform="translate(231.615861 0) scale(0.996264)"/>
      <use xlink:href="#CMSS17-56" transform="translate(311.049917 0) scale(0.996264)"/>
      <use xlink:href="#CMSS17-6f" transform="translate(370.665318 0) scale(0.996264)"/>
      <use xlink:href="#CMSS17-67" transform="translate(417.508942 0) scale(0.996264)"/>
      <use xlink:href="#CMSS17-65" transform="translate(464.352565 0) scale(0.996264)"/>
      <use xlink:href="#CMSS17-6c" transform="translate(505.991387 0) scale(0.996264)"/>
      <use xlink:href="#CMSS17-73" transform="translate(528.17211 0) scale(0.996264)"/>
      <use xlink:href="#CMSS17-61" transform="translate(564.085652 0) scale(0.996264)"/>
      <use xlink:href="#CMSS17-6e" transform="translate(609.007573 0) scale(0.996264)"/>
      <use xlink:href="#CMSS17-67" transform="translate(657.212516 0) scale(0.996264)"/>
     </g>
    </g>
    <g id="line2d_38">
     <path d="M 54 48.037178 
L 64 48.037178 
L 74 48.037178 
" style="fill: none; stroke-dasharray: 1.5,2.475; stroke-dashoffset: 0; stroke: #2ca02c; stroke-opacity: 0.7; stroke-width: 1.5"/>
    </g>
    <g id="text_12">
     <!-- Mathematica Hirai -->
     <g transform="translate(82 51.537178) scale(0.1 -0.1)">
      <defs>
       <path id="CMSS17-4d" d="M 3194 2373 
L 2886 1476 
C 2835 1311 2662 795 2624 592 
L 2618 592 
C 2598 719 2560 853 2458 1177 
C 2400 1368 2336 1565 2272 1743 
L 1325 4416 
L 576 4416 
L 576 0 
L 1075 0 
L 1075 3899 
L 1082 3899 
C 1082 3893 1139 3613 1530 2500 
L 2374 102 
L 2848 102 
L 3610 2233 
C 3661 2379 3821 2843 3891 3066 
C 3955 3257 4115 3728 4154 3912 
L 4160 3912 
L 4160 0 
L 4666 0 
L 4666 4416 
L 3923 4416 
L 3194 2373 
z
" transform="scale(0.015625)"/>
       <path id="CMSS17-6d" d="M 4288 1878 
C 4288 2309 4179 2816 3462 2816 
C 2982 2816 2694 2515 2566 2328 
C 2451 2668 2182 2816 1798 2816 
C 1363 2816 1088 2566 941 2386 
L 941 2783 
L 474 2783 
L 474 0 
L 960 0 
L 960 1556 
C 960 1936 1101 2425 1555 2425 
C 2138 2425 2138 2013 2138 1826 
L 2138 0 
L 2624 0 
L 2624 1556 
C 2624 1936 2765 2425 3219 2425 
C 3802 2425 3802 2013 3802 1826 
L 3802 0 
L 4288 0 
L 4288 1878 
z
" transform="scale(0.015625)"/>
       <path id="CMSS17-69" d="M 979 4224 
L 442 4224 
L 442 3686 
L 979 3686 
L 979 4224 
z
M 947 2752 
L 474 2752 
L 474 0 
L 947 0 
L 947 2752 
z
" transform="scale(0.015625)"/>
       <path id="CMSS17-63" d="M 2464 2540 
C 2464 2585 2170 2713 2093 2739 
C 1882 2816 1613 2816 1542 2816 
C 710 2816 211 2092 211 1363 
C 211 595 768 -64 1517 -64 
C 1946 -64 2253 76 2502 243 
L 2464 665 
C 2189 454 1869 339 1523 339 
C 1024 339 698 774 698 1369 
C 698 1830 909 2412 1549 2412 
C 1901 2412 2099 2342 2394 2143 
L 2464 2540 
z
" transform="scale(0.015625)"/>
       <path id="CMSS17-48" d="M 3674 4416 
L 3136 4416 
L 3136 2496 
L 1101 2496 
L 1101 4416 
L 563 4416 
L 563 0 
L 1101 0 
L 1101 2105 
L 3136 2105 
L 3136 0 
L 3674 0 
L 3674 4416 
z
" transform="scale(0.015625)"/>
       <path id="CMSS17-72" d="M 954 1369 
C 954 1974 1395 2379 1958 2392 
L 1958 2816 
C 1549 2809 1165 2604 934 2270 
L 934 2783 
L 480 2783 
L 480 0 
L 954 0 
L 954 1369 
z
" transform="scale(0.015625)"/>
      </defs>
      <use xlink:href="#CMSS17-4d" transform="scale(0.996264)"/>
      <use xlink:href="#CMSS17-61" transform="translate(81.67603 0) scale(0.996264)"/>
      <use xlink:href="#CMSS17-74" transform="translate(126.597951 0) scale(0.996264)"/>
      <use xlink:href="#CMSS17-68" transform="translate(160.429517 0) scale(0.996264)"/>
      <use xlink:href="#CMSS17-65" transform="translate(208.63446 0) scale(0.996264)"/>
      <use xlink:href="#CMSS17-6d" transform="translate(250.273282 0) scale(0.996264)"/>
      <use xlink:href="#CMSS17-61" transform="translate(324.502537 0) scale(0.996264)"/>
      <use xlink:href="#CMSS17-74" transform="translate(369.424457 0) scale(0.996264)"/>
      <use xlink:href="#CMSS17-69" transform="translate(403.256024 0) scale(0.996264)"/>
      <use xlink:href="#CMSS17-63" transform="translate(425.436747 0) scale(0.996264)"/>
      <use xlink:href="#CMSS17-61" transform="translate(467.075569 0) scale(0.996264)"/>
      <use xlink:href="#CMSS17-48" transform="translate(543.226603 0) scale(0.996264)"/>
      <use xlink:href="#CMSS17-69" transform="translate(609.288122 0) scale(0.996264)"/>
      <use xlink:href="#CMSS17-72" transform="translate(631.468845 0) scale(0.996264)"/>
      <use xlink:href="#CMSS17-61" transform="translate(663.378617 0) scale(0.996264)"/>
      <use xlink:href="#CMSS17-69" transform="translate(708.300538 0) scale(0.996264)"/>
     </g>
    </g>
    <g id="line2d_39">
     <path d="M 54 61.974357 
L 64 61.974357 
L 74 61.974357 
" style="fill: none; stroke-dasharray: 1.5,2.475; stroke-dashoffset: 0; stroke: #d62728; stroke-opacity: 0.7; stroke-width: 1.5"/>
    </g>
    <g id="text_13">
     <!-- Mathematica Vogelsang -->
     <g transform="translate(82 65.474357) scale(0.1 -0.1)">
      <use xlink:href="#CMSS17-4d" transform="scale(0.996264)"/>
      <use xlink:href="#CMSS17-61" transform="translate(81.67603 0) scale(0.996264)"/>
      <use xlink:href="#CMSS17-74" transform="translate(126.597951 0) scale(0.996264)"/>
      <use xlink:href="#CMSS17-68" transform="translate(160.429517 0) scale(0.996264)"/>
      <use xlink:href="#CMSS17-65" transform="translate(208.63446 0) scale(0.996264)"/>
      <use xlink:href="#CMSS17-6d" transform="translate(250.273282 0) scale(0.996264)"/>
      <use xlink:href="#CMSS17-61" transform="translate(324.502537 0) scale(0.996264)"/>
      <use xlink:href="#CMSS17-74" transform="translate(369.424457 0) scale(0.996264)"/>
      <use xlink:href="#CMSS17-69" transform="translate(403.256024 0) scale(0.996264)"/>
      <use xlink:href="#CMSS17-63" transform="translate(425.436747 0) scale(0.996264)"/>
      <use xlink:href="#CMSS17-61" transform="translate(467.075569 0) scale(0.996264)"/>
      <use xlink:href="#CMSS17-56" transform="translate(543.226603 0) scale(0.996264)"/>
      <use xlink:href="#CMSS17-6f" transform="translate(602.842004 0) scale(0.996264)"/>
      <use xlink:href="#CMSS17-67" transform="translate(649.685627 0) scale(0.996264)"/>
      <use xlink:href="#CMSS17-65" transform="translate(696.529251 0) scale(0.996264)"/>
      <use xlink:href="#CMSS17-6c" transform="translate(738.168073 0) scale(0.996264)"/>
      <use xlink:href="#CMSS17-73" transform="translate(760.348796 0) scale(0.996264)"/>
      <use xlink:href="#CMSS17-61" transform="translate(796.262338 0) scale(0.996264)"/>
      <use xlink:href="#CMSS17-6e" transform="translate(841.184258 0) scale(0.996264)"/>
      <use xlink:href="#CMSS17-67" transform="translate(889.389202 0) scale(0.996264)"/>
     </g>
    </g>
    <g id="line2d_40">
     <path d="M 54 75.911535 
L 64 75.911535 
L 74 75.911535 
" style="fill: none; stroke-dasharray: 9.6,2.4,1.5,2.4; stroke-dashoffset: 0; stroke: #9467bd; stroke-opacity: 0.7; stroke-width: 1.5"/>
    </g>
    <g id="text_14">
     <!-- APFEL++ -->
     <g transform="translate(82 79.411535) scale(0.1 -0.1)">
      <defs>
       <path id="CMSS17-41" d="M 2272 4416 
L 1722 4416 
L 166 0 
L 653 0 
L 1101 1280 
L 2816 1280 
L 3270 0 
L 3827 0 
L 2272 4416 
z
M 2694 1638 
L 1222 1638 
C 1530 2530 1914 3638 1958 3924 
L 1965 3924 
C 2010 3663 2138 3281 2246 2956 
L 2694 1638 
z
" transform="scale(0.015625)"/>
       <path id="CMSS17-46" d="M 2918 1984 
L 2918 2374 
L 1101 2374 
L 1101 3993 
L 1882 3993 
C 1958 3993 2035 3987 2112 3987 
L 3168 3987 
L 3168 4403 
L 563 4403 
L 563 0 
L 1101 0 
L 1101 1984 
L 2918 1984 
z
" transform="scale(0.015625)"/>
       <path id="CMSS17-45" d="M 1958 435 
C 1446 435 1216 435 1101 428 
L 1101 2105 
L 3085 2105 
L 3085 2496 
L 1101 2496 
L 1101 3993 
L 1926 3993 
C 2003 3993 2080 3987 2157 3987 
L 3251 3987 
L 3251 4403 
L 563 4403 
L 563 0 
L 3334 0 
L 3334 441 
L 1958 435 
z
" transform="scale(0.015625)"/>
       <path id="CMSS17-4c" d="M 1670 416 
C 1594 416 1517 409 1440 409 
L 1101 409 
L 1101 4416 
L 563 4416 
L 563 0 
L 3002 0 
L 3002 416 
L 1670 416 
z
" transform="scale(0.015625)"/>
       <path id="CMSS17-2b" d="M 2451 1472 
L 4141 1472 
C 4230 1472 4339 1472 4339 1580 
C 4339 1696 4237 1696 4141 1696 
L 2451 1696 
L 2451 3385 
C 2451 3475 2451 3584 2342 3584 
C 2227 3584 2227 3481 2227 3385 
L 2227 1696 
L 531 1696 
C 442 1696 333 1696 333 1587 
C 333 1472 435 1472 531 1472 
L 2227 1472 
L 2227 -194 
C 2227 -282 2227 -391 2336 -391 
C 2451 -391 2451 -289 2451 -194 
L 2451 1472 
z
" transform="scale(0.015625)"/>
      </defs>
      <use xlink:href="#CMSS17-41" transform="scale(0.996264)"/>
      <use xlink:href="#CMSS17-50" transform="translate(62.217855 0) scale(0.996264)"/>
      <use xlink:href="#CMSS17-46" transform="translate(121.953441 0) scale(0.996264)"/>
      <use xlink:href="#CMSS17-45" transform="translate(175.243 0) scale(0.996264)"/>
      <use xlink:href="#CMSS17-4c" transform="translate(231.135014 0) scale(0.996264)"/>
      <use xlink:href="#CMSS17-2b" transform="translate(281.822119 0) scale(0.996264)"/>
      <use xlink:href="#CMSS17-2b" transform="translate(354.690054 0) scale(0.996264)"/>
     </g>
    </g>
   </g>
  </g>
 </g>
 <defs>
  <clipPath id="pcad340d46c">
   <rect x="45" y="21.6" width="279" height="138.6"/>
  </clipPath>
 </defs>
</svg>
