<?xml version="1.0" encoding="utf-8" standalone="no"?>
<!DOCTYPE svg PUBLIC "-//W3C//DTD SVG 1.1//EN"
  "http://www.w3.org/Graphics/SVG/1.1/DTD/svg11.dtd">
<svg xmlns:xlink="http://www.w3.org/1999/xlink" width="360pt" height="216pt" viewBox="0 0 360 216" xmlns="http://www.w3.org/2000/svg" version="1.1">
 <metadata>
  <rdf:RDF xmlns:dc="http://purl.org/dc/elements/1.1/" xmlns:cc="http://creativecommons.org/ns#" xmlns:rdf="http://www.w3.org/1999/02/22-rdf-syntax-ns#">
   <cc:Work>
    <dc:type rdf:resource="http://purl.org/dc/dcmitype/StillImage"/>
    <dc:date>2025-06-05T07:24:41.320817</dc:date>
    <dc:format>image/svg+xml</dc:format>
    <dc:creator>
     <cc:Agent>
      <dc:title>Matplotlib v3.10.0, https://matplotlib.org/</dc:title>
     </cc:Agent>
    </dc:creator>
   </cc:Work>
  </rdf:RDF>
 </metadata>
 <defs>
  <style type="text/css">*{stroke-linejoin: round; stroke-linecap: butt}</style>
 </defs>
 <g id="figure_1">
  <g id="patch_1">
   <path d="M 0 216 
L 360 216 
L 360 0 
L 0 0 
z
" style="fill: #ffffff"/>
  </g>
  <g id="axes_1">
   <g id="patch_2">
    <path d="M 45 192.24 
L 324 192.24 
L 324 25.92 
L 45 25.92 
z
" style="fill: #ffffff"/>
   </g>
   <g id="matplotlib.axis_1">
    <g id="xtick_1">
     <g id="line2d_1">
      <defs>
       <path id="mefb67ae51c" d="M 0 0 
L 0 3.5 
" style="stroke: #000000; stroke-width: 0.8"/>
      </defs>
      <g>
       <use xlink:href="#mefb67ae51c" x="45" y="192.24" style="stroke: #000000; stroke-width: 0.8"/>
      </g>
     </g>
     <g id="text_1">
      <!-- $\mathdefault{10^{-3}}$ -->
      <g transform="translate(34.919713 206.158498) scale(0.1 -0.1)">
       <defs>
        <path id="CMR17-31" d="M 1702 4083 
C 1702 4217 1696 4224 1606 4224 
C 1357 3927 979 3833 621 3820 
C 602 3820 570 3820 563 3808 
C 557 3795 557 3782 557 3648 
C 755 3648 1088 3686 1344 3839 
L 1344 467 
C 1344 243 1331 166 781 166 
L 589 166 
L 589 0 
C 896 6 1216 12 1523 12 
C 1830 12 2150 6 2458 0 
L 2458 166 
L 2266 166 
C 1715 166 1702 236 1702 467 
L 1702 4083 
z
" transform="scale(0.015625)"/>
        <path id="CMR17-30" d="M 2688 2038 
C 2688 2430 2682 3099 2413 3613 
C 2176 4063 1798 4224 1466 4224 
C 1158 4224 768 4082 525 3620 
C 269 3137 243 2539 243 2038 
C 243 1671 250 1112 448 623 
C 723 -39 1216 -128 1466 -128 
C 1760 -128 2208 -7 2470 604 
C 2662 1048 2688 1568 2688 2038 
z
M 1466 -26 
C 1056 -26 813 328 723 816 
C 653 1196 653 1749 653 2109 
C 653 2604 653 3015 736 3407 
C 858 3954 1216 4121 1466 4121 
C 1728 4121 2067 3947 2189 3420 
C 2272 3054 2278 2623 2278 2109 
C 2278 1691 2278 1176 2202 797 
C 2067 96 1690 -26 1466 -26 
z
" transform="scale(0.015625)"/>
        <path id="CMSY10-0" d="M 4218 1472 
C 4326 1472 4442 1472 4442 1600 
C 4442 1728 4326 1728 4218 1728 
L 755 1728 
C 646 1728 531 1728 531 1600 
C 531 1472 646 1472 755 1472 
L 4218 1472 
z
" transform="scale(0.015625)"/>
        <path id="CMR17-33" d="M 1414 2176 
C 1984 2176 2234 1673 2234 1094 
C 2234 322 1824 25 1453 25 
C 1114 25 563 193 390 691 
C 422 678 454 678 486 678 
C 640 678 755 780 755 947 
C 755 1132 614 1216 486 1216 
C 378 1216 211 1164 211 927 
C 211 335 787 -128 1466 -128 
C 2176 -128 2720 432 2720 1087 
C 2720 1718 2208 2176 1600 2246 
C 2086 2347 2554 2776 2554 3353 
C 2554 3856 2048 4224 1472 4224 
C 890 4224 378 3862 378 3347 
C 378 3123 544 3084 627 3084 
C 762 3084 877 3167 877 3334 
C 877 3500 762 3584 627 3584 
C 602 3584 570 3584 544 3571 
C 730 3999 1235 4076 1459 4076 
C 1683 4076 2106 3966 2106 3347 
C 2106 3167 2080 2851 1862 2574 
C 1670 2329 1453 2316 1242 2297 
C 1210 2297 1062 2284 1037 2284 
C 992 2278 966 2272 966 2227 
C 966 2182 973 2176 1101 2176 
L 1414 2176 
z
" transform="scale(0.015625)"/>
       </defs>
       <use xlink:href="#CMR17-31" transform="scale(0.996264)"/>
       <use xlink:href="#CMR17-30" transform="translate(45.690477 0) scale(0.996264)"/>
       <use xlink:href="#CMSY10-0" transform="translate(91.380954 36.153639) scale(0.697382)"/>
       <use xlink:href="#CMR17-33" transform="translate(145.621947 36.153639) scale(0.697382)"/>
      </g>
     </g>
    </g>
    <g id="xtick_2">
     <g id="line2d_2">
      <g>
       <use xlink:href="#mefb67ae51c" x="138" y="192.24" style="stroke: #000000; stroke-width: 0.8"/>
      </g>
     </g>
     <g id="text_2">
      <!-- $\mathdefault{10^{-2}}$ -->
      <g transform="translate(127.919713 206.158498) scale(0.1 -0.1)">
       <defs>
        <path id="CMR17-32" d="M 2669 990 
L 2554 990 
C 2490 537 2438 460 2413 422 
C 2381 371 1920 371 1830 371 
L 602 371 
C 832 620 1280 1073 1824 1596 
C 2214 1966 2669 2400 2669 3033 
C 2669 3788 2067 4224 1395 4224 
C 691 4224 262 3603 262 3027 
C 262 2777 448 2745 525 2745 
C 589 2745 781 2783 781 3007 
C 781 3206 614 3264 525 3264 
C 486 3264 448 3257 422 3244 
C 544 3788 915 4057 1306 4057 
C 1862 4057 2227 3616 2227 3033 
C 2227 2477 1901 1998 1536 1583 
L 262 147 
L 262 0 
L 2515 0 
L 2669 990 
z
" transform="scale(0.015625)"/>
       </defs>
       <use xlink:href="#CMR17-31" transform="scale(0.996264)"/>
       <use xlink:href="#CMR17-30" transform="translate(45.690477 0) scale(0.996264)"/>
       <use xlink:href="#CMSY10-0" transform="translate(91.380954 36.153639) scale(0.697382)"/>
       <use xlink:href="#CMR17-32" transform="translate(145.621947 36.153639) scale(0.697382)"/>
      </g>
     </g>
    </g>
    <g id="xtick_3">
     <g id="line2d_3">
      <g>
       <use xlink:href="#mefb67ae51c" x="231" y="192.24" style="stroke: #000000; stroke-width: 0.8"/>
      </g>
     </g>
     <g id="text_3">
      <!-- $\mathdefault{10^{-1}}$ -->
      <g transform="translate(220.919713 206.158498) scale(0.1 -0.1)">
       <use xlink:href="#CMR17-31" transform="scale(0.996264)"/>
       <use xlink:href="#CMR17-30" transform="translate(45.690477 0) scale(0.996264)"/>
       <use xlink:href="#CMSY10-0" transform="translate(91.380954 36.153639) scale(0.697382)"/>
       <use xlink:href="#CMR17-31" transform="translate(145.621947 36.153639) scale(0.697382)"/>
      </g>
     </g>
    </g>
    <g id="xtick_4">
     <g id="line2d_4">
      <g>
       <use xlink:href="#mefb67ae51c" x="324" y="192.24" style="stroke: #000000; stroke-width: 0.8"/>
      </g>
     </g>
     <g id="text_4">
      <!-- $\mathdefault{10^{0}}$ -->
      <g transform="translate(317.033046 206.158498) scale(0.1 -0.1)">
       <use xlink:href="#CMR17-31" transform="scale(0.996264)"/>
       <use xlink:href="#CMR17-30" transform="translate(45.690477 0) scale(0.996264)"/>
       <use xlink:href="#CMR17-30" transform="translate(91.380954 36.153639) scale(0.697382)"/>
      </g>
     </g>
    </g>
    <g id="xtick_5">
     <g id="line2d_5">
      <defs>
       <path id="m452118ed0b" d="M 0 0 
L 0 2 
" style="stroke: #000000; stroke-width: 0.6"/>
      </defs>
      <g>
       <use xlink:href="#m452118ed0b" x="72.99579" y="192.24" style="stroke: #000000; stroke-width: 0.6"/>
      </g>
     </g>
    </g>
    <g id="xtick_6">
     <g id="line2d_6">
      <g>
       <use xlink:href="#m452118ed0b" x="89.372277" y="192.24" style="stroke: #000000; stroke-width: 0.6"/>
      </g>
     </g>
    </g>
    <g id="xtick_7">
     <g id="line2d_7">
      <g>
       <use xlink:href="#m452118ed0b" x="100.991579" y="192.24" style="stroke: #000000; stroke-width: 0.6"/>
      </g>
     </g>
    </g>
    <g id="xtick_8">
     <g id="line2d_8">
      <g>
       <use xlink:href="#m452118ed0b" x="110.00421" y="192.24" style="stroke: #000000; stroke-width: 0.6"/>
      </g>
     </g>
    </g>
    <g id="xtick_9">
     <g id="line2d_9">
      <g>
       <use xlink:href="#m452118ed0b" x="117.368066" y="192.24" style="stroke: #000000; stroke-width: 0.6"/>
      </g>
     </g>
    </g>
    <g id="xtick_10">
     <g id="line2d_10">
      <g>
       <use xlink:href="#m452118ed0b" x="123.594118" y="192.24" style="stroke: #000000; stroke-width: 0.6"/>
      </g>
     </g>
    </g>
    <g id="xtick_11">
     <g id="line2d_11">
      <g>
       <use xlink:href="#m452118ed0b" x="128.987369" y="192.24" style="stroke: #000000; stroke-width: 0.6"/>
      </g>
     </g>
    </g>
    <g id="xtick_12">
     <g id="line2d_12">
      <g>
       <use xlink:href="#m452118ed0b" x="133.744553" y="192.24" style="stroke: #000000; stroke-width: 0.6"/>
      </g>
     </g>
    </g>
    <g id="xtick_13">
     <g id="line2d_13">
      <g>
       <use xlink:href="#m452118ed0b" x="165.99579" y="192.24" style="stroke: #000000; stroke-width: 0.6"/>
      </g>
     </g>
    </g>
    <g id="xtick_14">
     <g id="line2d_14">
      <g>
       <use xlink:href="#m452118ed0b" x="182.372277" y="192.24" style="stroke: #000000; stroke-width: 0.6"/>
      </g>
     </g>
    </g>
    <g id="xtick_15">
     <g id="line2d_15">
      <g>
       <use xlink:href="#m452118ed0b" x="193.991579" y="192.24" style="stroke: #000000; stroke-width: 0.6"/>
      </g>
     </g>
    </g>
    <g id="xtick_16">
     <g id="line2d_16">
      <g>
       <use xlink:href="#m452118ed0b" x="203.00421" y="192.24" style="stroke: #000000; stroke-width: 0.6"/>
      </g>
     </g>
    </g>
    <g id="xtick_17">
     <g id="line2d_17">
      <g>
       <use xlink:href="#m452118ed0b" x="210.368066" y="192.24" style="stroke: #000000; stroke-width: 0.6"/>
      </g>
     </g>
    </g>
    <g id="xtick_18">
     <g id="line2d_18">
      <g>
       <use xlink:href="#m452118ed0b" x="216.594118" y="192.24" style="stroke: #000000; stroke-width: 0.6"/>
      </g>
     </g>
    </g>
    <g id="xtick_19">
     <g id="line2d_19">
      <g>
       <use xlink:href="#m452118ed0b" x="221.987369" y="192.24" style="stroke: #000000; stroke-width: 0.6"/>
      </g>
     </g>
    </g>
    <g id="xtick_20">
     <g id="line2d_20">
      <g>
       <use xlink:href="#m452118ed0b" x="226.744553" y="192.24" style="stroke: #000000; stroke-width: 0.6"/>
      </g>
     </g>
    </g>
    <g id="xtick_21">
     <g id="line2d_21">
      <g>
       <use xlink:href="#m452118ed0b" x="258.99579" y="192.24" style="stroke: #000000; stroke-width: 0.6"/>
      </g>
     </g>
    </g>
    <g id="xtick_22">
     <g id="line2d_22">
      <g>
       <use xlink:href="#m452118ed0b" x="275.372277" y="192.24" style="stroke: #000000; stroke-width: 0.6"/>
      </g>
     </g>
    </g>
    <g id="xtick_23">
     <g id="line2d_23">
      <g>
       <use xlink:href="#m452118ed0b" x="286.991579" y="192.24" style="stroke: #000000; stroke-width: 0.6"/>
      </g>
     </g>
    </g>
    <g id="xtick_24">
     <g id="line2d_24">
      <g>
       <use xlink:href="#m452118ed0b" x="296.00421" y="192.24" style="stroke: #000000; stroke-width: 0.6"/>
      </g>
     </g>
    </g>
    <g id="xtick_25">
     <g id="line2d_25">
      <g>
       <use xlink:href="#m452118ed0b" x="303.368066" y="192.24" style="stroke: #000000; stroke-width: 0.6"/>
      </g>
     </g>
    </g>
    <g id="xtick_26">
     <g id="line2d_26">
      <g>
       <use xlink:href="#m452118ed0b" x="309.594118" y="192.24" style="stroke: #000000; stroke-width: 0.6"/>
      </g>
     </g>
    </g>
    <g id="xtick_27">
     <g id="line2d_27">
      <g>
       <use xlink:href="#m452118ed0b" x="314.987369" y="192.24" style="stroke: #000000; stroke-width: 0.6"/>
      </g>
     </g>
    </g>
    <g id="xtick_28">
     <g id="line2d_28">
      <g>
       <use xlink:href="#m452118ed0b" x="319.744553" y="192.24" style="stroke: #000000; stroke-width: 0.6"/>
      </g>
     </g>
    </g>
    <g id="text_5">
     <!-- $x$ -->
     <g transform="translate(178.402253 227.31637) scale(0.22 -0.22)">
      <defs>
       <path id="CMMI12-78" d="M 3034 2624 
C 2829 2585 2752 2431 2752 2310 
C 2752 2156 2874 2105 2963 2105 
C 3155 2105 3290 2271 3290 2444 
C 3290 2694 2982 2816 2714 2816 
C 2323 2816 2106 2451 2048 2329 
C 1901 2790 1504 2816 1389 2816 
C 736 2816 390 1993 390 1849 
C 390 1823 416 1790 461 1790 
C 512 1790 525 1829 538 1855 
C 755 2572 1184 2687 1370 2687 
C 1658 2687 1715 2438 1715 2284 
C 1715 2143 1677 1993 1600 1678 
L 1382 778 
C 1286 390 1101 64 762 64 
C 730 64 570 64 435 126 
C 666 166 717 358 717 435 
C 717 563 621 640 499 640 
C 346 640 179 505 179 300 
C 179 57 480 -64 755 -64 
C 1062 -64 1280 153 1414 415 
C 1517 64 1837 -64 2074 -64 
C 2726 -64 3072 751 3072 896 
C 3072 929 3046 955 3008 955 
C 2950 955 2944 922 2925 870 
C 2752 300 2381 64 2093 64 
C 1869 64 1747 204 1747 467 
C 1747 607 1773 712 1875 1146 
L 2099 2039 
C 2195 2425 2413 2687 2707 2687 
C 2720 2687 2899 2687 3034 2624 
z
" transform="scale(0.015625)"/>
      </defs>
      <use xlink:href="#CMMI12-78" transform="scale(0.996264)"/>
     </g>
    </g>
   </g>
   <g id="matplotlib.axis_2">
    <g id="ytick_1">
     <g id="line2d_29">
      <defs>
       <path id="m68d25df0a3" d="M 0 0 
L -3.5 0 
" style="stroke: #000000; stroke-width: 0.8"/>
      </defs>
      <g>
       <use xlink:href="#m68d25df0a3" x="45" y="192.24" style="stroke: #000000; stroke-width: 0.8"/>
      </g>
     </g>
     <g id="text_6">
      <!-- $\mathdefault{0.0}$ -->
      <g transform="translate(25.269921 195.699249) scale(0.1 -0.1)">
       <defs>
        <path id="CMMI12-3a" d="M 1178 307 
C 1178 492 1024 620 870 620 
C 685 620 557 467 557 313 
C 557 128 710 0 864 0 
C 1050 0 1178 153 1178 307 
z
" transform="scale(0.015625)"/>
       </defs>
       <use xlink:href="#CMR17-30" transform="scale(0.996264)"/>
       <use xlink:href="#CMMI12-3a" transform="translate(45.690477 0) scale(0.996264)"/>
       <use xlink:href="#CMR17-30" transform="translate(72.787654 0) scale(0.996264)"/>
      </g>
     </g>
    </g>
    <g id="ytick_2">
     <g id="line2d_30">
      <g>
       <use xlink:href="#m68d25df0a3" x="45" y="152.64" style="stroke: #000000; stroke-width: 0.8"/>
      </g>
     </g>
     <g id="text_7">
      <!-- $\mathdefault{0.5}$ -->
      <g transform="translate(25.269921 156.099249) scale(0.1 -0.1)">
       <defs>
        <path id="CMR17-35" d="M 730 3750 
C 794 3724 1056 3641 1325 3641 
C 1920 3641 2246 3961 2432 4140 
C 2432 4191 2432 4224 2394 4224 
C 2387 4224 2374 4224 2323 4198 
C 2099 4102 1837 4032 1517 4032 
C 1325 4032 1037 4055 723 4191 
C 653 4224 640 4224 634 4224 
C 602 4224 595 4217 595 4090 
L 595 2231 
C 595 2113 595 2080 659 2080 
C 691 2080 704 2093 736 2139 
C 941 2435 1222 2560 1542 2560 
C 1766 2560 2246 2415 2246 1293 
C 2246 1087 2246 716 2054 422 
C 1894 159 1645 25 1370 25 
C 947 25 518 319 403 812 
C 429 806 480 793 506 793 
C 589 793 749 838 749 1036 
C 749 1209 627 1280 506 1280 
C 358 1280 262 1190 262 1011 
C 262 454 704 -128 1382 -128 
C 2042 -128 2669 441 2669 1267 
C 2669 2054 2170 2662 1549 2662 
C 1222 2662 947 2540 730 2304 
L 730 3750 
z
" transform="scale(0.015625)"/>
       </defs>
       <use xlink:href="#CMR17-30" transform="scale(0.996264)"/>
       <use xlink:href="#CMMI12-3a" transform="translate(45.690477 0) scale(0.996264)"/>
       <use xlink:href="#CMR17-35" transform="translate(72.787654 0) scale(0.996264)"/>
      </g>
     </g>
    </g>
    <g id="ytick_3">
     <g id="line2d_31">
      <g>
       <use xlink:href="#m68d25df0a3" x="45" y="113.04" style="stroke: #000000; stroke-width: 0.8"/>
      </g>
     </g>
     <g id="text_8">
      <!-- $\mathdefault{1.0}$ -->
      <g transform="translate(25.269921 116.499249) scale(0.1 -0.1)">
       <use xlink:href="#CMR17-31" transform="scale(0.996264)"/>
       <use xlink:href="#CMMI12-3a" transform="translate(45.690477 0) scale(0.996264)"/>
       <use xlink:href="#CMR17-30" transform="translate(72.787654 0) scale(0.996264)"/>
      </g>
     </g>
    </g>
    <g id="ytick_4">
     <g id="line2d_32">
      <g>
       <use xlink:href="#m68d25df0a3" x="45" y="73.44" style="stroke: #000000; stroke-width: 0.8"/>
      </g>
     </g>
     <g id="text_9">
      <!-- $\mathdefault{1.5}$ -->
      <g transform="translate(25.269921 76.899249) scale(0.1 -0.1)">
       <use xlink:href="#CMR17-31" transform="scale(0.996264)"/>
       <use xlink:href="#CMMI12-3a" transform="translate(45.690477 0) scale(0.996264)"/>
       <use xlink:href="#CMR17-35" transform="translate(72.787654 0) scale(0.996264)"/>
      </g>
     </g>
    </g>
    <g id="ytick_5">
     <g id="line2d_33">
      <g>
       <use xlink:href="#m68d25df0a3" x="45" y="33.84" style="stroke: #000000; stroke-width: 0.8"/>
      </g>
     </g>
     <g id="text_10">
      <!-- $\mathdefault{2.0}$ -->
      <g transform="translate(25.269921 37.299249) scale(0.1 -0.1)">
       <use xlink:href="#CMR17-32" transform="scale(0.996264)"/>
       <use xlink:href="#CMMI12-3a" transform="translate(45.690477 0) scale(0.996264)"/>
       <use xlink:href="#CMR17-30" transform="translate(72.787654 0) scale(0.996264)"/>
      </g>
     </g>
    </g>
    <g id="text_11">
     <!-- $x(\Delta_T \bar u-\Delta_T \bar d)$ -->
     <g transform="translate(15.808802 176.328558) rotate(-90) scale(0.22 -0.22)">
      <defs>
       <path id="CMR17-28" d="M 1958 -1562 
C 1958 -1556 1958 -1543 1939 -1524 
C 1645 -1223 858 -403 858 1596 
C 858 3595 1632 4408 1946 4729 
C 1946 4735 1958 4748 1958 4767 
C 1958 4787 1939 4800 1914 4800 
C 1843 4800 1299 4325 986 3620 
C 666 2909 576 2218 576 1603 
C 576 1141 621 360 1005 -467 
C 1312 -1133 1837 -1600 1914 -1600 
C 1946 -1600 1958 -1588 1958 -1562 
z
" transform="scale(0.015625)"/>
       <path id="CMR17-1" d="M 2598 4435 
C 2547 4544 2522 4544 2470 4544 
C 2394 4544 2387 4531 2342 4441 
L 269 108 
C 262 96 237 38 237 32 
C 237 6 243 0 358 0 
L 4576 0 
C 4691 0 4698 6 4698 32 
C 4698 38 4672 96 4666 108 
L 2598 4435 
z
M 2310 4056 
L 4083 358 
L 531 358 
L 2310 4056 
z
" transform="scale(0.015625)"/>
       <path id="CMMI12-54" d="M 2669 3886 
C 2707 4038 2720 4096 2816 4121 
C 2867 4134 3078 4134 3213 4134 
C 3853 4134 4154 4109 4154 3612 
C 4154 3516 4128 3274 4090 3038 
L 4083 2962 
C 4083 2937 4109 2898 4147 2898 
C 4211 2898 4211 2930 4230 3032 
L 4416 4159 
C 4429 4217 4429 4230 4429 4249 
C 4429 4319 4390 4319 4262 4319 
L 762 4319 
C 614 4319 608 4313 570 4198 
L 179 3051 
C 173 3038 154 2968 154 2962 
C 154 2930 179 2898 218 2898 
C 269 2898 282 2924 307 3007 
C 576 3777 710 4134 1562 4134 
L 1990 4134 
C 2144 4134 2208 4134 2208 4064 
C 2208 4045 2208 4032 2176 3917 
L 1318 497 
C 1254 249 1242 185 563 185 
C 403 185 358 185 358 64 
C 358 0 429 0 461 0 
C 621 0 787 12 947 12 
L 1946 12 
C 2106 12 2278 0 2438 0 
C 2509 0 2573 0 2573 121 
C 2573 185 2528 185 2362 185 
C 1786 185 1786 242 1786 338 
C 1786 344 1786 389 1811 491 
L 2669 3886 
z
" transform="scale(0.015625)"/>
       <path id="CMR17-16" d="M 2554 3520 
L 2554 3667 
L 378 3667 
L 378 3520 
L 2554 3520 
z
" transform="scale(0.015625)"/>
       <path id="CMMI12-75" d="M 2182 370 
C 2266 12 2573 -64 2726 -64 
C 2931 -64 3085 70 3187 287 
C 3296 517 3379 893 3379 913 
C 3379 944 3354 970 3315 970 
C 3258 970 3251 938 3226 842 
C 3110 402 2995 64 2739 64 
C 2547 64 2547 274 2547 357 
C 2547 504 2566 568 2630 836 
C 2675 1008 2720 1181 2758 1359 
L 3021 2400 
C 3066 2560 3066 2572 3066 2591 
C 3066 2687 2989 2752 2893 2752 
C 2707 2752 2662 2591 2624 2432 
C 2560 2183 2214 810 2170 587 
C 2163 587 1914 64 1446 64 
C 1114 64 1050 351 1050 587 
C 1050 951 1229 1462 1395 1890 
C 1472 2094 1504 2177 1504 2305 
C 1504 2579 1306 2816 998 2816 
C 410 2816 173 1890 173 1838 
C 173 1813 198 1781 243 1781 
C 301 1781 307 1807 333 1896 
C 486 2445 736 2687 979 2687 
C 1043 2687 1146 2681 1146 2477 
C 1146 2311 1075 2126 979 1883 
C 698 1123 666 881 666 689 
C 666 38 1158 -64 1421 -64 
C 1830 -64 2054 217 2182 370 
z
" transform="scale(0.015625)"/>
       <path id="CMMI12-64" d="M 3219 4255 
C 3226 4281 3238 4319 3238 4351 
C 3238 4416 3174 4416 3162 4416 
C 3155 4416 2842 4390 2810 4383 
C 2701 4377 2605 4364 2490 4358 
C 2330 4345 2285 4339 2285 4223 
C 2285 4159 2336 4159 2426 4159 
C 2739 4159 2746 4103 2746 4040 
C 2746 4002 2733 3951 2726 3932 
L 2336 2394 
C 2266 2560 2093 2816 1760 2816 
C 1037 2816 256 1883 256 938 
C 256 306 627 -64 1062 -64 
C 1414 -64 1715 210 1894 421 
C 1958 44 2259 -64 2451 -64 
C 2643 -64 2797 51 2912 281 
C 3014 498 3104 887 3104 913 
C 3104 945 3078 970 3040 970 
C 2982 970 2976 938 2950 842 
C 2854 466 2733 64 2470 64 
C 2285 64 2272 230 2272 357 
C 2272 383 2272 517 2317 696 
L 3219 4255 
z
M 1926 759 
C 1894 651 1894 638 1805 517 
C 1664 338 1382 64 1082 64 
C 819 64 672 300 672 676 
C 672 1028 870 1743 992 2011 
C 1210 2458 1510 2687 1760 2687 
C 2182 2687 2266 2164 2266 2113 
C 2266 2107 2246 2024 2240 2011 
L 1926 759 
z
" transform="scale(0.015625)"/>
       <path id="CMR17-29" d="M 1683 1596 
C 1683 2057 1638 2839 1254 3665 
C 947 4332 422 4800 346 4800 
C 326 4800 301 4793 301 4761 
C 301 4748 307 4742 314 4729 
C 621 4408 1402 3595 1402 1603 
C 1402 -396 627 -1210 314 -1530 
C 307 -1543 301 -1549 301 -1562 
C 301 -1594 326 -1600 346 -1600 
C 416 -1600 960 -1127 1274 -422 
C 1594 289 1683 981 1683 1596 
z
" transform="scale(0.015625)"/>
      </defs>
      <use xlink:href="#CMMI12-78" transform="scale(0.996264)"/>
      <use xlink:href="#CMR17-28" transform="translate(55.43406 0) scale(0.996264)"/>
      <use xlink:href="#CMR17-1" transform="translate(90.714827 0) scale(0.996264)"/>
      <use xlink:href="#CMMI12-54" transform="translate(167.634417 -14.943915) scale(0.697382)"/>
      <use xlink:href="#CMR17-16" transform="translate(225.263523 0.006461) scale(0.996264)"/>
      <use xlink:href="#CMMI12-75" transform="translate(217.638871 0) scale(0.996264)"/>
      <use xlink:href="#CMSY10-0" transform="translate(295.298408 0) scale(0.996264)"/>
      <use xlink:href="#CMR17-1" transform="translate(394.925083 0) scale(0.996264)"/>
      <use xlink:href="#CMMI12-54" transform="translate(471.844672 -14.943915) scale(0.697382)"/>
      <use xlink:href="#CMR17-16" transform="translate(540.606743 26.296621) scale(0.996264)"/>
      <use xlink:href="#CMMI12-64" transform="translate(521.849127 0) scale(0.996264)"/>
      <use xlink:href="#CMR17-29" transform="translate(572.538223 0) scale(0.996264)"/>
     </g>
    </g>
    <g id="text_12">
     <!-- $\times\mathdefault{10^{−4}}\mathdefault{}$ -->
     <g transform="translate(45 22.92) scale(0.1 -0.1)">
      <defs>
       <path id="CMSY10-2" d="M 2490 1775 
L 1210 3046 
C 1133 3123 1120 3136 1069 3136 
C 1005 3136 941 3078 941 3008 
C 941 2963 954 2950 1024 2880 
L 2304 1596 
L 1024 313 
C 954 243 941 230 941 185 
C 941 115 1005 57 1069 57 
C 1120 57 1133 70 1210 147 
L 2483 1418 
L 3808 95 
C 3821 89 3866 57 3904 57 
C 3981 57 4032 115 4032 185 
C 4032 198 4032 223 4013 255 
C 4006 268 2989 1271 2669 1596 
L 3840 2765 
C 3872 2803 3968 2886 4000 2925 
C 4006 2937 4032 2963 4032 3008 
C 4032 3078 3981 3136 3904 3136 
C 3853 3136 3827 3110 3757 3040 
L 2490 1775 
z
" transform="scale(0.015625)"/>
       <path id="CMR17-34" d="M 2150 4147 
C 2150 4281 2144 4288 2029 4288 
L 128 1254 
L 128 1088 
L 1779 1088 
L 1779 460 
C 1779 230 1766 166 1318 166 
L 1197 166 
L 1197 0 
C 1402 12 1747 12 1965 12 
C 2182 12 2528 12 2733 0 
L 2733 166 
L 2611 166 
C 2163 166 2150 230 2150 460 
L 2150 1088 
L 2803 1088 
L 2803 1254 
L 2150 1254 
L 2150 4147 
z
M 1798 3723 
L 1798 1254 
L 256 1254 
L 1798 3723 
z
" transform="scale(0.015625)"/>
      </defs>
      <use xlink:href="#CMSY10-2" transform="scale(0.996264)"/>
      <use xlink:href="#CMR17-31" transform="translate(77.487468 0) scale(0.996264)"/>
      <use xlink:href="#CMR17-30" transform="translate(123.177945 0) scale(0.996264)"/>
      <use xlink:href="#CMSY10-0" transform="translate(168.868422 36.153639) scale(0.697382)"/>
      <use xlink:href="#CMR17-34" transform="translate(223.109415 36.153639) scale(0.697382)"/>
     </g>
    </g>
   </g>
   <g id="line2d_34">
    <path d="M 44.944497 154.977668 
L 54.109767 151.57234 
L 63.16721 147.970346 
L 72.008999 144.216947 
L 80.742962 140.270128 
L 89.476925 136.07829 
L 98.210888 131.637753 
L 107.052677 126.891967 
L 116.325774 121.659564 
L 126.677137 115.556139 
L 143.066796 105.58395 
L 154.280772 98.885694 
L 161.289508 94.950317 
L 166.896496 92.045678 
L 171.748698 89.773338 
L 176.061766 87.990823 
L 180.051354 86.581038 
L 183.717462 85.521036 
L 187.167916 84.757295 
L 190.402717 84.270779 
L 193.421865 84.036511 
L 196.333186 84.028342 
L 199.13668 84.237061 
L 201.940174 84.671747 
L 204.635842 85.314595 
L 207.331509 86.188552 
L 210.027177 87.303149 
L 212.722844 88.666748 
L 215.418512 90.286301 
L 218.114179 92.167126 
L 220.917674 94.403972 
L 223.721168 96.928426 
L 226.632489 99.852774 
L 229.651637 103.205683 
L 232.778611 107.011028 
L 236.121239 111.433697 
L 239.67952 116.512621 
L 243.669108 122.606305 
L 248.305656 130.113405 
L 254.775258 141.06138 
L 264.156181 156.915865 
L 268.577076 163.925542 
L 272.135357 169.169324 
L 275.370158 173.544686 
L 278.281479 177.11311 
L 280.977146 180.074419 
L 283.564987 182.589207 
L 286.045001 184.689374 
L 288.417189 186.413975 
L 290.789376 187.866682 
L 293.161563 189.059744 
L 295.533751 190.01131 
L 298.013765 190.773368 
L 300.709433 191.368369 
L 303.72858 191.800454 
L 307.286861 192.077056 
L 312.139063 192.214567 
L 323.784347 192.24 
L 324 192.24 
L 324 192.24 
" clip-path="url(#p717efd75e7)" style="fill: none; stroke: #1f77b4; stroke-opacity: 0.8; stroke-width: 1.5; stroke-linecap: square"/>
   </g>
   <g id="line2d_35">
    <path d="M 44.986539 150.063383 
L 56.605842 145.173436 
L 65.618473 141.154638 
L 79.20838 134.727046 
L 97.463782 125.637748 
L 119.538347 114.586006 
L 130.622683 109.308242 
L 139.3109 105.442186 
L 146.457023 102.499441 
L 153.455361 99.878491 
L 159.418289 97.87179 
L 165.3035 96.114667 
L 171.627228 94.490285 
L 177.601631 93.212207 
L 182.805112 92.306577 
L 188.584867 91.529017 
L 193.299289 91.081621 
L 197.827638 90.819804 
L 204.57485 90.810696 
L 210.354605 91.279729 
L 214.204125 91.918226 
L 217.342743 92.689195 
L 220.778363 93.854679 
L 223.135079 94.88439 
L 225.823428 96.321254 
L 228.772868 98.272105 
L 232.049479 100.958571 
L 235.201576 104.120087 
L 238.574159 108.175018 
L 241.06211 111.618387 
L 243.799704 115.847803 
L 247.986469 123.132413 
L 251.375407 129.586546 
L 263.318473 152.860347 
L 266.458222 158.25601 
L 272.475956 167.372042 
L 275.716246 171.840037 
L 281.738439 179.511877 
L 284.764447 182.735545 
L 287.246487 184.892047 
L 288.948723 186.135353 
L 290.48965 187.137275 
L 294.871405 189.476601 
L 297.236862 190.360889 
L 299.372481 190.954381 
L 303.533716 191.720294 
L 307.42789 192.063585 
L 312.742456 192.218405 
L 324 192.24 
L 324 192.24 
" clip-path="url(#p717efd75e7)" style="fill: none; stroke: #ff7f0e; stroke-opacity: 0.8; stroke-width: 1.5; stroke-linecap: square"/>
   </g>
   <g id="line2d_36">
    <path d="M 44.944497 136.758669 
L 52.815847 132.454396 
L 60.579369 127.956513 
L 68.235065 123.266707 
L 75.890761 118.316324 
L 83.546456 113.09891 
L 91.202152 107.610747 
L 98.965675 101.769736 
L 106.944851 95.486367 
L 115.46316 88.489944 
L 125.167563 80.220232 
L 154.712079 54.804067 
L 160.319068 50.421011 
L 165.063443 46.981835 
L 169.268684 44.199435 
L 173.042618 41.960944 
L 176.493073 40.164898 
L 179.727874 38.729111 
L 182.747022 37.631391 
L 185.550516 36.842982 
L 188.246183 36.313131 
L 190.834024 36.031318 
L 193.314038 35.984106 
L 195.686226 36.155453 
L 198.058413 36.54998 
L 200.430601 37.178605 
L 202.694961 38.00657 
L 204.959322 39.065746 
L 207.223683 40.363907 
L 209.59587 41.987797 
L 211.968058 43.88852 
L 214.340245 46.071686 
L 216.820259 48.660541 
L 219.4081 51.698864 
L 221.995941 55.081795 
L 224.691608 58.969596 
L 227.495102 63.400076 
L 230.51425 68.599382 
L 233.641224 74.429941 
L 237.091679 81.351562 
L 240.865613 89.444107 
L 245.178681 99.245823 
L 250.677843 112.340829 
L 263.724874 143.64926 
L 267.714462 152.524602 
L 271.164916 159.669944 
L 274.184064 165.425309 
L 276.987558 170.295421 
L 279.575399 174.349265 
L 281.947587 177.672626 
L 284.211947 180.48496 
L 286.476308 182.943696 
L 288.632842 184.961072 
L 290.789376 186.672318 
L 292.94591 188.093127 
L 295.102444 189.24434 
L 297.258978 190.151287 
L 299.631166 190.90137 
L 302.11118 191.452288 
L 304.914674 191.84883 
L 308.365128 192.104257 
L 313.325157 192.223877 
L 324 192.24 
L 324 192.24 
" clip-path="url(#p717efd75e7)" style="fill: none; stroke: #2ca02c; stroke-opacity: 0.8; stroke-width: 1.5; stroke-linecap: square"/>
   </g>
   <g id="line2d_37">
    <path d="M 44.986539 129.325327 
L 56.605842 122.075949 
L 65.618473 116.122723 
L 79.20838 106.614619 
L 93.614262 96.058148 
L 117.354605 78.523112 
L 127.254951 71.528724 
L 135.199959 66.228812 
L 141.836059 62.093703 
L 147.534137 58.799069 
L 152.526829 56.140933 
L 157.802498 53.587436 
L 162.467993 51.564485 
L 167.30669 49.715449 
L 172.20838 48.111312 
L 177.093582 46.797471 
L 181.451151 45.862748 
L 185.384034 45.214711 
L 190.094927 44.694232 
L 194.645727 44.475501 
L 198.735303 44.527577 
L 202.720585 44.844921 
L 206.099159 45.348986 
L 208.75255 45.928324 
L 211.022214 46.557492 
L 213.379823 47.373022 
L 215.803914 48.402513 
L 218.275565 49.689533 
L 220.078962 50.790149 
L 222.475646 52.495755 
L 225.206784 54.830623 
L 227.618807 57.264444 
L 229.75631 59.756797 
L 232.049479 62.804527 
L 234.094948 65.873808 
L 236.041802 69.112081 
L 238.012407 72.714448 
L 240.640285 78.036631 
L 243.007729 83.334675 
L 245.620649 89.687126 
L 249.290868 99.378769 
L 253.819217 112.140388 
L 259.716095 128.836895 
L 263.679633 139.261742 
L 267.288739 147.837691 
L 269.630809 152.931234 
L 272.42773 158.611546 
L 280.09605 172.688302 
L 282.005793 175.787895 
L 284.586285 179.491591 
L 286.504139 181.815829 
L 288.432558 183.79982 
L 289.930403 185.14365 
L 293.434309 187.801326 
L 295.147289 188.846022 
L 296.764159 189.645041 
L 299.668556 190.703837 
L 302.078085 191.328898 
L 304.635513 191.751132 
L 309.368537 192.129865 
L 315.773724 192.235788 
L 324 192.24 
L 324 192.24 
" clip-path="url(#p717efd75e7)" style="fill: none; stroke: #d62728; stroke-opacity: 0.8; stroke-width: 1.5; stroke-linecap: square"/>
   </g>
   <g id="patch_3">
    <path d="M 45 192.24 
L 45 25.92 
" style="fill: none; stroke: #000000; stroke-width: 0.8; stroke-linejoin: miter; stroke-linecap: square"/>
   </g>
   <g id="patch_4">
    <path d="M 324 192.24 
L 324 25.92 
" style="fill: none; stroke: #000000; stroke-width: 0.8; stroke-linejoin: miter; stroke-linecap: square"/>
   </g>
   <g id="patch_5">
    <path d="M 45 192.24 
L 324 192.24 
" style="fill: none; stroke: #000000; stroke-width: 0.8; stroke-linejoin: miter; stroke-linecap: square"/>
   </g>
   <g id="patch_6">
    <path d="M 45 25.92 
L 324 25.92 
" style="fill: none; stroke: #000000; stroke-width: 0.8; stroke-linejoin: miter; stroke-linecap: square"/>
   </g>
   <g id="legend_1">
    <g id="patch_7">
     <path d="M 52 187.24 
L 219.715372 187.24 
Q 221.715372 187.24 221.715372 185.24 
L 221.715372 130.491287 
Q 221.715372 128.491287 219.715372 128.491287 
L 52 128.491287 
Q 50 128.491287 50 130.491287 
L 50 185.24 
Q 50 187.24 52 187.24 
z
" style="fill: #ffffff; opacity: 0.8; stroke: #cccccc; stroke-linejoin: miter"/>
    </g>
    <g id="line2d_38">
     <path d="M 54 135.991287 
L 64 135.991287 
L 74 135.991287 
" style="fill: none; stroke: #1f77b4; stroke-opacity: 0.8; stroke-width: 1.5; stroke-linecap: square"/>
    </g>
    <g id="text_13">
     <!-- Python Hirai, analytical $\alpha_S$ -->
     <g transform="translate(82 139.491287) scale(0.1 -0.1)">
      <defs>
       <path id="CMSS17-50" d="M 2106 1856 
C 2874 1856 3501 2447 3501 3139 
C 3501 3818 2899 4416 2067 4416 
L 570 4416 
L 570 0 
L 1107 0 
L 1107 1856 
L 2106 1856 
z
M 1926 4057 
C 2669 4057 2995 3598 2995 3139 
C 2995 2711 2694 2227 1926 2227 
L 1094 2227 
L 1094 4057 
L 1926 4057 
z
" transform="scale(0.015625)"/>
       <path id="CMSS17-79" d="M 2675 2752 
L 2176 2752 
C 1632 1293 1446 701 1434 383 
L 1427 383 
C 1408 695 1126 1459 902 2006 
L 602 2752 
L 83 2752 
L 1216 14 
C 1146 -177 1043 -464 1011 -527 
C 870 -884 774 -884 672 -884 
C 646 -884 442 -877 211 -807 
L 250 -1229 
C 410 -1261 570 -1280 685 -1280 
C 845 -1280 1165 -1280 1459 -495 
L 2675 2752 
z
" transform="scale(0.015625)"/>
       <path id="CMSS17-74" d="M 1069 2380 
L 1901 2380 
L 1901 2752 
L 1069 2752 
L 1069 3520 
L 614 3520 
L 614 2752 
L 109 2752 
L 109 2380 
L 602 2380 
L 602 751 
C 602 384 685 -64 1107 -64 
C 1427 -64 1722 25 2003 172 
L 1901 551 
C 1747 416 1562 339 1363 339 
C 1082 339 1069 699 1069 860 
L 1069 2380 
z
" transform="scale(0.015625)"/>
       <path id="CMSS17-68" d="M 2618 1878 
C 2618 2283 2522 2816 1798 2816 
C 1395 2816 1133 2617 947 2399 
L 947 4416 
L 474 4416 
L 474 0 
L 960 0 
L 960 1556 
C 960 1962 1114 2425 1549 2425 
C 2112 2425 2131 2045 2131 1826 
L 2131 0 
L 2618 0 
L 2618 1878 
z
" transform="scale(0.015625)"/>
       <path id="CMSS17-6f" d="M 2829 1356 
C 2829 2175 2221 2816 1504 2816 
C 768 2816 173 2156 173 1356 
C 173 544 787 -64 1498 -64 
C 2227 -64 2829 563 2829 1356 
z
M 1504 339 
C 1050 339 659 710 659 1407 
C 659 2150 1114 2425 1498 2425 
C 1914 2425 2342 2124 2342 1407 
C 2342 684 1926 339 1504 339 
z
" transform="scale(0.015625)"/>
       <path id="CMSS17-6e" d="M 2618 1878 
C 2618 2283 2522 2816 1798 2816 
C 1389 2816 1120 2604 941 2386 
L 941 2783 
L 474 2783 
L 474 0 
L 960 0 
L 960 1556 
C 960 1962 1114 2425 1549 2425 
C 2112 2425 2131 2045 2131 1826 
L 2131 0 
L 2618 0 
L 2618 1878 
z
" transform="scale(0.015625)"/>
       <path id="CMSS17-48" d="M 3674 4416 
L 3136 4416 
L 3136 2496 
L 1101 2496 
L 1101 4416 
L 563 4416 
L 563 0 
L 1101 0 
L 1101 2105 
L 3136 2105 
L 3136 0 
L 3674 0 
L 3674 4416 
z
" transform="scale(0.015625)"/>
       <path id="CMSS17-69" d="M 979 4224 
L 442 4224 
L 442 3686 
L 979 3686 
L 979 4224 
z
M 947 2752 
L 474 2752 
L 474 0 
L 947 0 
L 947 2752 
z
" transform="scale(0.015625)"/>
       <path id="CMSS17-72" d="M 954 1369 
C 954 1974 1395 2379 1958 2392 
L 1958 2816 
C 1549 2809 1165 2604 934 2270 
L 934 2783 
L 480 2783 
L 480 0 
L 954 0 
L 954 1369 
z
" transform="scale(0.015625)"/>
       <path id="CMSS17-61" d="M 2406 1789 
C 2406 2399 1978 2816 1402 2816 
C 1120 2816 813 2764 461 2559 
L 499 2133 
C 659 2250 934 2438 1395 2438 
C 1722 2438 1920 2185 1920 1782 
L 1920 1536 
C 896 1504 256 1209 256 711 
C 256 452 416 -64 947 -64 
C 1043 -64 1562 -52 1933 224 
L 1933 -13 
L 2406 -13 
L 2406 1789 
z
M 1920 824 
C 1920 711 1920 559 1728 446 
C 1562 339 1350 326 1261 326 
C 941 326 723 503 723 723 
C 723 1165 1722 1209 1920 1216 
L 1920 824 
z
" transform="scale(0.015625)"/>
       <path id="CMSS17-2c" d="M 1088 6 
L 1088 512 
L 576 512 
L 576 0 
L 736 0 
L 570 -775 
L 826 -775 
L 1088 6 
z
" transform="scale(0.015625)"/>
       <path id="CMSS17-6c" d="M 947 4416 
L 474 4416 
L 474 0 
L 947 0 
L 947 4416 
z
" transform="scale(0.015625)"/>
       <path id="CMSS17-63" d="M 2464 2540 
C 2464 2585 2170 2713 2093 2739 
C 1882 2816 1613 2816 1542 2816 
C 710 2816 211 2092 211 1363 
C 211 595 768 -64 1517 -64 
C 1946 -64 2253 76 2502 243 
L 2464 665 
C 2189 454 1869 339 1523 339 
C 1024 339 698 774 698 1369 
C 698 1830 909 2412 1549 2412 
C 1901 2412 2099 2342 2394 2143 
L 2464 2540 
z
" transform="scale(0.015625)"/>
       <path id="CMMI12-b" d="M 2963 1615 
C 2963 2234 2611 2816 1933 2816 
C 1094 2816 256 1902 256 996 
C 256 440 602 -64 1254 -64 
C 1651 -64 2125 89 2579 472 
C 2669 115 2867 -64 3142 -64 
C 3488 -64 3661 293 3661 376 
C 3661 434 3616 434 3597 434 
C 3546 434 3539 415 3520 364 
C 3462 204 3315 64 3162 64 
C 2963 64 2963 472 2963 862 
C 3616 1641 3770 2445 3770 2451 
C 3770 2509 3718 2509 3699 2509 
C 3642 2509 3635 2490 3610 2375 
C 3526 2094 3360 1596 2963 1072 
L 2963 1615 
z
M 2560 625 
C 1997 121 1491 64 1267 64 
C 813 64 685 466 685 766 
C 685 1040 826 1692 1024 2043 
C 1286 2490 1645 2687 1933 2687 
C 2554 2687 2554 1877 2554 1340 
C 2554 1181 2547 1015 2547 855 
C 2547 728 2554 696 2560 625 
z
" transform="scale(0.015625)"/>
       <path id="CMMI12-53" d="M 4064 4422 
C 4064 4480 4019 4480 4006 4480 
C 3981 4480 3974 4473 3898 4377 
C 3859 4332 3597 4002 3590 3996 
C 3379 4409 2957 4480 2688 4480 
C 1875 4480 1139 3742 1139 3024 
C 1139 2547 1427 2268 1741 2160 
C 1811 2134 2189 2033 2381 1988 
C 2707 1899 2790 1874 2925 1734 
C 2950 1702 3078 1556 3078 1258 
C 3078 667 2528 57 1888 57 
C 1363 57 781 279 781 991 
C 781 1112 806 1264 826 1328 
C 826 1347 832 1378 832 1391 
C 832 1417 819 1448 768 1448 
C 710 1448 704 1436 678 1328 
L 352 25 
C 352 19 326 -64 326 -71 
C 326 -128 378 -128 390 -128 
C 416 -128 422 -122 499 -26 
L 794 356 
C 947 127 1280 -128 1875 -128 
C 2701 -128 3456 667 3456 1461 
C 3456 1728 3392 1963 3149 2198 
C 3014 2331 2899 2363 2310 2516 
C 1882 2630 1824 2649 1709 2751 
C 1600 2859 1517 3011 1517 3227 
C 1517 3761 2061 4307 2669 4307 
C 3296 4307 3590 3926 3590 3322 
C 3590 3157 3558 2986 3558 2960 
C 3558 2903 3610 2903 3629 2903 
C 3686 2903 3693 2922 3718 3024 
L 4064 4422 
z
" transform="scale(0.015625)"/>
      </defs>
      <use xlink:href="#CMSS17-50" transform="scale(0.996264)"/>
      <use xlink:href="#CMSS17-79" transform="translate(59.735586 0) scale(0.996264)"/>
      <use xlink:href="#CMSS17-74" transform="translate(102.735728 0) scale(0.996264)"/>
      <use xlink:href="#CMSS17-68" transform="translate(136.567295 0) scale(0.996264)"/>
      <use xlink:href="#CMSS17-6f" transform="translate(184.772238 0) scale(0.996264)"/>
      <use xlink:href="#CMSS17-6e" transform="translate(231.615861 0) scale(0.996264)"/>
      <use xlink:href="#CMSS17-48" transform="translate(311.049917 0) scale(0.996264)"/>
      <use xlink:href="#CMSS17-69" transform="translate(377.111436 0) scale(0.996264)"/>
      <use xlink:href="#CMSS17-72" transform="translate(399.292159 0) scale(0.996264)"/>
      <use xlink:href="#CMSS17-61" transform="translate(431.201932 0) scale(0.996264)"/>
      <use xlink:href="#CMSS17-69" transform="translate(476.123853 0) scale(0.996264)"/>
      <use xlink:href="#CMSS17-2c" transform="translate(498.304576 0) scale(0.996264)"/>
      <use xlink:href="#CMSS17-61" transform="translate(555.557893 0) scale(0.996264)"/>
      <use xlink:href="#CMSS17-6e" transform="translate(600.479814 0) scale(0.996264)"/>
      <use xlink:href="#CMSS17-61" transform="translate(648.684757 0) scale(0.996264)"/>
      <use xlink:href="#CMSS17-6c" transform="translate(693.606678 0) scale(0.996264)"/>
      <use xlink:href="#CMSS17-79" transform="translate(715.787401 0) scale(0.996264)"/>
      <use xlink:href="#CMSS17-74" transform="translate(758.787542 0) scale(0.996264)"/>
      <use xlink:href="#CMSS17-69" transform="translate(792.619109 0) scale(0.996264)"/>
      <use xlink:href="#CMSS17-63" transform="translate(814.799832 0) scale(0.996264)"/>
      <use xlink:href="#CMSS17-61" transform="translate(856.438654 0) scale(0.996264)"/>
      <use xlink:href="#CMSS17-6c" transform="translate(901.360575 0) scale(0.996264)"/>
      <use xlink:href="#CMMI12-b" transform="translate(954.770411 0) scale(0.996264)"/>
      <use xlink:href="#CMMI12-53" transform="translate(1016.817139 -14.943915) scale(0.697382)"/>
     </g>
    </g>
    <g id="line2d_39">
     <path d="M 54 149.928465 
L 64 149.928465 
L 74 149.928465 
" style="fill: none; stroke: #ff7f0e; stroke-opacity: 0.8; stroke-width: 1.5; stroke-linecap: square"/>
    </g>
    <g id="text_14">
     <!-- Python Vogelsang, analytical $\alpha_S$ -->
     <g transform="translate(82 153.428465) scale(0.1 -0.1)">
      <defs>
       <path id="CMSS17-56" d="M 3910 4416 
L 3411 4416 
L 2304 1361 
C 2272 1272 2074 687 2035 484 
L 2029 484 
C 1978 725 1773 1291 1664 1603 
L 922 3670 
L 646 4416 
L 83 4416 
L 1715 0 
L 2278 0 
L 3910 4416 
z
" transform="scale(0.015625)"/>
       <path id="CMSS17-67" d="M 2848 2816 
C 2483 2809 2170 2739 1914 2617 
C 1702 2783 1485 2816 1338 2816 
C 781 2816 358 2356 358 1824 
C 358 1481 550 1222 563 1209 
C 448 1049 384 876 384 684 
C 384 460 474 300 544 211 
C 211 6 166 -308 166 -429 
C 166 -896 749 -1280 1498 -1280 
C 2253 -1280 2835 -896 2835 -423 
C 2835 460 1856 467 1587 467 
L 1069 467 
C 973 467 717 467 717 793 
C 717 921 774 1004 781 1011 
C 877 940 1075 832 1338 832 
C 1869 832 2310 1279 2310 1824 
C 2310 2128 2170 2349 2112 2425 
L 2131 2425 
C 2150 2425 2419 2444 2515 2444 
C 2720 2444 2739 2438 2918 2419 
L 2848 2816 
z
M 1338 1184 
C 1120 1184 813 1317 813 1824 
C 813 2375 1165 2463 1331 2463 
C 1549 2463 1856 2330 1856 1824 
C 1856 1272 1504 1184 1338 1184 
z
M 1581 0 
C 1734 0 2381 0 2381 -436 
C 2381 -711 1984 -928 1504 -928 
C 1018 -928 621 -717 621 -429 
C 621 -397 621 0 1062 0 
L 1581 0 
z
" transform="scale(0.015625)"/>
       <path id="CMSS17-65" d="M 2502 1375 
C 2502 1587 2490 2001 2285 2347 
C 2061 2713 1696 2816 1421 2816 
C 755 2816 192 2184 192 1363 
C 192 579 774 -64 1510 -64 
C 1798 -64 2150 19 2470 249 
C 2470 275 2458 414 2451 421 
C 2451 433 2432 629 2432 655 
C 2125 408 1773 326 1517 326 
C 1107 326 666 667 646 1375 
L 2502 1375 
z
M 698 1728 
C 781 2086 1062 2425 1421 2425 
C 1517 2425 1965 2412 2080 1728 
L 698 1728 
z
" transform="scale(0.015625)"/>
       <path id="CMSS17-73" d="M 2061 2623 
C 1683 2803 1389 2816 1197 2816 
C 742 2816 198 2655 198 2009 
C 198 1363 902 1222 1094 1183 
C 1389 1126 1715 1062 1715 742 
C 1715 339 1254 339 1171 339 
C 915 339 563 409 243 639 
L 166 211 
C 531 0 883 -64 1178 -64 
C 1965 -64 2163 416 2163 780 
C 2163 1094 1984 1305 1862 1401 
C 1651 1567 1574 1587 1050 1695 
C 960 1708 646 1779 646 2067 
C 646 2431 1050 2431 1139 2431 
C 1555 2431 1811 2303 1984 2207 
L 2061 2623 
z
" transform="scale(0.015625)"/>
      </defs>
      <use xlink:href="#CMSS17-50" transform="scale(0.996264)"/>
      <use xlink:href="#CMSS17-79" transform="translate(59.735586 0) scale(0.996264)"/>
      <use xlink:href="#CMSS17-74" transform="translate(102.735728 0) scale(0.996264)"/>
      <use xlink:href="#CMSS17-68" transform="translate(136.567295 0) scale(0.996264)"/>
      <use xlink:href="#CMSS17-6f" transform="translate(184.772238 0) scale(0.996264)"/>
      <use xlink:href="#CMSS17-6e" transform="translate(231.615861 0) scale(0.996264)"/>
      <use xlink:href="#CMSS17-56" transform="translate(311.049917 0) scale(0.996264)"/>
      <use xlink:href="#CMSS17-6f" transform="translate(370.665318 0) scale(0.996264)"/>
      <use xlink:href="#CMSS17-67" transform="translate(417.508942 0) scale(0.996264)"/>
      <use xlink:href="#CMSS17-65" transform="translate(464.352565 0) scale(0.996264)"/>
      <use xlink:href="#CMSS17-6c" transform="translate(505.991387 0) scale(0.996264)"/>
      <use xlink:href="#CMSS17-73" transform="translate(528.17211 0) scale(0.996264)"/>
      <use xlink:href="#CMSS17-61" transform="translate(564.085652 0) scale(0.996264)"/>
      <use xlink:href="#CMSS17-6e" transform="translate(609.007573 0) scale(0.996264)"/>
      <use xlink:href="#CMSS17-67" transform="translate(657.212516 0) scale(0.996264)"/>
      <use xlink:href="#CMSS17-2c" transform="translate(704.05614 0) scale(0.996264)"/>
      <use xlink:href="#CMSS17-61" transform="translate(761.309457 0) scale(0.996264)"/>
      <use xlink:href="#CMSS17-6e" transform="translate(806.231378 0) scale(0.996264)"/>
      <use xlink:href="#CMSS17-61" transform="translate(854.436321 0) scale(0.996264)"/>
      <use xlink:href="#CMSS17-6c" transform="translate(899.358242 0) scale(0.996264)"/>
      <use xlink:href="#CMSS17-79" transform="translate(921.538965 0) scale(0.996264)"/>
      <use xlink:href="#CMSS17-74" transform="translate(964.539106 0) scale(0.996264)"/>
      <use xlink:href="#CMSS17-69" transform="translate(998.370673 0) scale(0.996264)"/>
      <use xlink:href="#CMSS17-63" transform="translate(1020.551396 0) scale(0.996264)"/>
      <use xlink:href="#CMSS17-61" transform="translate(1062.190218 0) scale(0.996264)"/>
      <use xlink:href="#CMSS17-6c" transform="translate(1107.112139 0) scale(0.996264)"/>
      <use xlink:href="#CMMI12-b" transform="translate(1160.521974 0) scale(0.996264)"/>
      <use xlink:href="#CMMI12-53" transform="translate(1222.568703 -14.943915) scale(0.697382)"/>
     </g>
    </g>
    <g id="line2d_40">
     <path d="M 54 163.865643 
L 64 163.865643 
L 74 163.865643 
" style="fill: none; stroke: #2ca02c; stroke-opacity: 0.8; stroke-width: 1.5; stroke-linecap: square"/>
    </g>
    <g id="text_15">
     <!-- Python Hirai, numerical $\alpha_S$ -->
     <g transform="translate(82 167.365643) scale(0.1 -0.1)">
      <defs>
       <path id="CMSS17-75" d="M 2618 2752 
L 2131 2752 
L 2131 976 
C 2131 500 1786 307 1421 307 
C 998 307 960 448 960 712 
L 960 2752 
L 474 2752 
L 474 680 
C 474 179 646 -64 1088 -64 
C 1306 -64 1798 -13 2144 307 
L 2144 -13 
L 2618 -13 
L 2618 2752 
z
" transform="scale(0.015625)"/>
       <path id="CMSS17-6d" d="M 4288 1878 
C 4288 2309 4179 2816 3462 2816 
C 2982 2816 2694 2515 2566 2328 
C 2451 2668 2182 2816 1798 2816 
C 1363 2816 1088 2566 941 2386 
L 941 2783 
L 474 2783 
L 474 0 
L 960 0 
L 960 1556 
C 960 1936 1101 2425 1555 2425 
C 2138 2425 2138 2013 2138 1826 
L 2138 0 
L 2624 0 
L 2624 1556 
C 2624 1936 2765 2425 3219 2425 
C 3802 2425 3802 2013 3802 1826 
L 3802 0 
L 4288 0 
L 4288 1878 
z
" transform="scale(0.015625)"/>
      </defs>
      <use xlink:href="#CMSS17-50" transform="scale(0.996264)"/>
      <use xlink:href="#CMSS17-79" transform="translate(59.735586 0) scale(0.996264)"/>
      <use xlink:href="#CMSS17-74" transform="translate(102.735728 0) scale(0.996264)"/>
      <use xlink:href="#CMSS17-68" transform="translate(136.567295 0) scale(0.996264)"/>
      <use xlink:href="#CMSS17-6f" transform="translate(184.772238 0) scale(0.996264)"/>
      <use xlink:href="#CMSS17-6e" transform="translate(231.615861 0) scale(0.996264)"/>
      <use xlink:href="#CMSS17-48" transform="translate(311.049917 0) scale(0.996264)"/>
      <use xlink:href="#CMSS17-69" transform="translate(377.111436 0) scale(0.996264)"/>
      <use xlink:href="#CMSS17-72" transform="translate(399.292159 0) scale(0.996264)"/>
      <use xlink:href="#CMSS17-61" transform="translate(431.201932 0) scale(0.996264)"/>
      <use xlink:href="#CMSS17-69" transform="translate(476.123853 0) scale(0.996264)"/>
      <use xlink:href="#CMSS17-2c" transform="translate(498.304576 0) scale(0.996264)"/>
      <use xlink:href="#CMSS17-6e" transform="translate(555.557893 0) scale(0.996264)"/>
      <use xlink:href="#CMSS17-75" transform="translate(603.762836 0) scale(0.996264)"/>
      <use xlink:href="#CMSS17-6d" transform="translate(651.96778 0) scale(0.996264)"/>
      <use xlink:href="#CMSS17-65" transform="translate(726.197034 0) scale(0.996264)"/>
      <use xlink:href="#CMSS17-72" transform="translate(767.835856 0) scale(0.996264)"/>
      <use xlink:href="#CMSS17-69" transform="translate(799.745629 0) scale(0.996264)"/>
      <use xlink:href="#CMSS17-63" transform="translate(821.926352 0) scale(0.996264)"/>
      <use xlink:href="#CMSS17-61" transform="translate(863.565174 0) scale(0.996264)"/>
      <use xlink:href="#CMSS17-6c" transform="translate(908.487094 0) scale(0.996264)"/>
      <use xlink:href="#CMMI12-b" transform="translate(961.89693 0) scale(0.996264)"/>
      <use xlink:href="#CMMI12-53" transform="translate(1023.943659 -14.943915) scale(0.697382)"/>
     </g>
    </g>
    <g id="line2d_41">
     <path d="M 54 177.802822 
L 64 177.802822 
L 74 177.802822 
" style="fill: none; stroke: #d62728; stroke-opacity: 0.8; stroke-width: 1.5; stroke-linecap: square"/>
    </g>
    <g id="text_16">
     <!-- Python Vogelsang, numerical $\alpha_S$ -->
     <g transform="translate(82 181.302822) scale(0.1 -0.1)">
      <use xlink:href="#CMSS17-50" transform="scale(0.996264)"/>
      <use xlink:href="#CMSS17-79" transform="translate(59.735586 0) scale(0.996264)"/>
      <use xlink:href="#CMSS17-74" transform="translate(102.735728 0) scale(0.996264)"/>
      <use xlink:href="#CMSS17-68" transform="translate(136.567295 0) scale(0.996264)"/>
      <use xlink:href="#CMSS17-6f" transform="translate(184.772238 0) scale(0.996264)"/>
      <use xlink:href="#CMSS17-6e" transform="translate(231.615861 0) scale(0.996264)"/>
      <use xlink:href="#CMSS17-56" transform="translate(311.049917 0) scale(0.996264)"/>
      <use xlink:href="#CMSS17-6f" transform="translate(370.665318 0) scale(0.996264)"/>
      <use xlink:href="#CMSS17-67" transform="translate(417.508942 0) scale(0.996264)"/>
      <use xlink:href="#CMSS17-65" transform="translate(464.352565 0) scale(0.996264)"/>
      <use xlink:href="#CMSS17-6c" transform="translate(505.991387 0) scale(0.996264)"/>
      <use xlink:href="#CMSS17-73" transform="translate(528.17211 0) scale(0.996264)"/>
      <use xlink:href="#CMSS17-61" transform="translate(564.085652 0) scale(0.996264)"/>
      <use xlink:href="#CMSS17-6e" transform="translate(609.007573 0) scale(0.996264)"/>
      <use xlink:href="#CMSS17-67" transform="translate(657.212516 0) scale(0.996264)"/>
      <use xlink:href="#CMSS17-2c" transform="translate(704.05614 0) scale(0.996264)"/>
      <use xlink:href="#CMSS17-6e" transform="translate(761.309457 0) scale(0.996264)"/>
      <use xlink:href="#CMSS17-75" transform="translate(809.5144 0) scale(0.996264)"/>
      <use xlink:href="#CMSS17-6d" transform="translate(857.719343 0) scale(0.996264)"/>
      <use xlink:href="#CMSS17-65" transform="translate(931.948598 0) scale(0.996264)"/>
      <use xlink:href="#CMSS17-72" transform="translate(973.58742 0) scale(0.996264)"/>
      <use xlink:href="#CMSS17-69" transform="translate(1005.497193 0) scale(0.996264)"/>
      <use xlink:href="#CMSS17-63" transform="translate(1027.677916 0) scale(0.996264)"/>
      <use xlink:href="#CMSS17-61" transform="translate(1069.316738 0) scale(0.996264)"/>
      <use xlink:href="#CMSS17-6c" transform="translate(1114.238658 0) scale(0.996264)"/>
      <use xlink:href="#CMMI12-b" transform="translate(1167.648494 0) scale(0.996264)"/>
      <use xlink:href="#CMMI12-53" transform="translate(1229.695223 -14.943915) scale(0.697382)"/>
     </g>
    </g>
   </g>
  </g>
 </g>
 <defs>
  <clipPath id="p717efd75e7">
   <rect x="45" y="25.92" width="279" height="166.32"/>
  </clipPath>
 </defs>
</svg>
