<?xml version="1.0" encoding="utf-8" standalone="no"?>
<!DOCTYPE svg PUBLIC "-//W3C//DTD SVG 1.1//EN"
  "http://www.w3.org/Graphics/SVG/1.1/DTD/svg11.dtd">
<svg xmlns:xlink="http://www.w3.org/1999/xlink" width="360pt" height="144pt" viewBox="0 0 360 144" xmlns="http://www.w3.org/2000/svg" version="1.1">
 <metadata>
  <rdf:RDF xmlns:dc="http://purl.org/dc/elements/1.1/" xmlns:cc="http://creativecommons.org/ns#" xmlns:rdf="http://www.w3.org/1999/02/22-rdf-syntax-ns#">
   <cc:Work>
    <dc:type rdf:resource="http://purl.org/dc/dcmitype/StillImage"/>
    <dc:date>2025-06-05T07:24:40.254600</dc:date>
    <dc:format>image/svg+xml</dc:format>
    <dc:creator>
     <cc:Agent>
      <dc:title>Matplotlib v3.10.0, https://matplotlib.org/</dc:title>
     </cc:Agent>
    </dc:creator>
   </cc:Work>
  </rdf:RDF>
 </metadata>
 <defs>
  <style type="text/css">*{stroke-linejoin: round; stroke-linecap: butt}</style>
 </defs>
 <g id="figure_1">
  <g id="patch_1">
   <path d="M 0 144 
L 360 144 
L 360 0 
L 0 0 
z
" style="fill: #ffffff"/>
  </g>
  <g id="axes_1">
   <g id="patch_2">
    <path d="M 45 128.16 
L 324 128.16 
L 324 17.28 
L 45 17.28 
z
" style="fill: #ffffff"/>
   </g>
   <g id="matplotlib.axis_1">
    <g id="xtick_1">
     <g id="line2d_1">
      <defs>
       <path id="m07a78e6c64" d="M 0 0 
L 0 3.5 
" style="stroke: #000000; stroke-width: 0.8"/>
      </defs>
      <g>
       <use xlink:href="#m07a78e6c64" x="45" y="128.16" style="stroke: #000000; stroke-width: 0.8"/>
      </g>
     </g>
     <g id="text_1">
      <!-- $\mathdefault{10^{-3}}$ -->
      <g transform="translate(34.919713 142.078498) scale(0.1 -0.1)">
       <defs>
        <path id="CMR17-31" d="M 1702 4083 
C 1702 4217 1696 4224 1606 4224 
C 1357 3927 979 3833 621 3820 
C 602 3820 570 3820 563 3808 
C 557 3795 557 3782 557 3648 
C 755 3648 1088 3686 1344 3839 
L 1344 467 
C 1344 243 1331 166 781 166 
L 589 166 
L 589 0 
C 896 6 1216 12 1523 12 
C 1830 12 2150 6 2458 0 
L 2458 166 
L 2266 166 
C 1715 166 1702 236 1702 467 
L 1702 4083 
z
" transform="scale(0.015625)"/>
        <path id="CMR17-30" d="M 2688 2038 
C 2688 2430 2682 3099 2413 3613 
C 2176 4063 1798 4224 1466 4224 
C 1158 4224 768 4082 525 3620 
C 269 3137 243 2539 243 2038 
C 243 1671 250 1112 448 623 
C 723 -39 1216 -128 1466 -128 
C 1760 -128 2208 -7 2470 604 
C 2662 1048 2688 1568 2688 2038 
z
M 1466 -26 
C 1056 -26 813 328 723 816 
C 653 1196 653 1749 653 2109 
C 653 2604 653 3015 736 3407 
C 858 3954 1216 4121 1466 4121 
C 1728 4121 2067 3947 2189 3420 
C 2272 3054 2278 2623 2278 2109 
C 2278 1691 2278 1176 2202 797 
C 2067 96 1690 -26 1466 -26 
z
" transform="scale(0.015625)"/>
        <path id="CMSY10-0" d="M 4218 1472 
C 4326 1472 4442 1472 4442 1600 
C 4442 1728 4326 1728 4218 1728 
L 755 1728 
C 646 1728 531 1728 531 1600 
C 531 1472 646 1472 755 1472 
L 4218 1472 
z
" transform="scale(0.015625)"/>
        <path id="CMR17-33" d="M 1414 2176 
C 1984 2176 2234 1673 2234 1094 
C 2234 322 1824 25 1453 25 
C 1114 25 563 193 390 691 
C 422 678 454 678 486 678 
C 640 678 755 780 755 947 
C 755 1132 614 1216 486 1216 
C 378 1216 211 1164 211 927 
C 211 335 787 -128 1466 -128 
C 2176 -128 2720 432 2720 1087 
C 2720 1718 2208 2176 1600 2246 
C 2086 2347 2554 2776 2554 3353 
C 2554 3856 2048 4224 1472 4224 
C 890 4224 378 3862 378 3347 
C 378 3123 544 3084 627 3084 
C 762 3084 877 3167 877 3334 
C 877 3500 762 3584 627 3584 
C 602 3584 570 3584 544 3571 
C 730 3999 1235 4076 1459 4076 
C 1683 4076 2106 3966 2106 3347 
C 2106 3167 2080 2851 1862 2574 
C 1670 2329 1453 2316 1242 2297 
C 1210 2297 1062 2284 1037 2284 
C 992 2278 966 2272 966 2227 
C 966 2182 973 2176 1101 2176 
L 1414 2176 
z
" transform="scale(0.015625)"/>
       </defs>
       <use xlink:href="#CMR17-31" transform="scale(0.996264)"/>
       <use xlink:href="#CMR17-30" transform="translate(45.690477 0) scale(0.996264)"/>
       <use xlink:href="#CMSY10-0" transform="translate(91.380954 36.153639) scale(0.697382)"/>
       <use xlink:href="#CMR17-33" transform="translate(145.621947 36.153639) scale(0.697382)"/>
      </g>
     </g>
    </g>
    <g id="xtick_2">
     <g id="line2d_2">
      <g>
       <use xlink:href="#m07a78e6c64" x="138" y="128.16" style="stroke: #000000; stroke-width: 0.8"/>
      </g>
     </g>
     <g id="text_2">
      <!-- $\mathdefault{10^{-2}}$ -->
      <g transform="translate(127.919713 142.078498) scale(0.1 -0.1)">
       <defs>
        <path id="CMR17-32" d="M 2669 990 
L 2554 990 
C 2490 537 2438 460 2413 422 
C 2381 371 1920 371 1830 371 
L 602 371 
C 832 620 1280 1073 1824 1596 
C 2214 1966 2669 2400 2669 3033 
C 2669 3788 2067 4224 1395 4224 
C 691 4224 262 3603 262 3027 
C 262 2777 448 2745 525 2745 
C 589 2745 781 2783 781 3007 
C 781 3206 614 3264 525 3264 
C 486 3264 448 3257 422 3244 
C 544 3788 915 4057 1306 4057 
C 1862 4057 2227 3616 2227 3033 
C 2227 2477 1901 1998 1536 1583 
L 262 147 
L 262 0 
L 2515 0 
L 2669 990 
z
" transform="scale(0.015625)"/>
       </defs>
       <use xlink:href="#CMR17-31" transform="scale(0.996264)"/>
       <use xlink:href="#CMR17-30" transform="translate(45.690477 0) scale(0.996264)"/>
       <use xlink:href="#CMSY10-0" transform="translate(91.380954 36.153639) scale(0.697382)"/>
       <use xlink:href="#CMR17-32" transform="translate(145.621947 36.153639) scale(0.697382)"/>
      </g>
     </g>
    </g>
    <g id="xtick_3">
     <g id="line2d_3">
      <g>
       <use xlink:href="#m07a78e6c64" x="231" y="128.16" style="stroke: #000000; stroke-width: 0.8"/>
      </g>
     </g>
     <g id="text_3">
      <!-- $\mathdefault{10^{-1}}$ -->
      <g transform="translate(220.919713 142.078498) scale(0.1 -0.1)">
       <use xlink:href="#CMR17-31" transform="scale(0.996264)"/>
       <use xlink:href="#CMR17-30" transform="translate(45.690477 0) scale(0.996264)"/>
       <use xlink:href="#CMSY10-0" transform="translate(91.380954 36.153639) scale(0.697382)"/>
       <use xlink:href="#CMR17-31" transform="translate(145.621947 36.153639) scale(0.697382)"/>
      </g>
     </g>
    </g>
    <g id="xtick_4">
     <g id="line2d_4">
      <g>
       <use xlink:href="#m07a78e6c64" x="324" y="128.16" style="stroke: #000000; stroke-width: 0.8"/>
      </g>
     </g>
     <g id="text_4">
      <!-- $\mathdefault{10^{0}}$ -->
      <g transform="translate(317.033046 142.078498) scale(0.1 -0.1)">
       <use xlink:href="#CMR17-31" transform="scale(0.996264)"/>
       <use xlink:href="#CMR17-30" transform="translate(45.690477 0) scale(0.996264)"/>
       <use xlink:href="#CMR17-30" transform="translate(91.380954 36.153639) scale(0.697382)"/>
      </g>
     </g>
    </g>
    <g id="xtick_5">
     <g id="line2d_5">
      <defs>
       <path id="ma5bd105f1d" d="M 0 0 
L 0 2 
" style="stroke: #000000; stroke-width: 0.6"/>
      </defs>
      <g>
       <use xlink:href="#ma5bd105f1d" x="72.99579" y="128.16" style="stroke: #000000; stroke-width: 0.6"/>
      </g>
     </g>
    </g>
    <g id="xtick_6">
     <g id="line2d_6">
      <g>
       <use xlink:href="#ma5bd105f1d" x="89.372277" y="128.16" style="stroke: #000000; stroke-width: 0.6"/>
      </g>
     </g>
    </g>
    <g id="xtick_7">
     <g id="line2d_7">
      <g>
       <use xlink:href="#ma5bd105f1d" x="100.991579" y="128.16" style="stroke: #000000; stroke-width: 0.6"/>
      </g>
     </g>
    </g>
    <g id="xtick_8">
     <g id="line2d_8">
      <g>
       <use xlink:href="#ma5bd105f1d" x="110.00421" y="128.16" style="stroke: #000000; stroke-width: 0.6"/>
      </g>
     </g>
    </g>
    <g id="xtick_9">
     <g id="line2d_9">
      <g>
       <use xlink:href="#ma5bd105f1d" x="117.368066" y="128.16" style="stroke: #000000; stroke-width: 0.6"/>
      </g>
     </g>
    </g>
    <g id="xtick_10">
     <g id="line2d_10">
      <g>
       <use xlink:href="#ma5bd105f1d" x="123.594118" y="128.16" style="stroke: #000000; stroke-width: 0.6"/>
      </g>
     </g>
    </g>
    <g id="xtick_11">
     <g id="line2d_11">
      <g>
       <use xlink:href="#ma5bd105f1d" x="128.987369" y="128.16" style="stroke: #000000; stroke-width: 0.6"/>
      </g>
     </g>
    </g>
    <g id="xtick_12">
     <g id="line2d_12">
      <g>
       <use xlink:href="#ma5bd105f1d" x="133.744553" y="128.16" style="stroke: #000000; stroke-width: 0.6"/>
      </g>
     </g>
    </g>
    <g id="xtick_13">
     <g id="line2d_13">
      <g>
       <use xlink:href="#ma5bd105f1d" x="165.99579" y="128.16" style="stroke: #000000; stroke-width: 0.6"/>
      </g>
     </g>
    </g>
    <g id="xtick_14">
     <g id="line2d_14">
      <g>
       <use xlink:href="#ma5bd105f1d" x="182.372277" y="128.16" style="stroke: #000000; stroke-width: 0.6"/>
      </g>
     </g>
    </g>
    <g id="xtick_15">
     <g id="line2d_15">
      <g>
       <use xlink:href="#ma5bd105f1d" x="193.991579" y="128.16" style="stroke: #000000; stroke-width: 0.6"/>
      </g>
     </g>
    </g>
    <g id="xtick_16">
     <g id="line2d_16">
      <g>
       <use xlink:href="#ma5bd105f1d" x="203.00421" y="128.16" style="stroke: #000000; stroke-width: 0.6"/>
      </g>
     </g>
    </g>
    <g id="xtick_17">
     <g id="line2d_17">
      <g>
       <use xlink:href="#ma5bd105f1d" x="210.368066" y="128.16" style="stroke: #000000; stroke-width: 0.6"/>
      </g>
     </g>
    </g>
    <g id="xtick_18">
     <g id="line2d_18">
      <g>
       <use xlink:href="#ma5bd105f1d" x="216.594118" y="128.16" style="stroke: #000000; stroke-width: 0.6"/>
      </g>
     </g>
    </g>
    <g id="xtick_19">
     <g id="line2d_19">
      <g>
       <use xlink:href="#ma5bd105f1d" x="221.987369" y="128.16" style="stroke: #000000; stroke-width: 0.6"/>
      </g>
     </g>
    </g>
    <g id="xtick_20">
     <g id="line2d_20">
      <g>
       <use xlink:href="#ma5bd105f1d" x="226.744553" y="128.16" style="stroke: #000000; stroke-width: 0.6"/>
      </g>
     </g>
    </g>
    <g id="xtick_21">
     <g id="line2d_21">
      <g>
       <use xlink:href="#ma5bd105f1d" x="258.99579" y="128.16" style="stroke: #000000; stroke-width: 0.6"/>
      </g>
     </g>
    </g>
    <g id="xtick_22">
     <g id="line2d_22">
      <g>
       <use xlink:href="#ma5bd105f1d" x="275.372277" y="128.16" style="stroke: #000000; stroke-width: 0.6"/>
      </g>
     </g>
    </g>
    <g id="xtick_23">
     <g id="line2d_23">
      <g>
       <use xlink:href="#ma5bd105f1d" x="286.991579" y="128.16" style="stroke: #000000; stroke-width: 0.6"/>
      </g>
     </g>
    </g>
    <g id="xtick_24">
     <g id="line2d_24">
      <g>
       <use xlink:href="#ma5bd105f1d" x="296.00421" y="128.16" style="stroke: #000000; stroke-width: 0.6"/>
      </g>
     </g>
    </g>
    <g id="xtick_25">
     <g id="line2d_25">
      <g>
       <use xlink:href="#ma5bd105f1d" x="303.368066" y="128.16" style="stroke: #000000; stroke-width: 0.6"/>
      </g>
     </g>
    </g>
    <g id="xtick_26">
     <g id="line2d_26">
      <g>
       <use xlink:href="#ma5bd105f1d" x="309.594118" y="128.16" style="stroke: #000000; stroke-width: 0.6"/>
      </g>
     </g>
    </g>
    <g id="xtick_27">
     <g id="line2d_27">
      <g>
       <use xlink:href="#ma5bd105f1d" x="314.987369" y="128.16" style="stroke: #000000; stroke-width: 0.6"/>
      </g>
     </g>
    </g>
    <g id="xtick_28">
     <g id="line2d_28">
      <g>
       <use xlink:href="#ma5bd105f1d" x="319.744553" y="128.16" style="stroke: #000000; stroke-width: 0.6"/>
      </g>
     </g>
    </g>
    <g id="text_5">
     <!-- $x$ -->
     <g transform="translate(178.402253 163.23637) scale(0.22 -0.22)">
      <defs>
       <path id="CMMI12-78" d="M 3034 2624 
C 2829 2585 2752 2431 2752 2310 
C 2752 2156 2874 2105 2963 2105 
C 3155 2105 3290 2271 3290 2444 
C 3290 2694 2982 2816 2714 2816 
C 2323 2816 2106 2451 2048 2329 
C 1901 2790 1504 2816 1389 2816 
C 736 2816 390 1993 390 1849 
C 390 1823 416 1790 461 1790 
C 512 1790 525 1829 538 1855 
C 755 2572 1184 2687 1370 2687 
C 1658 2687 1715 2438 1715 2284 
C 1715 2143 1677 1993 1600 1678 
L 1382 778 
C 1286 390 1101 64 762 64 
C 730 64 570 64 435 126 
C 666 166 717 358 717 435 
C 717 563 621 640 499 640 
C 346 640 179 505 179 300 
C 179 57 480 -64 755 -64 
C 1062 -64 1280 153 1414 415 
C 1517 64 1837 -64 2074 -64 
C 2726 -64 3072 751 3072 896 
C 3072 929 3046 955 3008 955 
C 2950 955 2944 922 2925 870 
C 2752 300 2381 64 2093 64 
C 1869 64 1747 204 1747 467 
C 1747 607 1773 712 1875 1146 
L 2099 2039 
C 2195 2425 2413 2687 2707 2687 
C 2720 2687 2899 2687 3034 2624 
z
" transform="scale(0.015625)"/>
      </defs>
      <use xlink:href="#CMMI12-78" transform="scale(0.996264)"/>
     </g>
    </g>
   </g>
   <g id="matplotlib.axis_2">
    <g id="ytick_1">
     <g id="line2d_29">
      <defs>
       <path id="m3c57cad326" d="M 0 0 
L -3.5 0 
" style="stroke: #000000; stroke-width: 0.8"/>
      </defs>
      <g>
       <use xlink:href="#m3c57cad326" x="45" y="107.367459" style="stroke: #000000; stroke-width: 0.8"/>
      </g>
     </g>
     <g id="text_6">
      <!-- $\mathdefault{10^{-4}}$ -->
      <g transform="translate(17.839427 110.826708) scale(0.1 -0.1)">
       <defs>
        <path id="CMR17-34" d="M 2150 4147 
C 2150 4281 2144 4288 2029 4288 
L 128 1254 
L 128 1088 
L 1779 1088 
L 1779 460 
C 1779 230 1766 166 1318 166 
L 1197 166 
L 1197 0 
C 1402 12 1747 12 1965 12 
C 2182 12 2528 12 2733 0 
L 2733 166 
L 2611 166 
C 2163 166 2150 230 2150 460 
L 2150 1088 
L 2803 1088 
L 2803 1254 
L 2150 1254 
L 2150 4147 
z
M 1798 3723 
L 1798 1254 
L 256 1254 
L 1798 3723 
z
" transform="scale(0.015625)"/>
       </defs>
       <use xlink:href="#CMR17-31" transform="scale(0.996264)"/>
       <use xlink:href="#CMR17-30" transform="translate(45.690477 0) scale(0.996264)"/>
       <use xlink:href="#CMSY10-0" transform="translate(91.380954 36.153639) scale(0.697382)"/>
       <use xlink:href="#CMR17-34" transform="translate(145.621947 36.153639) scale(0.697382)"/>
      </g>
     </g>
    </g>
    <g id="ytick_2">
     <g id="line2d_30">
      <g>
       <use xlink:href="#m3c57cad326" x="45" y="79.414848" style="stroke: #000000; stroke-width: 0.8"/>
      </g>
     </g>
     <g id="text_7">
      <!-- $\mathdefault{10^{-1}}$ -->
      <g transform="translate(17.839427 82.874097) scale(0.1 -0.1)">
       <use xlink:href="#CMR17-31" transform="scale(0.996264)"/>
       <use xlink:href="#CMR17-30" transform="translate(45.690477 0) scale(0.996264)"/>
       <use xlink:href="#CMSY10-0" transform="translate(91.380954 36.153639) scale(0.697382)"/>
       <use xlink:href="#CMR17-31" transform="translate(145.621947 36.153639) scale(0.697382)"/>
      </g>
     </g>
    </g>
    <g id="ytick_3">
     <g id="line2d_31">
      <g>
       <use xlink:href="#m3c57cad326" x="45" y="51.462237" style="stroke: #000000; stroke-width: 0.8"/>
      </g>
     </g>
     <g id="text_8">
      <!-- $\mathdefault{10^{2}}$ -->
      <g transform="translate(24.066092 54.921486) scale(0.1 -0.1)">
       <use xlink:href="#CMR17-31" transform="scale(0.996264)"/>
       <use xlink:href="#CMR17-30" transform="translate(45.690477 0) scale(0.996264)"/>
       <use xlink:href="#CMR17-32" transform="translate(91.380954 36.153639) scale(0.697382)"/>
      </g>
     </g>
    </g>
    <g id="ytick_4">
     <g id="line2d_32">
      <g>
       <use xlink:href="#m3c57cad326" x="45" y="23.509626" style="stroke: #000000; stroke-width: 0.8"/>
      </g>
     </g>
     <g id="text_9">
      <!-- $\mathdefault{10^{5}}$ -->
      <g transform="translate(24.066092 26.968875) scale(0.1 -0.1)">
       <defs>
        <path id="CMR17-35" d="M 730 3750 
C 794 3724 1056 3641 1325 3641 
C 1920 3641 2246 3961 2432 4140 
C 2432 4191 2432 4224 2394 4224 
C 2387 4224 2374 4224 2323 4198 
C 2099 4102 1837 4032 1517 4032 
C 1325 4032 1037 4055 723 4191 
C 653 4224 640 4224 634 4224 
C 602 4224 595 4217 595 4090 
L 595 2231 
C 595 2113 595 2080 659 2080 
C 691 2080 704 2093 736 2139 
C 941 2435 1222 2560 1542 2560 
C 1766 2560 2246 2415 2246 1293 
C 2246 1087 2246 716 2054 422 
C 1894 159 1645 25 1370 25 
C 947 25 518 319 403 812 
C 429 806 480 793 506 793 
C 589 793 749 838 749 1036 
C 749 1209 627 1280 506 1280 
C 358 1280 262 1190 262 1011 
C 262 454 704 -128 1382 -128 
C 2042 -128 2669 441 2669 1267 
C 2669 2054 2170 2662 1549 2662 
C 1222 2662 947 2540 730 2304 
L 730 3750 
z
" transform="scale(0.015625)"/>
       </defs>
       <use xlink:href="#CMR17-31" transform="scale(0.996264)"/>
       <use xlink:href="#CMR17-30" transform="translate(45.690477 0) scale(0.996264)"/>
       <use xlink:href="#CMR17-35" transform="translate(91.380954 36.153639) scale(0.697382)"/>
      </g>
     </g>
    </g>
    <g id="text_10">
     <!-- $\left|\frac {X-H}H\right|$ -->
     <g transform="translate(6.16806 100.841101) rotate(-90) scale(0.22 -0.22)">
      <defs>
       <path id="CMEX10-c" d="M 928 -3738 
C 928 -3840 928 -3975 1062 -3975 
C 1203 -3975 1203 -3847 1203 -3738 
L 1203 -103 
C 1203 0 1203 134 1069 134 
C 928 134 928 6 928 -103 
L 928 -3738 
z
" transform="scale(0.015625)"/>
       <path id="CMMI12-58" d="M 3040 2586 
L 2438 3981 
C 2522 4134 2714 4159 2790 4166 
C 2829 4166 2899 4172 2899 4281 
C 2899 4352 2842 4352 2803 4352 
C 2694 4352 2566 4339 2458 4339 
L 2086 4339 
C 1696 4339 1414 4352 1408 4352 
C 1357 4352 1293 4352 1293 4230 
C 1293 4166 1350 4166 1434 4166 
C 1805 4166 1830 4102 1894 3949 
L 2656 2179 
L 1267 701 
C 1037 453 762 211 288 185 
C 211 179 160 179 160 64 
C 160 44 166 0 237 0 
C 326 0 422 12 512 12 
L 813 12 
C 1018 12 1242 0 1440 0 
C 1485 0 1562 0 1562 115 
C 1562 179 1517 185 1478 185 
C 1350 198 1267 268 1267 370 
C 1267 478 1344 555 1530 746 
L 2099 1363 
C 2240 1510 2579 1879 2720 2019 
L 3392 453 
C 3398 440 3424 376 3424 370 
C 3424 312 3283 198 3078 185 
C 3040 185 2970 179 2970 64 
C 2970 0 3034 0 3066 0 
C 3174 0 3302 12 3411 12 
L 4115 12 
C 4230 12 4352 0 4461 0 
C 4506 0 4576 0 4576 121 
C 4576 185 4512 185 4454 185 
C 4070 191 4058 223 3949 459 
L 3104 2433 
L 3917 3300 
C 3981 3363 4128 3523 4186 3586 
C 4461 3873 4717 4134 5235 4166 
C 5299 4172 5363 4172 5363 4281 
C 5363 4352 5306 4352 5280 4352 
C 5190 4352 5094 4339 5005 4339 
L 4710 4339 
C 4506 4339 4282 4352 4083 4352 
C 4038 4352 3962 4352 3962 4236 
C 3962 4172 4006 4166 4045 4166 
C 4147 4153 4256 4102 4256 3981 
L 4250 3968 
C 4243 3924 4230 3860 4160 3784 
L 3040 2586 
z
" transform="scale(0.015625)"/>
       <path id="CMMI12-48" d="M 4787 3886 
C 4845 4102 4858 4166 5312 4166 
C 5427 4166 5491 4166 5491 4281 
C 5491 4352 5434 4352 5395 4352 
C 5280 4352 5146 4339 5024 4339 
L 4269 4339 
C 4147 4339 4013 4352 3891 4352 
C 3846 4352 3770 4352 3770 4230 
C 3770 4166 3814 4166 3936 4166 
C 4320 4166 4320 4115 4320 4045 
C 4320 4032 4320 3994 4294 3899 
L 3904 2361 
L 1971 2361 
L 2355 3886 
C 2413 4102 2426 4166 2880 4166 
C 2995 4166 3059 4166 3059 4281 
C 3059 4352 3002 4352 2963 4352 
C 2848 4352 2714 4339 2592 4339 
L 1837 4339 
C 1715 4339 1581 4352 1459 4352 
C 1414 4352 1338 4352 1338 4230 
C 1338 4166 1382 4166 1504 4166 
C 1888 4166 1888 4115 1888 4045 
C 1888 4032 1888 3994 1862 3899 
L 998 472 
C 941 249 928 185 486 185 
C 339 185 294 185 294 64 
C 294 0 365 0 384 0 
C 499 0 634 12 755 12 
L 1510 12 
C 1632 12 1766 0 1888 0 
C 1939 0 2010 0 2010 121 
C 2010 185 1952 185 1856 185 
C 1466 185 1466 236 1466 300 
C 1466 306 1466 351 1478 402 
L 1920 2176 
L 3859 2176 
C 3750 1755 3424 421 3411 383 
C 3341 191 3238 191 2861 185 
C 2784 185 2726 185 2726 64 
C 2726 0 2797 0 2816 0 
C 2931 0 3066 12 3187 12 
L 3942 12 
C 4064 12 4198 0 4320 0 
C 4371 0 4442 0 4442 121 
C 4442 185 4384 185 4288 185 
C 3898 185 3898 236 3898 300 
C 3898 306 3898 351 3910 402 
L 4787 3886 
z
" transform="scale(0.015625)"/>
      </defs>
      <use xlink:href="#CMEX10-c" transform="translate(0 84.683049) scale(0.996264)"/>
      <use xlink:href="#CMEX10-c" transform="translate(0 24.9066) scale(0.996264)"/>
      <use xlink:href="#CMMI12-58" transform="translate(34.40437 39.226102) scale(0.697382)"/>
      <use xlink:href="#CMSY10-0" transform="translate(96.558879 39.226102) scale(0.697382)"/>
      <use xlink:href="#CMMI12-48" transform="translate(150.799872 39.226102) scale(0.697382)"/>
      <use xlink:href="#CMMI12-48" transform="translate(92.602129 -34.355253) scale(0.697382)"/>
      <use xlink:href="#CMEX10-c" transform="translate(213.960344 84.683049) scale(0.996264)"/>
      <use xlink:href="#CMEX10-c" transform="translate(213.960344 24.9066) scale(0.996264)"/>
      <path d="M 34.40437 22.914133 
L 212.76483 22.914133 
L 212.76483 26.899083 
L 34.40437 26.899083 
L 34.40437 22.914133 
z
"/>
     </g>
    </g>
   </g>
   <g id="line2d_33">
    <path d="M 44.944497 86.897485 
L 45.267978 86.937051 
L 47.855818 87.492638 
L 49.904526 87.715369 
L 51.845406 87.709236 
L 53.894114 87.470917 
L 56.158474 86.972738 
L 56.697608 86.884423 
L 60.040236 87.966632 
L 62.19677 88.439983 
L 64.029824 88.620864 
L 65.970704 88.754004 
L 68.882025 90.03083 
L 70.607252 90.555107 
L 72.008999 90.762727 
L 73.195093 90.912342 
L 75.782934 92.530459 
L 77.076854 93.099342 
L 78.155121 93.339331 
L 79.449042 93.550034 
L 81.497749 95.347632 
L 82.468189 95.912369 
L 83.222976 96.106571 
L 83.869937 96.069801 
L 84.73255 95.935435 
L 85.810817 96.821848 
L 86.565604 97.156569 
L 87.212564 97.188475 
L 87.859525 96.975785 
L 88.614311 96.465269 
L 89.476925 95.870893 
L 90.447365 96.522128 
L 91.202152 96.753937 
L 91.849112 96.717632 
L 92.496073 96.46741 
L 93.358686 95.864151 
L 93.682166 95.678258 
L 94.54478 95.990233 
L 95.299567 96.007731 
L 96.054354 95.780157 
L 96.916967 95.267491 
L 97.563928 94.868754 
L 98.426541 94.969364 
L 99.289155 94.822199 
L 100.259595 94.390635 
L 101.122209 93.952015 
L 102.092649 93.938054 
L 103.063089 93.686209 
L 104.68049 93.15083 
L 105.758757 93.012071 
L 106.944851 92.605287 
L 107.376157 92.493528 
L 108.454424 92.414855 
L 109.640518 92.104709 
L 110.287478 91.979588 
L 111.473572 91.865426 
L 114.16924 91.459083 
L 116.002294 91.232334 
L 125.92235 90.43193 
L 128.725844 90.296742 
L 130.666725 90.213185 
L 132.931086 90.165346 
L 143.066796 89.977202 
L 147.379864 89.985738 
L 151.045971 90.035561 
L 158.054707 90.313851 
L 164.524309 90.822451 
L 168.40607 91.306861 
L 172.287832 91.991883 
L 175.091326 92.684716 
L 176.708726 93.253002 
L 178.86526 94.096344 
L 181.992235 95.64206 
L 183.070502 96.582264 
L 184.148769 97.860044 
L 184.795729 98.892121 
L 185.442689 100.324917 
L 185.981823 102.083352 
L 186.413129 104.435346 
L 186.628783 106.578678 
L 186.844436 111.039124 
L 186.952263 122.485669 
L 187.167916 108.020877 
L 187.491396 104.327537 
L 187.922703 101.956653 
L 188.461837 100.158184 
L 189.108797 98.697653 
L 189.97141 97.31129 
L 190.834024 96.265938 
L 192.235771 94.986461 
L 193.960998 93.808273 
L 196.117532 92.691754 
L 198.16624 91.862594 
L 201.401041 90.824231 
L 205.067149 89.917858 
L 209.811524 89.020075 
L 214.663725 88.318179 
L 220.486367 87.69287 
L 226.740316 87.241572 
L 233.964705 86.949825 
L 242.375187 86.840751 
L 252.942204 86.940735 
L 283.45716 87.406346 
L 291.544163 87.222102 
L 299.307685 86.821487 
L 307.394688 86.173871 
L 320.226065 84.887782 
L 320.333892 85.30335 
L 320.549546 84.052673 
L 320.657372 84.845733 
L 320.765199 84.828673 
L 321.196506 84.785548 
L 321.304332 84.491795 
L 321.412159 84.773243 
L 321.519986 86.713949 
L 321.627813 75.893642 
L 321.735639 90.167469 
L 321.843466 86.200581 
L 322.166946 96.1362 
L 322.274773 84.078019 
L 322.382599 100.034479 
L 322.598253 89.349326 
L 322.813906 74.280197 
L 323.02956 66.408003 
L 323.137386 81.125021 
L 323.245213 68.678567 
L 323.35304 70.607145 
L 323.568693 70.175841 
L 323.67652 68.384987 
L 323.892173 72.019546 
L 324 70.097311 
L 324 70.097311 
" clip-path="url(#pab6e843426)" style="fill: none; stroke: #ff7f0e; stroke-opacity: 0.7; stroke-width: 1.5; stroke-linecap: square"/>
   </g>
   <g id="line2d_34">
    <path d="M 44.944497 95.021522 
L 45.699284 95.039694 
L 46.130591 95.017798 
L 47.747992 95.036408 
L 48.394952 95.023637 
L 52.168886 95.073806 
L 52.600193 95.051515 
L 54.217594 95.069934 
L 54.864554 95.056947 
L 58.638489 95.107237 
L 59.069795 95.084613 
L 60.687196 95.103066 
L 61.334156 95.089757 
L 65.108091 95.139768 
L 65.539397 95.116829 
L 67.156798 95.135191 
L 67.803758 95.121648 
L 71.577693 95.171575 
L 72.008999 95.148379 
L 73.6264 95.166709 
L 74.27336 95.153 
L 78.047295 95.203075 
L 78.478602 95.179723 
L 80.096002 95.198063 
L 80.742962 95.184265 
L 84.516897 95.234417 
L 84.948204 95.210995 
L 86.565604 95.229435 
L 87.212564 95.215653 
L 90.986499 95.266252 
L 91.417806 95.242927 
L 93.035206 95.261649 
L 93.682166 95.248051 
L 97.456101 95.299467 
L 97.887408 95.276409 
L 99.504808 95.295562 
L 100.151768 95.282318 
L 103.925703 95.334956 
L 104.35701 95.312396 
L 105.97441 95.3322 
L 106.621371 95.319544 
L 110.395305 95.374162 
L 110.826612 95.352445 
L 112.444012 95.37337 
L 113.090973 95.361669 
L 116.864907 95.418936 
L 117.296214 95.398374 
L 118.913614 95.420652 
L 119.560575 95.410245 
L 123.334509 95.471208 
L 123.765816 95.452306 
L 125.383217 95.476594 
L 126.138003 95.467157 
L 133.470219 95.555619 
L 135.195446 95.597521 
L 135.73458 95.579793 
L 140.586781 95.673638 
L 141.233742 95.659985 
L 156.113826 95.988628 
L 159.995588 96.113021 
L 162.367775 96.192425 
L 166.46519 96.346019 
L 180.913968 97.130559 
L 182.639195 97.22997 
L 183.178328 97.297688 
L 188.03053 97.645365 
L 188.35401 97.692218 
L 189.00097 97.747205 
L 189.432277 97.785522 
L 190.079237 97.842187 
L 190.510544 97.881585 
L 191.157504 97.939918 
L 191.588811 97.980385 
L 192.235771 98.040376 
L 192.667078 98.08189 
L 193.314038 98.143514 
L 193.745345 98.186053 
L 194.392305 98.249287 
L 194.823612 98.292818 
L 195.362746 98.366765 
L 195.901879 98.402096 
L 196.441013 98.478313 
L 196.980146 98.513799 
L 197.51928 98.592227 
L 198.058413 98.627816 
L 198.597547 98.708343 
L 199.13668 98.743913 
L 199.675814 98.826489 
L 200.214947 98.862005 
L 200.754081 98.946502 
L 201.293214 98.981859 
L 201.832348 99.068117 
L 202.371481 99.103242 
L 202.910615 99.191096 
L 203.449748 99.225887 
L 203.988882 99.31514 
L 204.528015 99.349478 
L 205.067149 99.439885 
L 205.606282 99.473669 
L 206.145416 99.56498 
L 206.576722 99.545605 
L 207.115856 99.694972 
L 207.870643 99.764154 
L 208.30195 99.81446 
L 208.733256 99.792532 
L 209.27239 99.943377 
L 210.027177 100.010264 
L 210.458484 100.059698 
L 210.889791 100.035793 
L 211.428924 100.18514 
L 212.183711 100.248487 
L 212.615018 100.296166 
L 213.046325 100.271172 
L 213.585458 100.415404 
L 214.340245 100.473882 
L 214.879378 100.501868 
L 215.202859 100.493941 
L 215.741992 100.628818 
L 216.496779 100.68078 
L 217.035912 100.706067 
L 217.359393 100.698029 
L 217.898526 100.818309 
L 218.76114 100.884903 
L 219.300273 100.864358 
L 219.515927 100.879016 
L 220.05506 100.981408 
L 221.672461 101.030352 
L 222.319421 101.104565 
L 223.182034 101.152015 
L 229.328156 101.253842 
L 229.975117 101.253486 
L 230.406423 101.240154 
L 230.945557 101.214242 
L 231.48469 101.216086 
L 232.023824 101.180205 
L 232.455131 101.227147 
L 232.994264 101.121028 
L 233.641224 101.137975 
L 234.072531 101.065315 
L 234.719491 101.084758 
L 235.150798 101.000596 
L 235.797758 101.02274 
L 236.229065 100.927393 
L 236.552545 101.049232 
L 236.660372 101.12983 
L 237.091679 100.859316 
L 237.415159 100.87003 
L 237.846466 100.959931 
L 238.277773 100.754376 
L 238.601253 100.832342 
L 238.816906 101.001935 
L 239.248213 100.67887 
L 239.571693 100.691155 
L 240.003 100.798129 
L 240.32648 100.579331 
L 240.64996 100.592478 
L 241.081267 100.707741 
L 241.404747 100.474419 
L 241.728227 100.488509 
L 242.159534 100.611861 
L 242.483014 100.364791 
L 242.806494 100.379862 
L 243.237801 100.511057 
L 243.561281 100.251026 
L 243.884761 100.267094 
L 244.316068 100.405836 
L 244.639548 100.133686 
L 244.963028 100.150786 
L 245.286508 100.466794 
L 245.609988 100.072867 
L 245.933468 99.992725 
L 246.256948 100.213189 
L 246.364775 100.361342 
L 246.688255 99.952139 
L 247.011735 99.869381 
L 247.335215 100.09851 
L 247.443042 100.252596 
L 247.766522 99.829191 
L 248.090002 99.744098 
L 248.413483 99.981347 
L 248.521309 100.140948 
L 248.844789 99.70448 
L 249.168269 99.617287 
L 249.49175 99.862211 
L 249.599576 100.027126 
L 249.923056 99.578411 
L 250.246536 99.489309 
L 250.570017 99.741385 
L 250.677843 99.911196 
L 251.001323 99.451301 
L 251.324803 99.360504 
L 251.540457 99.491551 
L 251.75611 99.793604 
L 252.07959 99.323375 
L 252.40307 99.23122 
L 252.618724 99.365482 
L 252.834377 99.674856 
L 253.157857 99.195415 
L 253.481337 99.101816 
L 253.696991 99.239003 
L 253.912644 99.555098 
L 254.236124 99.067157 
L 254.559604 98.972389 
L 254.775258 99.112288 
L 254.990911 99.43459 
L 255.314391 98.938997 
L 255.637871 98.843224 
L 255.853525 98.985623 
L 256.069178 99.313604 
L 256.392658 98.811143 
L 256.716138 98.714494 
L 256.931792 98.859169 
L 257.147445 99.19232 
L 257.470925 98.68374 
L 257.794406 98.586336 
L 258.010059 98.733086 
L 258.225712 99.070935 
L 258.549192 98.556973 
L 258.872673 98.458934 
L 259.088326 98.607545 
L 259.303979 98.949513 
L 259.627459 98.430981 
L 259.95094 98.332449 
L 260.166593 98.482746 
L 260.382246 98.828555 
L 260.705726 98.305916 
L 261.029207 98.206971 
L 261.24486 98.358738 
L 261.460513 98.70782 
L 261.783993 98.181813 
L 262.107474 98.082534 
L 262.323127 98.235552 
L 262.53878 98.587467 
L 262.86226 98.058789 
L 263.185741 97.959293 
L 263.401394 98.113399 
L 263.617047 98.467661 
L 263.940527 97.936919 
L 264.264008 97.837273 
L 264.479661 97.992244 
L 264.695314 98.348404 
L 265.018794 97.816262 
L 265.342275 97.716562 
L 265.557928 97.872195 
L 265.773581 98.22978 
L 266.097061 97.696872 
L 266.420542 97.597184 
L 266.636195 97.753255 
L 266.851848 98.111779 
L 267.175329 97.578752 
L 267.498809 97.479147 
L 267.714462 97.635428 
L 267.930115 97.994369 
L 268.253596 97.461918 
L 268.577076 97.362475 
L 268.792729 97.518721 
L 269.008382 97.87753 
L 269.331863 97.346239 
L 269.655343 97.246829 
L 269.870996 97.402452 
L 270.086649 97.759598 
L 270.41013 97.232614 
L 270.73361 97.134537 
L 270.949263 97.290489 
L 271.164916 97.648022 
L 271.488397 97.121899 
L 271.811877 97.023887 
L 272.02753 97.179011 
L 272.243183 97.534771 
L 272.566664 97.012052 
L 272.890144 96.914527 
L 273.105797 97.068632 
L 273.32145 97.422032 
L 273.644931 96.90367 
L 273.968411 96.806772 
L 274.184064 96.959548 
L 274.399717 97.309883 
L 274.723198 96.796887 
L 275.046678 96.700747 
L 275.262331 96.851884 
L 275.477984 97.198396 
L 275.801465 96.691812 
L 276.124945 96.596565 
L 276.340598 96.74569 
L 276.556252 97.087548 
L 276.879732 96.588536 
L 277.203212 96.494328 
L 277.418865 96.641018 
L 277.634519 96.977284 
L 277.957999 96.487132 
L 278.281479 96.394162 
L 278.497132 96.537999 
L 278.712786 96.867695 
L 279.036266 96.387792 
L 279.359746 96.296197 
L 279.575399 96.436656 
L 279.791053 96.758621 
L 280.114533 96.290518 
L 280.438013 96.200521 
L 280.653666 96.337034 
L 280.86932 96.649943 
L 281.1928 96.195536 
L 281.51628 96.107429 
L 281.731933 96.239416 
L 281.947587 96.541996 
L 282.271067 96.103061 
L 282.594547 96.017062 
L 282.918027 96.266749 
L 283.025854 96.434342 
L 283.349334 96.013201 
L 283.672814 95.929638 
L 283.996294 96.167433 
L 284.104121 96.326969 
L 284.427601 95.926211 
L 284.751081 95.845493 
L 285.074561 96.069666 
L 285.182388 96.219973 
L 285.505868 95.842479 
L 285.829348 95.765077 
L 286.152828 95.973533 
L 286.260655 96.113259 
L 286.584135 95.762405 
L 286.907615 95.688763 
L 287.231095 95.879091 
L 287.338922 96.006679 
L 287.770228 95.6368 
L 288.093709 95.646298 
L 288.525015 95.778314 
L 288.848495 95.570231 
L 289.171976 95.57569 
L 289.603282 95.689616 
L 290.034589 95.490429 
L 290.358069 95.54927 
L 290.681549 95.603299 
L 291.112856 95.43919 
L 291.544163 95.522715 
L 291.759816 95.51988 
L 292.29895 95.393045 
L 293.485044 95.356223 
L 294.778964 95.286412 
L 295.102444 95.315453 
L 295.641578 95.303371 
L 296.072884 95.223794 
L 296.504191 95.35303 
L 296.827671 95.236988 
L 297.043325 95.043057 
L 297.474632 95.37693 
L 297.798112 95.312806 
L 298.121592 94.933645 
L 298.552899 95.432941 
L 298.768552 95.428806 
L 298.984205 95.222552 
L 299.199859 94.823006 
L 299.631166 95.52391 
L 299.846819 95.525512 
L 300.062472 95.245609 
L 300.278126 94.711344 
L 300.709433 95.661396 
L 300.925086 95.671105 
L 301.140739 95.296699 
L 301.356393 94.598369 
L 301.7877 95.861958 
L 302.003353 95.883317 
L 302.219006 95.384429 
L 302.43466 94.483827 
L 302.865967 96.1518 
L 302.973793 96.262952 
L 303.08162 96.191006 
L 303.297273 95.521914 
L 303.512927 94.367008 
L 303.944234 96.575201 
L 304.05206 96.739598 
L 304.159887 96.643054 
L 304.37554 95.728876 
L 304.591194 94.248116 
L 305.022501 97.213946 
L 305.130327 97.469271 
L 305.238154 97.332576 
L 305.453807 96.037695 
L 305.669461 94.126979 
L 306.208594 98.686802 
L 306.316421 98.470116 
L 306.639901 95.242927 
L 306.747728 94.001894 
L 307.286861 101.18202 
L 307.394688 100.725704 
L 307.825995 93.872838 
L 308.041648 97.741227 
L 308.365128 109.622625 
L 308.472955 118.256894 
L 308.688608 98.51311 
L 308.904262 93.738912 
L 309.119915 99.410574 
L 309.227742 111.926428 
L 309.443395 99.245138 
L 309.551222 99.66736 
L 309.659049 103.167494 
L 309.766875 101.34395 
L 309.982529 93.5987 
L 310.090356 96.475068 
L 310.198182 104.146527 
L 310.413836 96.768085 
L 310.521662 95.990571 
L 310.629489 96.199223 
L 310.737316 97.689343 
L 310.845142 105.186147 
L 311.060796 93.451209 
L 311.276449 101.284812 
L 311.492103 94.311116 
L 311.599929 93.72948 
L 311.707756 93.858591 
L 311.815583 94.852623 
L 312.031236 99.088818 
L 312.139063 93.294835 
L 312.24689 99.395487 
L 312.57037 92.347063 
L 312.678196 91.85437 
L 312.786023 91.93824 
L 312.89385 92.702582 
L 313.001676 94.823089 
L 313.109503 106.317853 
L 313.21733 93.126684 
L 313.325157 108.097704 
L 313.54081 91.688314 
L 313.756463 90.15737 
L 313.86429 90.208015 
L 313.972117 90.836582 
L 314.079943 92.503926 
L 314.18777 98.878789 
L 314.295597 92.933827 
L 314.403424 98.795825 
L 314.619077 89.93754 
L 314.83473 88.532048 
L 314.942557 88.553262 
L 315.050384 89.08808 
L 315.158211 90.490584 
L 315.266037 94.78906 
L 315.373864 92.713943 
L 315.481691 94.883964 
L 315.697344 88.248186 
L 315.912997 86.907342 
L 316.020824 86.898552 
L 316.128651 87.35997 
L 316.236478 88.584562 
L 316.452131 92.446856 
L 316.559958 92.190682 
L 316.775611 86.544013 
L 316.991264 85.223133 
L 317.099091 85.180231 
L 317.206918 85.577 
L 317.314745 86.668815 
L 317.530398 92.093275 
L 317.961705 83.866439 
L 318.177358 83.32655 
L 318.285185 83.657852 
L 318.393012 84.637711 
L 318.608665 91.573469 
L 318.932145 82.798656 
L 319.147798 81.386509 
L 319.255625 81.240434 
L 319.363452 81.494645 
L 319.471279 82.364883 
L 319.579105 84.706256 
L 319.686932 90.705283 
L 319.902585 82.160082 
L 320.226065 78.998391 
L 320.333892 78.75834 
L 320.441719 78.903532 
L 320.549546 79.639717 
L 320.657372 81.762839 
L 320.765199 89.150352 
L 320.980852 79.503557 
L 321.304332 75.935386 
L 321.519986 75.459788 
L 321.627813 75.95361 
L 321.735639 77.720954 
L 321.843466 88.104963 
L 322.059119 75.67285 
L 322.382599 71.057206 
L 322.70608 69.02805 
L 322.813906 69.23165 
L 322.921733 71.363509 
L 323.784347 47.211649 
L 323.892173 38.804892 
L 324 70.097311 
L 324 70.097311 
" clip-path="url(#pab6e843426)" style="fill: none; stroke-dasharray: 1.5,2.475; stroke-dashoffset: 0; stroke: #2ca02c; stroke-opacity: 0.7; stroke-width: 1.5"/>
   </g>
   <g id="line2d_35">
    <path d="M 44.944497 92.943118 
L 46.346245 93.065497 
L 47.424512 92.944138 
L 48.502779 93.067588 
L 49.365392 93.201975 
L 50.335833 93.037504 
L 51.306273 93.076417 
L 52.276713 93.326541 
L 52.492367 93.333077 
L 53.462807 93.136187 
L 54.433247 93.14907 
L 55.403687 93.37583 
L 55.727168 93.420675 
L 56.697608 93.209507 
L 57.668048 93.212926 
L 58.638489 93.433349 
L 58.961969 93.475095 
L 59.932409 93.247935 
L 60.902849 93.238461 
L 61.87329 93.44701 
L 62.19677 93.484419 
L 63.16721 93.243741 
L 64.13765 93.221494 
L 65.108091 93.415939 
L 65.431571 93.44868 
L 66.402011 93.197722 
L 67.372451 93.163557 
L 68.342892 93.342551 
L 68.666372 93.370728 
L 69.636812 93.114501 
L 70.607252 93.071193 
L 71.577693 93.235817 
L 71.901173 93.260105 
L 72.871613 93.003178 
L 73.94988 92.960351 
L 74.92032 93.135725 
L 75.135974 93.126704 
L 76.106414 92.872149 
L 77.184681 92.824143 
L 78.155121 92.98724 
L 78.370775 92.977325 
L 79.449042 92.711757 
L 80.527309 92.683022 
L 81.929056 92.713329 
L 83.007323 92.524346 
L 84.08559 92.557827 
L 84.948204 92.612026 
L 86.026471 92.381577 
L 87.104738 92.366818 
L 88.290831 92.404684 
L 89.369098 92.201412 
L 90.555192 92.21373 
L 91.525632 92.224214 
L 92.711726 92.016871 
L 93.89782 92.044232 
L 94.652607 92.06796 
L 95.8387 91.844558 
L 97.024794 91.845198 
L 97.995234 91.846258 
L 99.181328 91.649775 
L 100.367422 91.664124 
L 101.230035 91.651186 
L 102.416129 91.460851 
L 103.71005 91.480098 
L 104.464836 91.454147 
L 105.758757 91.263663 
L 107.052677 91.295725 
L 107.591811 91.283123 
L 108.885731 91.08206 
L 110.179652 91.091056 
L 110.934439 91.063918 
L 112.336186 90.883324 
L 113.737933 90.932543 
L 114.061413 90.896306 
L 115.46316 90.707051 
L 116.864907 90.733487 
L 117.404041 90.689173 
L 118.913614 90.523876 
L 124.412776 90.275939 
L 126.030177 90.207036 
L 127.431924 90.154846 
L 129.049324 90.062991 
L 131.098032 89.981776 
L 132.823259 89.962221 
L 133.793699 89.922423 
L 135.518926 89.838904 
L 137.783287 89.76737 
L 139.616341 89.788568 
L 140.371128 89.735054 
L 142.312009 89.699956 
L 144.037236 89.664498 
L 146.085943 89.696912 
L 147.056383 89.656183 
L 149.212917 89.688926 
L 150.506838 89.666847 
L 154.712079 89.736868 
L 164.847789 90.231392 
L 172.072178 90.893646 
L 178.326127 91.743972 
L 179.18874 91.917658 
L 181.129621 92.249084 
L 182.315715 92.462852 
L 183.933115 92.816459 
L 185.766169 93.173718 
L 187.167916 93.502322 
L 188.785317 93.793674 
L 189.97141 94.16218 
L 191.049678 94.260618 
L 191.696638 94.344248 
L 192.774905 94.79463 
L 193.745345 94.962618 
L 194.607959 94.889012 
L 194.823612 94.931158 
L 195.901879 95.444018 
L 196.764493 95.602344 
L 197.51928 95.525444 
L 198.058413 95.463319 
L 199.028853 95.947456 
L 199.78364 96.088231 
L 200.538427 95.992585 
L 201.293214 95.801724 
L 202.155828 96.219994 
L 202.910615 96.338489 
L 203.665402 96.20193 
L 204.635842 95.956824 
L 205.498455 96.275719 
L 206.253242 96.295659 
L 207.008029 96.070266 
L 207.762816 95.763559 
L 208.62543 96.037342 
L 209.380217 96.041041 
L 210.135004 95.826668 
L 211.105444 95.507739 
L 211.968058 95.672427 
L 212.830671 95.594166 
L 213.801111 95.244101 
L 214.232418 95.106814 
L 215.202859 95.235823 
L 216.173299 95.128299 
L 217.251566 94.771576 
L 217.467219 94.743361 
L 218.545486 94.809055 
L 219.73158 94.651001 
L 221.133327 94.442542 
L 222.642901 94.356169 
L 225.985529 94.038579 
L 234.288185 93.306103 
L 235.366452 93.139139 
L 236.336892 93.196629 
L 236.876025 93.232286 
L 237.738639 92.879946 
L 238.709079 92.73084 
L 239.571693 92.812517 
L 240.110827 92.862936 
L 240.97344 92.438899 
L 241.836054 92.268292 
L 242.698667 92.334193 
L 243.345628 92.422451 
L 244.100414 91.992274 
L 244.855201 91.787134 
L 245.609988 91.783484 
L 246.364775 91.989915 
L 246.472602 92.038611 
L 247.227389 91.542491 
L 247.982176 91.298633 
L 248.736963 91.272977 
L 249.49175 91.469897 
L 249.707403 91.572065 
L 250.46219 91.063751 
L 251.216977 90.821775 
L 251.971764 90.809596 
L 252.726551 91.033507 
L 252.942204 91.146713 
L 253.696991 90.630115 
L 254.451778 90.391534 
L 255.206565 90.392871 
L 255.961352 90.64276 
L 256.177005 90.766596 
L 256.931792 90.240102 
L 257.686579 90.002348 
L 258.441366 90.0136 
L 259.088326 90.228188 
L 259.411806 90.417367 
L 260.058766 89.935283 
L 260.813553 89.655743 
L 261.56834 89.635031 
L 262.2153 89.82537 
L 262.754434 89.974665 
L 263.401394 89.526485 
L 264.156181 89.281875 
L 264.910968 89.298324 
L 265.557928 89.528237 
L 265.881408 89.730253 
L 266.528368 89.238396 
L 267.283155 88.95467 
L 268.037942 88.935993 
L 268.684902 89.133801 
L 269.224036 89.293401 
L 269.870996 88.850507 
L 270.625783 88.611168 
L 271.38057 88.633312 
L 272.02753 88.870033 
L 272.35101 89.076821 
L 272.99797 88.601609 
L 273.752757 88.328505 
L 274.507544 88.315043 
L 275.154504 88.514513 
L 275.693638 88.679531 
L 276.448425 88.210233 
L 277.203212 88.017692 
L 277.957999 88.073524 
L 278.604959 88.334052 
L 278.820612 88.472097 
L 279.575399 87.987196 
L 280.330186 87.769139 
L 281.084973 87.785855 
L 281.83976 88.05018 
L 282.055413 88.178622 
L 282.8102 87.738684 
L 283.564987 87.537379 
L 284.319774 87.547723 
L 285.074561 87.778901 
L 285.398041 87.824222 
L 286.260655 87.449368 
L 287.123268 87.321209 
L 287.985882 87.42048 
L 288.740669 87.512571 
L 289.711109 87.242436 
L 290.789376 87.183911 
L 292.62243 87.194813 
L 294.994617 87.037325 
L 296.504191 87.226971 
L 297.366805 87.122805 
L 298.121592 86.812879 
L 298.229418 86.749042 
L 299.307685 87.465038 
L 299.846819 87.609118 
L 300.385952 87.51046 
L 300.925086 87.123023 
L 301.464219 86.4552 
L 302.75814 88.49635 
L 303.189447 88.750219 
L 303.512927 88.638249 
L 303.836407 88.241176 
L 304.267714 87.334309 
L 304.69902 86.151259 
L 305.345981 88.636089 
L 306.532074 93.874436 
L 306.639901 93.724567 
L 306.855555 92.82875 
L 307.933822 85.831271 
L 308.257302 88.199857 
L 308.472955 90.885268 
L 308.580782 93.228731 
L 308.688608 98.724041 
L 309.227742 89.206402 
L 309.551222 87.918913 
L 309.766875 87.636356 
L 309.982529 87.756146 
L 310.198182 88.389755 
L 310.413836 89.976645 
L 310.521662 91.637882 
L 310.737316 95.967709 
L 310.952969 88.489639 
L 311.168623 85.483787 
L 311.384276 88.695671 
L 311.599929 96.05896 
L 311.815583 87.76298 
L 312.139063 84.613494 
L 312.57037 82.800821 
L 312.89385 82.183425 
L 313.109503 82.039569 
L 313.325157 82.126485 
L 313.54081 82.512913 
L 313.756463 83.376841 
L 313.972117 85.28025 
L 314.079943 87.322372 
L 314.18777 93.379643 
L 314.403424 85.091982 
L 314.51125 88.170375 
L 314.619077 96.074704 
L 314.83473 84.59378 
L 315.158211 81.07617 
L 315.589517 78.88693 
L 316.020824 77.714839 
L 316.344304 77.276174 
L 316.559958 77.199771 
L 316.775611 77.345628 
L 316.991264 77.82166 
L 317.206918 78.905732 
L 317.422571 81.684259 
L 317.530398 86.176545 
L 317.638225 84.634383 
L 317.746051 88.531924 
L 317.961705 79.707668 
L 318.285185 75.95582 
L 318.824318 72.647545 
L 319.579105 69.634507 
L 320.441719 67.109097 
L 320.980852 65.673775 
L 322.059119 59.223408 
L 322.70608 53.825801 
L 323.137386 48.513514 
L 323.460866 42.389208 
L 323.67652 35.814561 
L 323.892173 22.32 
L 324 70.097311 
L 324 70.097311 
" clip-path="url(#pab6e843426)" style="fill: none; stroke-dasharray: 1.5,2.475; stroke-dashoffset: 0; stroke: #d62728; stroke-opacity: 0.7; stroke-width: 1.5"/>
   </g>
   <g id="patch_3">
    <path d="M 45 128.16 
L 45 17.28 
" style="fill: none; stroke: #000000; stroke-width: 0.8; stroke-linejoin: miter; stroke-linecap: square"/>
   </g>
   <g id="patch_4">
    <path d="M 324 128.16 
L 324 17.28 
" style="fill: none; stroke: #000000; stroke-width: 0.8; stroke-linejoin: miter; stroke-linecap: square"/>
   </g>
   <g id="patch_5">
    <path d="M 45 128.16 
L 324 128.16 
" style="fill: none; stroke: #000000; stroke-width: 0.8; stroke-linejoin: miter; stroke-linecap: square"/>
   </g>
   <g id="patch_6">
    <path d="M 45 17.28 
L 324 17.28 
" style="fill: none; stroke: #000000; stroke-width: 0.8; stroke-linejoin: miter; stroke-linecap: square"/>
   </g>
   <g id="legend_1">
    <g id="patch_7">
     <path d="M 185.23505 67.091535 
L 317 67.091535 
Q 319 67.091535 319 65.091535 
L 319 24.28 
Q 319 22.28 317 22.28 
L 185.23505 22.28 
Q 183.23505 22.28 183.23505 24.28 
L 183.23505 65.091535 
Q 183.23505 67.091535 185.23505 67.091535 
z
" style="fill: #ffffff; opacity: 0.8; stroke: #cccccc; stroke-linejoin: miter"/>
    </g>
    <g id="line2d_36">
     <path d="M 187.23505 29.78 
L 197.23505 29.78 
L 207.23505 29.78 
" style="fill: none; stroke: #ff7f0e; stroke-opacity: 0.7; stroke-width: 1.5; stroke-linecap: square"/>
    </g>
    <g id="text_11">
     <!-- Python Vogelsang -->
     <g transform="translate(215.23505 33.28) scale(0.1 -0.1)">
      <defs>
       <path id="CMSS17-50" d="M 2106 1856 
C 2874 1856 3501 2447 3501 3139 
C 3501 3818 2899 4416 2067 4416 
L 570 4416 
L 570 0 
L 1107 0 
L 1107 1856 
L 2106 1856 
z
M 1926 4057 
C 2669 4057 2995 3598 2995 3139 
C 2995 2711 2694 2227 1926 2227 
L 1094 2227 
L 1094 4057 
L 1926 4057 
z
" transform="scale(0.015625)"/>
       <path id="CMSS17-79" d="M 2675 2752 
L 2176 2752 
C 1632 1293 1446 701 1434 383 
L 1427 383 
C 1408 695 1126 1459 902 2006 
L 602 2752 
L 83 2752 
L 1216 14 
C 1146 -177 1043 -464 1011 -527 
C 870 -884 774 -884 672 -884 
C 646 -884 442 -877 211 -807 
L 250 -1229 
C 410 -1261 570 -1280 685 -1280 
C 845 -1280 1165 -1280 1459 -495 
L 2675 2752 
z
" transform="scale(0.015625)"/>
       <path id="CMSS17-74" d="M 1069 2380 
L 1901 2380 
L 1901 2752 
L 1069 2752 
L 1069 3520 
L 614 3520 
L 614 2752 
L 109 2752 
L 109 2380 
L 602 2380 
L 602 751 
C 602 384 685 -64 1107 -64 
C 1427 -64 1722 25 2003 172 
L 1901 551 
C 1747 416 1562 339 1363 339 
C 1082 339 1069 699 1069 860 
L 1069 2380 
z
" transform="scale(0.015625)"/>
       <path id="CMSS17-68" d="M 2618 1878 
C 2618 2283 2522 2816 1798 2816 
C 1395 2816 1133 2617 947 2399 
L 947 4416 
L 474 4416 
L 474 0 
L 960 0 
L 960 1556 
C 960 1962 1114 2425 1549 2425 
C 2112 2425 2131 2045 2131 1826 
L 2131 0 
L 2618 0 
L 2618 1878 
z
" transform="scale(0.015625)"/>
       <path id="CMSS17-6f" d="M 2829 1356 
C 2829 2175 2221 2816 1504 2816 
C 768 2816 173 2156 173 1356 
C 173 544 787 -64 1498 -64 
C 2227 -64 2829 563 2829 1356 
z
M 1504 339 
C 1050 339 659 710 659 1407 
C 659 2150 1114 2425 1498 2425 
C 1914 2425 2342 2124 2342 1407 
C 2342 684 1926 339 1504 339 
z
" transform="scale(0.015625)"/>
       <path id="CMSS17-6e" d="M 2618 1878 
C 2618 2283 2522 2816 1798 2816 
C 1389 2816 1120 2604 941 2386 
L 941 2783 
L 474 2783 
L 474 0 
L 960 0 
L 960 1556 
C 960 1962 1114 2425 1549 2425 
C 2112 2425 2131 2045 2131 1826 
L 2131 0 
L 2618 0 
L 2618 1878 
z
" transform="scale(0.015625)"/>
       <path id="CMSS17-56" d="M 3910 4416 
L 3411 4416 
L 2304 1361 
C 2272 1272 2074 687 2035 484 
L 2029 484 
C 1978 725 1773 1291 1664 1603 
L 922 3670 
L 646 4416 
L 83 4416 
L 1715 0 
L 2278 0 
L 3910 4416 
z
" transform="scale(0.015625)"/>
       <path id="CMSS17-67" d="M 2848 2816 
C 2483 2809 2170 2739 1914 2617 
C 1702 2783 1485 2816 1338 2816 
C 781 2816 358 2356 358 1824 
C 358 1481 550 1222 563 1209 
C 448 1049 384 876 384 684 
C 384 460 474 300 544 211 
C 211 6 166 -308 166 -429 
C 166 -896 749 -1280 1498 -1280 
C 2253 -1280 2835 -896 2835 -423 
C 2835 460 1856 467 1587 467 
L 1069 467 
C 973 467 717 467 717 793 
C 717 921 774 1004 781 1011 
C 877 940 1075 832 1338 832 
C 1869 832 2310 1279 2310 1824 
C 2310 2128 2170 2349 2112 2425 
L 2131 2425 
C 2150 2425 2419 2444 2515 2444 
C 2720 2444 2739 2438 2918 2419 
L 2848 2816 
z
M 1338 1184 
C 1120 1184 813 1317 813 1824 
C 813 2375 1165 2463 1331 2463 
C 1549 2463 1856 2330 1856 1824 
C 1856 1272 1504 1184 1338 1184 
z
M 1581 0 
C 1734 0 2381 0 2381 -436 
C 2381 -711 1984 -928 1504 -928 
C 1018 -928 621 -717 621 -429 
C 621 -397 621 0 1062 0 
L 1581 0 
z
" transform="scale(0.015625)"/>
       <path id="CMSS17-65" d="M 2502 1375 
C 2502 1587 2490 2001 2285 2347 
C 2061 2713 1696 2816 1421 2816 
C 755 2816 192 2184 192 1363 
C 192 579 774 -64 1510 -64 
C 1798 -64 2150 19 2470 249 
C 2470 275 2458 414 2451 421 
C 2451 433 2432 629 2432 655 
C 2125 408 1773 326 1517 326 
C 1107 326 666 667 646 1375 
L 2502 1375 
z
M 698 1728 
C 781 2086 1062 2425 1421 2425 
C 1517 2425 1965 2412 2080 1728 
L 698 1728 
z
" transform="scale(0.015625)"/>
       <path id="CMSS17-6c" d="M 947 4416 
L 474 4416 
L 474 0 
L 947 0 
L 947 4416 
z
" transform="scale(0.015625)"/>
       <path id="CMSS17-73" d="M 2061 2623 
C 1683 2803 1389 2816 1197 2816 
C 742 2816 198 2655 198 2009 
C 198 1363 902 1222 1094 1183 
C 1389 1126 1715 1062 1715 742 
C 1715 339 1254 339 1171 339 
C 915 339 563 409 243 639 
L 166 211 
C 531 0 883 -64 1178 -64 
C 1965 -64 2163 416 2163 780 
C 2163 1094 1984 1305 1862 1401 
C 1651 1567 1574 1587 1050 1695 
C 960 1708 646 1779 646 2067 
C 646 2431 1050 2431 1139 2431 
C 1555 2431 1811 2303 1984 2207 
L 2061 2623 
z
" transform="scale(0.015625)"/>
       <path id="CMSS17-61" d="M 2406 1789 
C 2406 2399 1978 2816 1402 2816 
C 1120 2816 813 2764 461 2559 
L 499 2133 
C 659 2250 934 2438 1395 2438 
C 1722 2438 1920 2185 1920 1782 
L 1920 1536 
C 896 1504 256 1209 256 711 
C 256 452 416 -64 947 -64 
C 1043 -64 1562 -52 1933 224 
L 1933 -13 
L 2406 -13 
L 2406 1789 
z
M 1920 824 
C 1920 711 1920 559 1728 446 
C 1562 339 1350 326 1261 326 
C 941 326 723 503 723 723 
C 723 1165 1722 1209 1920 1216 
L 1920 824 
z
" transform="scale(0.015625)"/>
      </defs>
      <use xlink:href="#CMSS17-50" transform="scale(0.996264)"/>
      <use xlink:href="#CMSS17-79" transform="translate(59.735586 0) scale(0.996264)"/>
      <use xlink:href="#CMSS17-74" transform="translate(102.735728 0) scale(0.996264)"/>
      <use xlink:href="#CMSS17-68" transform="translate(136.567295 0) scale(0.996264)"/>
      <use xlink:href="#CMSS17-6f" transform="translate(184.772238 0) scale(0.996264)"/>
      <use xlink:href="#CMSS17-6e" transform="translate(231.615861 0) scale(0.996264)"/>
      <use xlink:href="#CMSS17-56" transform="translate(311.049917 0) scale(0.996264)"/>
      <use xlink:href="#CMSS17-6f" transform="translate(370.665318 0) scale(0.996264)"/>
      <use xlink:href="#CMSS17-67" transform="translate(417.508942 0) scale(0.996264)"/>
      <use xlink:href="#CMSS17-65" transform="translate(464.352565 0) scale(0.996264)"/>
      <use xlink:href="#CMSS17-6c" transform="translate(505.991387 0) scale(0.996264)"/>
      <use xlink:href="#CMSS17-73" transform="translate(528.17211 0) scale(0.996264)"/>
      <use xlink:href="#CMSS17-61" transform="translate(564.085652 0) scale(0.996264)"/>
      <use xlink:href="#CMSS17-6e" transform="translate(609.007573 0) scale(0.996264)"/>
      <use xlink:href="#CMSS17-67" transform="translate(657.212516 0) scale(0.996264)"/>
     </g>
    </g>
    <g id="line2d_37">
     <path d="M 187.23505 43.717178 
L 197.23505 43.717178 
L 207.23505 43.717178 
" style="fill: none; stroke-dasharray: 1.5,2.475; stroke-dashoffset: 0; stroke: #2ca02c; stroke-opacity: 0.7; stroke-width: 1.5"/>
    </g>
    <g id="text_12">
     <!-- Mathematica Hirai -->
     <g transform="translate(215.23505 47.217178) scale(0.1 -0.1)">
      <defs>
       <path id="CMSS17-4d" d="M 3194 2373 
L 2886 1476 
C 2835 1311 2662 795 2624 592 
L 2618 592 
C 2598 719 2560 853 2458 1177 
C 2400 1368 2336 1565 2272 1743 
L 1325 4416 
L 576 4416 
L 576 0 
L 1075 0 
L 1075 3899 
L 1082 3899 
C 1082 3893 1139 3613 1530 2500 
L 2374 102 
L 2848 102 
L 3610 2233 
C 3661 2379 3821 2843 3891 3066 
C 3955 3257 4115 3728 4154 3912 
L 4160 3912 
L 4160 0 
L 4666 0 
L 4666 4416 
L 3923 4416 
L 3194 2373 
z
" transform="scale(0.015625)"/>
       <path id="CMSS17-6d" d="M 4288 1878 
C 4288 2309 4179 2816 3462 2816 
C 2982 2816 2694 2515 2566 2328 
C 2451 2668 2182 2816 1798 2816 
C 1363 2816 1088 2566 941 2386 
L 941 2783 
L 474 2783 
L 474 0 
L 960 0 
L 960 1556 
C 960 1936 1101 2425 1555 2425 
C 2138 2425 2138 2013 2138 1826 
L 2138 0 
L 2624 0 
L 2624 1556 
C 2624 1936 2765 2425 3219 2425 
C 3802 2425 3802 2013 3802 1826 
L 3802 0 
L 4288 0 
L 4288 1878 
z
" transform="scale(0.015625)"/>
       <path id="CMSS17-69" d="M 979 4224 
L 442 4224 
L 442 3686 
L 979 3686 
L 979 4224 
z
M 947 2752 
L 474 2752 
L 474 0 
L 947 0 
L 947 2752 
z
" transform="scale(0.015625)"/>
       <path id="CMSS17-63" d="M 2464 2540 
C 2464 2585 2170 2713 2093 2739 
C 1882 2816 1613 2816 1542 2816 
C 710 2816 211 2092 211 1363 
C 211 595 768 -64 1517 -64 
C 1946 -64 2253 76 2502 243 
L 2464 665 
C 2189 454 1869 339 1523 339 
C 1024 339 698 774 698 1369 
C 698 1830 909 2412 1549 2412 
C 1901 2412 2099 2342 2394 2143 
L 2464 2540 
z
" transform="scale(0.015625)"/>
       <path id="CMSS17-48" d="M 3674 4416 
L 3136 4416 
L 3136 2496 
L 1101 2496 
L 1101 4416 
L 563 4416 
L 563 0 
L 1101 0 
L 1101 2105 
L 3136 2105 
L 3136 0 
L 3674 0 
L 3674 4416 
z
" transform="scale(0.015625)"/>
       <path id="CMSS17-72" d="M 954 1369 
C 954 1974 1395 2379 1958 2392 
L 1958 2816 
C 1549 2809 1165 2604 934 2270 
L 934 2783 
L 480 2783 
L 480 0 
L 954 0 
L 954 1369 
z
" transform="scale(0.015625)"/>
      </defs>
      <use xlink:href="#CMSS17-4d" transform="scale(0.996264)"/>
      <use xlink:href="#CMSS17-61" transform="translate(81.67603 0) scale(0.996264)"/>
      <use xlink:href="#CMSS17-74" transform="translate(126.597951 0) scale(0.996264)"/>
      <use xlink:href="#CMSS17-68" transform="translate(160.429517 0) scale(0.996264)"/>
      <use xlink:href="#CMSS17-65" transform="translate(208.63446 0) scale(0.996264)"/>
      <use xlink:href="#CMSS17-6d" transform="translate(250.273282 0) scale(0.996264)"/>
      <use xlink:href="#CMSS17-61" transform="translate(324.502537 0) scale(0.996264)"/>
      <use xlink:href="#CMSS17-74" transform="translate(369.424457 0) scale(0.996264)"/>
      <use xlink:href="#CMSS17-69" transform="translate(403.256024 0) scale(0.996264)"/>
      <use xlink:href="#CMSS17-63" transform="translate(425.436747 0) scale(0.996264)"/>
      <use xlink:href="#CMSS17-61" transform="translate(467.075569 0) scale(0.996264)"/>
      <use xlink:href="#CMSS17-48" transform="translate(543.226603 0) scale(0.996264)"/>
      <use xlink:href="#CMSS17-69" transform="translate(609.288122 0) scale(0.996264)"/>
      <use xlink:href="#CMSS17-72" transform="translate(631.468845 0) scale(0.996264)"/>
      <use xlink:href="#CMSS17-61" transform="translate(663.378617 0) scale(0.996264)"/>
      <use xlink:href="#CMSS17-69" transform="translate(708.300538 0) scale(0.996264)"/>
     </g>
    </g>
    <g id="line2d_38">
     <path d="M 187.23505 57.654357 
L 197.23505 57.654357 
L 207.23505 57.654357 
" style="fill: none; stroke-dasharray: 1.5,2.475; stroke-dashoffset: 0; stroke: #d62728; stroke-opacity: 0.7; stroke-width: 1.5"/>
    </g>
    <g id="text_13">
     <!-- Mathematica Vogelsang -->
     <g transform="translate(215.23505 61.154357) scale(0.1 -0.1)">
      <use xlink:href="#CMSS17-4d" transform="scale(0.996264)"/>
      <use xlink:href="#CMSS17-61" transform="translate(81.67603 0) scale(0.996264)"/>
      <use xlink:href="#CMSS17-74" transform="translate(126.597951 0) scale(0.996264)"/>
      <use xlink:href="#CMSS17-68" transform="translate(160.429517 0) scale(0.996264)"/>
      <use xlink:href="#CMSS17-65" transform="translate(208.63446 0) scale(0.996264)"/>
      <use xlink:href="#CMSS17-6d" transform="translate(250.273282 0) scale(0.996264)"/>
      <use xlink:href="#CMSS17-61" transform="translate(324.502537 0) scale(0.996264)"/>
      <use xlink:href="#CMSS17-74" transform="translate(369.424457 0) scale(0.996264)"/>
      <use xlink:href="#CMSS17-69" transform="translate(403.256024 0) scale(0.996264)"/>
      <use xlink:href="#CMSS17-63" transform="translate(425.436747 0) scale(0.996264)"/>
      <use xlink:href="#CMSS17-61" transform="translate(467.075569 0) scale(0.996264)"/>
      <use xlink:href="#CMSS17-56" transform="translate(543.226603 0) scale(0.996264)"/>
      <use xlink:href="#CMSS17-6f" transform="translate(602.842004 0) scale(0.996264)"/>
      <use xlink:href="#CMSS17-67" transform="translate(649.685627 0) scale(0.996264)"/>
      <use xlink:href="#CMSS17-65" transform="translate(696.529251 0) scale(0.996264)"/>
      <use xlink:href="#CMSS17-6c" transform="translate(738.168073 0) scale(0.996264)"/>
      <use xlink:href="#CMSS17-73" transform="translate(760.348796 0) scale(0.996264)"/>
      <use xlink:href="#CMSS17-61" transform="translate(796.262338 0) scale(0.996264)"/>
      <use xlink:href="#CMSS17-6e" transform="translate(841.184258 0) scale(0.996264)"/>
      <use xlink:href="#CMSS17-67" transform="translate(889.389202 0) scale(0.996264)"/>
     </g>
    </g>
   </g>
  </g>
 </g>
 <defs>
  <clipPath id="pab6e843426">
   <rect x="45" y="17.28" width="279" height="110.88"/>
  </clipPath>
 </defs>
</svg>
